<?xml version="1.0" encoding="UTF-8" standalone="no"?>
<!-- Created with Inkscape (http://www.inkscape.org/) -->

<svg
   xmlns:dc="http://purl.org/dc/elements/1.1/"
   xmlns:cc="http://creativecommons.org/ns#"
   xmlns:rdf="http://www.w3.org/1999/02/22-rdf-syntax-ns#"
   xmlns:svg="http://www.w3.org/2000/svg"
   xmlns="http://www.w3.org/2000/svg"
   xmlns:sodipodi="http://sodipodi.sourceforge.net/DTD/sodipodi-0.dtd"
   xmlns:inkscape="http://www.inkscape.org/namespaces/inkscape"
   width="400"
   height="400"
   viewBox="0 0 105.83333 105.83334"
   version="1.1"
   id="svg8"
   inkscape:version="0.92.3 (2405546, 2018-03-11)"
   sodipodi:docname="m4.svg">
  <defs
     id="defs2">
    <pattern
       y="0"
       x="0"
       height="6"
       width="6"
       patternUnits="userSpaceOnUse"
       id="EMFhbasepattern" />
  </defs>
  <sodipodi:namedview
     id="base"
     pagecolor="#ffffff"
     bordercolor="#666666"
     borderopacity="1.0"
     inkscape:pageopacity="0.0"
     inkscape:pageshadow="2"
     inkscape:zoom="0.98994949"
     inkscape:cx="219.00227"
     inkscape:cy="201.38601"
     inkscape:document-units="mm"
     inkscape:current-layer="layer1"
     showgrid="false"
     units="px"
     inkscape:window-width="958"
     inkscape:window-height="1048"
     inkscape:window-x="953"
     inkscape:window-y="0"
     inkscape:window-maximized="0" />
  <metadata
     id="metadata5">
    <rdf:RDF>
      <cc:Work
         rdf:about="">
        <dc:format>image/svg+xml</dc:format>
        <dc:type
           rdf:resource="http://purl.org/dc/dcmitype/StillImage" />
        <dc:title></dc:title>
      </cc:Work>
    </rdf:RDF>
  </metadata>
  <g
     inkscape:label="Layer 1"
     inkscape:groupmode="layer"
     id="layer1"
     transform="translate(0,-191.16665)">
    <path
       style="fill:#b7b7b7;fill-opacity:1;stroke:none;stroke-width:0.24179035px;stroke-linecap:butt;stroke-linejoin:miter;stroke-opacity:1"
       d="m 6.5988501,244.78434 0.3626901,8.34177 3.1432718,3.98954 30.586481,13.29847 32.158115,5.44029 12.33131,-1.93433 7.858192,-22.4865 z"
       id="path6864"
       inkscape:connector-curvature="0" />
    <path
       style="fill:#b38212;fill-opacity:1;stroke:#000000;stroke-width:0.1846319;stroke-linecap:round;stroke-linejoin:round;stroke-miterlimit:4;stroke-dasharray:none;stroke-opacity:1"
       d="m 55.09065,216.71308 -25.075706,-4.30855 -9.051927,12.23079 10.671842,14.2992 c 0,0 30.166756,12.26207 30.931452,12.83931 0.764712,0.57725 35.89022,4.53986 35.89022,4.53986 0,0 7.722959,-9.56791 5.503359,-12.932 -2.2196,-3.36413 -29.709717,-21.36008 -30.691359,-21.74558 -0.981636,-0.3855 -18.177881,-4.92303 -18.177881,-4.92303 z"
       id="path6847"
       inkscape:connector-curvature="0" />
    <path
       style="fill:#b38212;fill-opacity:1;stroke:#000000;stroke-width:0.1846319;stroke-linecap:round;stroke-linejoin:round;stroke-miterlimit:4;stroke-dasharray:none;stroke-opacity:1"
       d="m 35.599274,233.39318 -25.075698,-4.30859 -9.0519461,12.23083 10.6718421,14.29919 c 0,0 30.166749,12.26207 30.931463,12.83931 0.764702,0.57724 35.890228,4.53985 35.890228,4.53985 0,0 7.722946,-9.56789 5.503361,-12.93199 -2.219594,-3.36413 -29.709729,-21.36009 -30.691363,-21.74557 -0.981643,-0.3855 -18.177887,-4.92303 -18.177887,-4.92303 z"
       id="path6847-0"
       inkscape:connector-curvature="0" />
    <g
       transform="matrix(3.6020829,0,0,3.6020829,26.188829,209.68739)"
       id="g6485-7-50">
      <path
         style="fill:#5acc15;fill-opacity:1;stroke:#000000;stroke-width:0.15875;stroke-linecap:butt;stroke-linejoin:miter;stroke-miterlimit:4;stroke-dasharray:none;stroke-opacity:1"
         d="M 7.300704,12.17749 6.507019,9.60007 C 4.332224,7.67725 2.057812,7.02579 4.054245,1.93329 7.822259,3.19644 7.395199,6.42477 6.507019,9.60007 Z"
         id="path1652-1-6-3"
         inkscape:connector-curvature="0"
         sodipodi:nodetypes="ccccc" />
      <path
         style="fill:none;stroke:#000000;stroke-width:0.15875;stroke-linecap:butt;stroke-linejoin:miter;stroke-miterlimit:4;stroke-dasharray:none;stroke-opacity:1"
         d="M 6.507019,9.60007 4.054245,1.93329"
         id="path1654-1-4-6"
         inkscape:connector-curvature="0" />
    </g>
    <g
       transform="matrix(-3.2392542,0,0,3.2392542,76.135418,214.10575)"
       id="g6485-6-8">
      <path
         style="fill:#5acc15;fill-opacity:1;stroke:#000000;stroke-width:0.15875;stroke-linecap:butt;stroke-linejoin:miter;stroke-miterlimit:4;stroke-dasharray:none;stroke-opacity:1"
         d="M 7.300704,12.17749 6.507019,9.60007 C 4.332224,7.67725 2.057812,7.02579 4.054245,1.93329 7.822259,3.19644 7.395199,6.42477 6.507019,9.60007 Z"
         id="path1652-1-4-43"
         inkscape:connector-curvature="0"
         sodipodi:nodetypes="ccccc" />
      <path
         style="fill:none;stroke:#000000;stroke-width:0.15875;stroke-linecap:butt;stroke-linejoin:miter;stroke-miterlimit:4;stroke-dasharray:none;stroke-opacity:1"
         d="M 6.507019,9.60007 4.054245,1.93329"
         id="path1654-1-1-8"
         inkscape:connector-curvature="0" />
    </g>
  </g>
</svg>
