<?xml version="1.0" encoding="UTF-8" standalone="no"?>
<!-- Created with Inkscape (http://www.inkscape.org/) -->

<svg
   xmlns:dc="http://purl.org/dc/elements/1.1/"
   xmlns:cc="http://creativecommons.org/ns#"
   xmlns:rdf="http://www.w3.org/1999/02/22-rdf-syntax-ns#"
   xmlns:svg="http://www.w3.org/2000/svg"
   xmlns="http://www.w3.org/2000/svg"
   xmlns:sodipodi="http://sodipodi.sourceforge.net/DTD/sodipodi-0.dtd"
   xmlns:inkscape="http://www.inkscape.org/namespaces/inkscape"
   width="400"
   height="400"
   viewBox="0 0 105.83333 105.83334"
   version="1.1"
   id="svg8"
   inkscape:version="0.92.3 (2405546, 2018-03-11)"
   sodipodi:docname="m6.svg">
  <defs
     id="defs2">
    <pattern
       y="0"
       x="0"
       height="6"
       width="6"
       patternUnits="userSpaceOnUse"
       id="EMFhbasepattern" />
  </defs>
  <sodipodi:namedview
     id="base"
     pagecolor="#ffffff"
     bordercolor="#666666"
     borderopacity="1.0"
     inkscape:pageopacity="0.0"
     inkscape:pageshadow="2"
     inkscape:zoom="0.98994949"
     inkscape:cx="208.30184"
     inkscape:cy="213.50784"
     inkscape:document-units="mm"
     inkscape:current-layer="layer1"
     showgrid="false"
     units="px"
     inkscape:window-width="958"
     inkscape:window-height="1048"
     inkscape:window-x="953"
     inkscape:window-y="0"
     inkscape:window-maximized="0" />
  <metadata
     id="metadata5">
    <rdf:RDF>
      <cc:Work
         rdf:about="">
        <dc:format>image/svg+xml</dc:format>
        <dc:type
           rdf:resource="http://purl.org/dc/dcmitype/StillImage" />
        <dc:title></dc:title>
      </cc:Work>
    </rdf:RDF>
  </metadata>
  <g
     inkscape:label="Layer 1"
     inkscape:groupmode="layer"
     id="layer1"
     transform="translate(0,-191.16665)">
    <g
       id="g7346"
       transform="matrix(0.73092912,0,0,0.73092912,-476.75209,460.70115)">
      <path
         sodipodi:nodetypes="ccc"
         inkscape:connector-curvature="0"
         id="path7340"
         d="m 662.48097,-324.50854 c 39.06981,-12.88793 79.12009,-20.64728 124.60104,-3e-5 -35.5788,29.57771 -71.71408,56.09936 -124.60104,3e-5 z"
         style="fill:#e6f8b2;fill-opacity:0.98108108;stroke:#000000;stroke-width:0.26458332px;stroke-linecap:butt;stroke-linejoin:miter;stroke-opacity:1" />
      <path
         inkscape:connector-curvature="0"
         id="path7342"
         d="m 662.48097,-324.50854 124.60102,-3e-5 -1.00492,22.22733 -120.91458,3.175 z"
         style="fill:#e6f8b2;fill-opacity:0.99729728;stroke:none;stroke-width:0.26458332px;stroke-linecap:butt;stroke-linejoin:miter;stroke-opacity:1" />
    </g>
    <path
       style="fill:#ddaa5e;fill-opacity:1;stroke:#000000;stroke-width:0.19339165;stroke-linecap:butt;stroke-linejoin:miter;stroke-miterlimit:4;stroke-dasharray:none;stroke-opacity:1"
       d="m 18.797715,225.66013 c -0.121018,-3.42349 6.362771,-3.73076 6.324373,-0.26698 l -0.159168,8.76121 c 0.11822,1.65005 -6.16419,2.00461 -6.115918,-0.30424 z"
       id="path7022"
       inkscape:connector-curvature="0"
       sodipodi:nodetypes="ccccc" />
    <path
       style="fill:#ddaa5e;fill-opacity:1;stroke:#000000;stroke-width:0.19339165;stroke-linecap:butt;stroke-linejoin:miter;stroke-miterlimit:4;stroke-dasharray:none;stroke-opacity:1"
       d="m 45.894925,234.72824 c -0.121018,-3.42348 6.362771,-3.73075 6.324371,-0.26698 l -0.159167,8.76121 c 0.118219,1.65006 -6.164189,2.00461 -6.115916,-0.30424 z"
       id="path7022-7"
       inkscape:connector-curvature="0"
       sodipodi:nodetypes="ccccc" />
    <path
       style="fill:#ddaa5e;fill-opacity:1;stroke:#000000;stroke-width:0.19339165;stroke-linecap:butt;stroke-linejoin:miter;stroke-miterlimit:4;stroke-dasharray:none;stroke-opacity:1"
       d="m 39.194243,230.35229 c -0.121016,-3.42348 6.362769,-3.73075 6.32437,-0.26699 l -0.159167,8.76123 c 0.118222,1.65004 -6.164189,2.00459 -6.115916,-0.30425 z"
       id="path7022-3"
       inkscape:connector-curvature="0"
       sodipodi:nodetypes="ccccc" />
    <path
       style="fill:#ddaa5e;fill-opacity:1;stroke:#000000;stroke-width:0.19339165;stroke-linecap:butt;stroke-linejoin:miter;stroke-miterlimit:4;stroke-dasharray:none;stroke-opacity:1"
       d="m 34.008018,222.64267 c 2.046595,-2.74706 7.298128,1.06811 5.101936,3.7469 l -5.603426,6.7369 c -0.93968,1.36149 -6.06363,-2.29084 -4.582019,-4.06226 z"
       id="path7022-5"
       inkscape:connector-curvature="0"
       sodipodi:nodetypes="ccccc" />
    <path
       style="fill:#ddaa5e;fill-opacity:1;stroke:#000000;stroke-width:0.19339165;stroke-linecap:butt;stroke-linejoin:miter;stroke-miterlimit:4;stroke-dasharray:none;stroke-opacity:1"
       d="m 36.568842,224.58301 c -0.121017,-3.42348 6.362782,-3.73075 6.32437,-0.26698 l -0.159166,8.76121 c 0.118221,1.65006 -6.164188,2.00461 -6.115917,-0.30424 z"
       id="path7022-9"
       inkscape:connector-curvature="0"
       sodipodi:nodetypes="ccccc" />
    <path
       style="fill:#ddaa5e;fill-opacity:1;stroke:#000000;stroke-width:0.19339165;stroke-linecap:butt;stroke-linejoin:miter;stroke-miterlimit:4;stroke-dasharray:none;stroke-opacity:1"
       d="m 39.194243,232.95052 c -0.121016,-3.42348 6.362769,-3.73076 6.32437,-0.26699 l -0.159167,8.76122 c 0.118222,1.65005 -6.164189,2.0046 -6.115916,-0.30424 z"
       id="path7022-1"
       inkscape:connector-curvature="0"
       sodipodi:nodetypes="ccccc" />
    <path
       style="fill:#ddaa5e;fill-opacity:1;stroke:#000000;stroke-width:0.19339165;stroke-linecap:butt;stroke-linejoin:miter;stroke-miterlimit:4;stroke-dasharray:none;stroke-opacity:1"
       d="m 35.228537,239.65119 c -0.121018,-3.42348 6.362771,-3.73075 6.324372,-0.26698 l -0.159167,8.76122 c 0.118219,1.65005 -6.16419,2.0046 -6.115918,-0.30424 z"
       id="path7022-93"
       inkscape:connector-curvature="0"
       sodipodi:nodetypes="ccccc" />
    <path
       style="fill:#ddaa5e;fill-opacity:1;stroke:#000000;stroke-width:0.19339165;stroke-linecap:butt;stroke-linejoin:miter;stroke-miterlimit:4;stroke-dasharray:none;stroke-opacity:1"
       d="m 37.252224,226.11669 c 2.046596,-2.74706 7.298107,1.06811 5.101925,3.74689 l -5.603414,6.73692 c -0.939691,1.36148 -6.063643,-2.29085 -4.582042,-4.06227 z"
       id="path7022-4"
       inkscape:connector-curvature="0"
       sodipodi:nodetypes="ccccc" />
    <path
       style="fill:#ddaa5e;fill-opacity:1;stroke:#000000;stroke-width:0.19339165;stroke-linecap:butt;stroke-linejoin:miter;stroke-miterlimit:4;stroke-dasharray:none;stroke-opacity:1"
       d="m 84.237465,226.70877 c -0.12102,-3.42348 6.362769,-3.73074 6.32437,-0.26697 l -0.159167,8.76122 c 0.118219,1.65005 -6.164189,2.0046 -6.115916,-0.30425 z"
       id="path7022-97"
       inkscape:connector-curvature="0"
       sodipodi:nodetypes="ccccc" />
    <path
       style="fill:#ddaa5e;fill-opacity:1;stroke:#000000;stroke-width:0.19339165;stroke-linecap:butt;stroke-linejoin:miter;stroke-miterlimit:4;stroke-dasharray:none;stroke-opacity:1"
       d="m 46.947801,242.04155 c 2.389507,-2.45463 7.094764,2.0169 4.56592,4.38422 l -6.439288,5.94304 c -1.110277,1.22634 -5.71044,-3.06701 -4.009125,-4.62861 z"
       id="path7022-09"
       inkscape:connector-curvature="0"
       sodipodi:nodetypes="ccccc" />
    <path
       style="fill:#ddaa5e;fill-opacity:1;stroke:#000000;stroke-width:0.19339165;stroke-linecap:butt;stroke-linejoin:miter;stroke-miterlimit:4;stroke-dasharray:none;stroke-opacity:1"
       d="m 22.895993,228.22444 c 2.046594,-2.74706 7.298129,1.0681 5.101936,3.74689 l -5.603427,6.73692 c -0.93968,1.36147 -6.063629,-2.29084 -4.582018,-4.06227 z"
       id="path7022-66"
       inkscape:connector-curvature="0"
       sodipodi:nodetypes="ccccc" />
    <path
       style="fill:#ddaa5e;fill-opacity:1;stroke:#000000;stroke-width:0.19339165;stroke-linecap:butt;stroke-linejoin:miter;stroke-miterlimit:4;stroke-dasharray:none;stroke-opacity:1"
       d="m 28.347271,232.70392 c 2.389504,-2.45463 7.094764,2.0169 4.565917,4.38421 l -6.439297,5.94304 c -1.110266,1.22635 -5.710441,-3.067 -4.009115,-4.6286 z"
       id="path7022-41"
       inkscape:connector-curvature="0"
       sodipodi:nodetypes="ccccc" />
    <path
       style="fill:#ddaa5e;fill-opacity:1;stroke:#000000;stroke-width:0.19339165;stroke-linecap:butt;stroke-linejoin:miter;stroke-miterlimit:4;stroke-dasharray:none;stroke-opacity:1"
       d="m 45.495677,225.57557 c -0.12102,-3.42348 6.362769,-3.73075 6.32437,-0.26698 l -0.159167,8.76122 c 0.118218,1.65004 -6.164189,2.0046 -6.115916,-0.30424 z"
       id="path7022-167"
       inkscape:connector-curvature="0"
       sodipodi:nodetypes="ccccc" />
    <path
       style="fill:#ddaa5e;fill-opacity:1;stroke:#000000;stroke-width:0.19339165;stroke-linecap:butt;stroke-linejoin:miter;stroke-miterlimit:4;stroke-dasharray:none;stroke-opacity:1"
       d="m 62.507853,231.71817 c -0.121029,-3.42348 6.36277,-3.73074 6.324362,-0.26698 l -0.159167,8.76121 c 0.11823,1.65006 -6.164181,2.00461 -6.115909,-0.30423 z"
       id="path7022-3-4"
       inkscape:connector-curvature="0"
       sodipodi:nodetypes="ccccc" />
    <path
       style="fill:#ddaa5e;fill-opacity:1;stroke:#000000;stroke-width:0.19339165;stroke-linecap:butt;stroke-linejoin:miter;stroke-miterlimit:4;stroke-dasharray:none;stroke-opacity:1"
       d="m 57.321627,224.00855 c 2.046596,-2.74706 7.298117,1.06811 5.101925,3.74691 l -5.603415,6.7369 c -0.93968,1.3615 -6.063629,-2.29084 -4.582029,-4.06226 z"
       id="path7022-5-6"
       inkscape:connector-curvature="0"
       sodipodi:nodetypes="ccccc" />
    <path
       style="fill:#ddaa5e;fill-opacity:1;stroke:#000000;stroke-width:0.19339165;stroke-linecap:butt;stroke-linejoin:miter;stroke-miterlimit:4;stroke-dasharray:none;stroke-opacity:1"
       d="m 62.507853,234.3164 c -0.121029,-3.42348 6.36277,-3.73076 6.324362,-0.26698 l -0.159167,8.76121 c 0.11823,1.65006 -6.164181,2.00461 -6.115909,-0.30424 z"
       id="path7022-1-5"
       inkscape:connector-curvature="0"
       sodipodi:nodetypes="ccccc" />
    <path
       style="fill:#ddaa5e;fill-opacity:1;stroke:#000000;stroke-width:0.19339165;stroke-linecap:butt;stroke-linejoin:miter;stroke-miterlimit:4;stroke-dasharray:none;stroke-opacity:1"
       d="m 79.327927,221.32528 c -0.12102,-3.42348 6.362769,-3.73075 6.32437,-0.26697 l -0.159167,8.76121 c 0.118218,1.65005 -6.164189,2.00461 -6.115916,-0.30424 z"
       id="path7022-10-8"
       inkscape:connector-curvature="0"
       sodipodi:nodetypes="ccccc" />
    <path
       style="fill:#ddaa5e;fill-opacity:1;stroke:#000000;stroke-width:0.19339165;stroke-linecap:butt;stroke-linejoin:miter;stroke-miterlimit:4;stroke-dasharray:none;stroke-opacity:1"
       d="m 59.90925,220.12399 c 2.046596,-2.74706 7.298119,1.06811 5.101936,3.7469 l -5.603426,6.7369 c -0.939678,1.36149 -6.06363,-2.29084 -4.58203,-4.06226 z"
       id="path7022-4-5"
       inkscape:connector-curvature="0"
       sodipodi:nodetypes="ccccc" />
    <path
       style="fill:#ddaa5e;fill-opacity:1;stroke:#000000;stroke-width:0.19339165;stroke-linecap:butt;stroke-linejoin:miter;stroke-miterlimit:4;stroke-dasharray:none;stroke-opacity:1"
       d="m 71.815408,228.67098 c 2.046594,-2.74706 7.298117,1.06811 5.101934,3.74689 l -5.603426,6.73693 c -0.939679,1.36147 -6.06363,-2.29085 -4.582029,-4.06227 z"
       id="path7022-720-1"
       inkscape:connector-curvature="0"
       sodipodi:nodetypes="ccccc" />
    <path
       style="fill:#ddaa5e;fill-opacity:1;stroke:#000000;stroke-width:0.19339165;stroke-linecap:butt;stroke-linejoin:miter;stroke-miterlimit:4;stroke-dasharray:none;stroke-opacity:1"
       d="m 51.66088,234.06981 c -0.121015,-3.42348 6.36277,-3.73076 6.324374,-0.26698 l -0.159167,8.76121 c 0.118219,1.65005 -6.164192,2.00461 -6.115919,-0.30424 z"
       id="path7022-97-7"
       inkscape:connector-curvature="0"
       sodipodi:nodetypes="ccccc" />
    <path
       style="fill:#ddaa5e;fill-opacity:1;stroke:#000000;stroke-width:0.19339165;stroke-linecap:butt;stroke-linejoin:miter;stroke-miterlimit:4;stroke-dasharray:none;stroke-opacity:1"
       d="m 67.921035,224.11587 c 2.389496,-2.45462 7.094754,2.01691 4.565918,4.38422 l -6.439297,5.94305 c -1.110277,1.22634 -5.71044,-3.06701 -4.009113,-4.62861 z"
       id="path7022-44-4"
       inkscape:connector-curvature="0"
       sodipodi:nodetypes="ccccc" />
    <path
       style="fill:#ddaa5e;fill-opacity:1;stroke:#000000;stroke-width:0.19339165;stroke-linecap:butt;stroke-linejoin:miter;stroke-miterlimit:4;stroke-dasharray:none;stroke-opacity:1"
       d="m 61.00407,226.68945 c 2.046594,-2.74707 7.298129,1.06811 5.101934,3.74689 l -5.603426,6.73691 c -0.939678,1.36148 -6.06363,-2.29084 -4.582029,-4.06226 z"
       id="path7022-66-8"
       inkscape:connector-curvature="0"
       sodipodi:nodetypes="ccccc" />
    <path
       style="fill:#ddaa5e;fill-opacity:1;stroke:#000000;stroke-width:0.19339165;stroke-linecap:butt;stroke-linejoin:miter;stroke-miterlimit:4;stroke-dasharray:none;stroke-opacity:1"
       d="m 79.327927,221.32528 c 2.046593,-2.74705 7.298116,1.06811 5.101924,3.7469 l -5.603417,6.73692 c -0.939679,1.36148 -6.063639,-2.29084 -4.582042,-4.06227 z"
       id="path7022-582-1"
       inkscape:connector-curvature="0"
       sodipodi:nodetypes="ccccc" />
    <path
       style="fill:#f8992e;fill-opacity:1;stroke:#000000;stroke-width:0.11603501;stroke-linecap:butt;stroke-linejoin:miter;stroke-miterlimit:4;stroke-dasharray:none;stroke-opacity:1"
       d="m 20.097309,231.61278 c -0.07774,-2.23391 0.223382,-3.52359 2.798684,-3.38834 2.924632,1.76798 1.68607,2.8206 -0.158806,4.49706 -1.173839,-1.26661 -2.428309,0.10957 -2.639878,-1.10872 z"
       id="path1826-45-3-5-32"
       inkscape:connector-curvature="0"
       sodipodi:nodetypes="cccc" />
    <path
       style="fill:#f8992e;fill-opacity:1;stroke:#000000;stroke-width:0.11603501;stroke-linecap:butt;stroke-linejoin:miter;stroke-miterlimit:4;stroke-dasharray:none;stroke-opacity:1"
       d="m 64.024836,232.95872 c -0.07774,-2.2339 0.223385,-3.52359 2.798695,-3.38834 2.924634,1.76799 1.686059,2.82059 -0.158815,4.49706 -1.17384,-1.26661 -2.428309,0.10956 -2.63988,-1.10872 z"
       id="path1826-45-3-5-464"
       inkscape:connector-curvature="0"
       sodipodi:nodetypes="cccc" />
    <path
       style="fill:#f8992e;fill-opacity:1;stroke:#000000;stroke-width:0.11603501;stroke-linecap:butt;stroke-linejoin:miter;stroke-miterlimit:4;stroke-dasharray:none;stroke-opacity:1"
       d="m 74.67429,233.343 c -0.07774,-2.23391 0.223381,-3.52359 2.798695,-3.38835 2.924618,1.76799 1.686059,2.8206 -0.158819,4.49708 -1.173836,-1.26661 -2.428309,0.10956 -2.639876,-1.10873 z"
       id="path1826-45-3-5-9"
       inkscape:connector-curvature="0"
       sodipodi:nodetypes="cccc" />
    <path
       style="fill:#f8992e;fill-opacity:1;stroke:#000000;stroke-width:0.11603501;stroke-linecap:butt;stroke-linejoin:miter;stroke-miterlimit:4;stroke-dasharray:none;stroke-opacity:1"
       d="m 88.127579,228.21292 c -0.07774,-2.23392 0.223385,-3.52359 2.798695,-3.38835 2.924622,1.76798 1.686059,2.8206 -0.158815,4.49707 -1.17384,-1.26661 -2.428309,0.10956 -2.63988,-1.10872 z"
       id="path1826-45-3-5-82"
       inkscape:connector-curvature="0"
       sodipodi:nodetypes="cccc" />
    <path
       style="fill:#f8992e;fill-opacity:1;stroke:#000000;stroke-width:0.11603501;stroke-linecap:butt;stroke-linejoin:miter;stroke-miterlimit:4;stroke-dasharray:none;stroke-opacity:1"
       d="m 57.862701,236.06453 c -0.07774,-2.23391 0.223382,-3.52359 2.798695,-3.38834 2.924631,1.76799 1.686059,2.8206 -0.158818,4.49706 -1.173837,-1.26661 -2.428309,0.10957 -2.639877,-1.10872 z"
       id="path1826-45-3-5-34"
       inkscape:connector-curvature="0"
       sodipodi:nodetypes="cccc" />
    <path
       style="fill:#f8992e;fill-opacity:1;stroke:#000000;stroke-width:0.11603501;stroke-linecap:butt;stroke-linejoin:miter;stroke-miterlimit:4;stroke-dasharray:none;stroke-opacity:1"
       d="m 42.696982,228.96391 c -0.07774,-2.2339 0.223381,-3.52359 2.798695,-3.38834 2.92463,1.76799 1.686059,2.8206 -0.158819,4.49707 -1.173837,-1.26661 -2.428309,0.10957 -2.639876,-1.10873 z"
       id="path1826-45-3-5-58"
       inkscape:connector-curvature="0"
       sodipodi:nodetypes="cccc" />
    <path
       style="fill:#f8992e;fill-opacity:1;stroke:#000000;stroke-width:0.11603501;stroke-linecap:butt;stroke-linejoin:miter;stroke-miterlimit:4;stroke-dasharray:none;stroke-opacity:1"
       d="m 50.13868,231.1401 c -0.07774,-2.2339 0.223374,-3.52359 2.798687,-3.38834 2.924631,1.76799 1.686069,2.82059 -0.158818,4.49707 -1.173828,-1.26661 -2.428309,0.10957 -2.639869,-1.10873 z"
       id="path1826-45-3-5-0"
       inkscape:connector-curvature="0"
       sodipodi:nodetypes="cccc" />
    <path
       style="fill:#f8992e;fill-opacity:1;stroke:#000000;stroke-width:0.11603501;stroke-linecap:butt;stroke-linejoin:miter;stroke-miterlimit:4;stroke-dasharray:none;stroke-opacity:1"
       d="m 31.084741,234.67494 c -0.07775,-2.2339 0.223382,-3.52359 2.798694,-3.38834 2.924632,1.76799 1.68606,2.82059 -0.158817,4.49707 -1.173838,-1.26661 -2.428309,0.10957 -2.639877,-1.10873 z"
       id="path1826-45-3-5-61"
       inkscape:connector-curvature="0"
       sodipodi:nodetypes="cccc" />
    <path
       style="fill:#f8992e;fill-opacity:1;stroke:#000000;stroke-width:0.11603501;stroke-linecap:butt;stroke-linejoin:miter;stroke-miterlimit:4;stroke-dasharray:none;stroke-opacity:1"
       d="m 13.28299,228.82628 c -0.07774,-2.23392 0.223383,-3.52359 2.798695,-3.38835 2.924632,1.76798 1.686059,2.8206 -0.158817,4.49707 -1.173838,-1.26662 -2.428309,0.10956 -2.639878,-1.10872 z"
       id="path1826-45-3-5-19"
       inkscape:connector-curvature="0"
       sodipodi:nodetypes="cccc" />
    <path
       style="fill:#cde77f;fill-opacity:0.97297297;stroke:#000000;stroke-width:0.19339165px;stroke-linecap:butt;stroke-linejoin:miter;stroke-opacity:1"
       d="m 7.4745287,223.50838 c 26.9173483,15.0741 56.5151953,18.40513 91.0745413,-10e-6 l -0.136759,50.04998 -91.2112754,0.41025 z"
       id="path7338"
       inkscape:connector-curvature="0"
       sodipodi:nodetypes="ccccc" />
  </g>
</svg>
