<?xml version="1.0" encoding="UTF-8" standalone="no"?>
<!-- Created with Inkscape (http://www.inkscape.org/) -->

<svg
   xmlns:dc="http://purl.org/dc/elements/1.1/"
   xmlns:cc="http://creativecommons.org/ns#"
   xmlns:rdf="http://www.w3.org/1999/02/22-rdf-syntax-ns#"
   xmlns:svg="http://www.w3.org/2000/svg"
   xmlns="http://www.w3.org/2000/svg"
   xmlns:sodipodi="http://sodipodi.sourceforge.net/DTD/sodipodi-0.dtd"
   xmlns:inkscape="http://www.inkscape.org/namespaces/inkscape"
   width="400"
   height="400"
   viewBox="0 0 105.83333 105.83334"
   version="1.1"
   id="svg8"
   inkscape:version="0.92.3 (2405546, 2018-03-11)"
   sodipodi:docname="n1.svg">
  <defs
     id="defs2">
    <pattern
       y="0"
       x="0"
       height="6"
       width="6"
       patternUnits="userSpaceOnUse"
       id="EMFhbasepattern" />
    <pattern
       y="0"
       x="0"
       height="6"
       width="6"
       patternUnits="userSpaceOnUse"
       id="EMFhbasepattern-9" />
  </defs>
  <sodipodi:namedview
     id="base"
     pagecolor="#ffffff"
     bordercolor="#666666"
     borderopacity="1.0"
     inkscape:pageopacity="0.0"
     inkscape:pageshadow="2"
     inkscape:zoom="0.98994949"
     inkscape:cx="208.30184"
     inkscape:cy="213.50784"
     inkscape:document-units="mm"
     inkscape:current-layer="layer1"
     showgrid="false"
     units="px"
     inkscape:window-width="958"
     inkscape:window-height="1048"
     inkscape:window-x="953"
     inkscape:window-y="0"
     inkscape:window-maximized="0" />
  <metadata
     id="metadata5">
    <rdf:RDF>
      <cc:Work
         rdf:about="">
        <dc:format>image/svg+xml</dc:format>
        <dc:type
           rdf:resource="http://purl.org/dc/dcmitype/StillImage" />
        <dc:title></dc:title>
      </cc:Work>
    </rdf:RDF>
  </metadata>
  <g
     inkscape:label="Layer 1"
     inkscape:groupmode="layer"
     id="layer1"
     transform="translate(0,-191.16665)">
    <path
       style="fill:#e82222;fill-opacity:1;stroke:#000000;stroke-width:0.07004688;stroke-linecap:round;stroke-linejoin:round;stroke-miterlimit:4;stroke-dasharray:none;stroke-opacity:1"
       d="m 49.458767,207.55295 6.81046,0.009 -0.006,4.37727 -6.80745,0.007 z"
       id="path7638"
       inkscape:connector-curvature="0"
       sodipodi:nodetypes="ccccc" />
    <path
       style="fill:#0d0d0d;fill-opacity:1;stroke:#000000;stroke-width:0.07004688;stroke-linecap:round;stroke-linejoin:round;stroke-miterlimit:4;stroke-dasharray:none;stroke-opacity:1"
       d="m 49.547907,211.98237 0.5238,0.52674 0.0248,1.18873 -3.39284,4.21011 -1.80787,3.86338 -0.99061,2.79848 -0.42101,8.86599 0.6439,3.86339 0.0743,16.39463 -0.54483,4.25963 -0.39625,9.36129 v 6.88476 l 0.7182,2.94707 1.51068,1.88217 1.41162,0.22288 2.006,-0.56959 0.39623,0.0495 0.9411,1.48591 2.25363,0.39624 1.48592,-0.79248 0.54484,-0.94108 2.03076,0.0743 1.41162,0.71819 2.52606,-0.69343 1.1392,-1.88215 0.81726,-4.11106 0.11762,-13.21848 -0.74296,-4.50729 -0.0991,-8.54402 0.0805,-9.46655 0.71198,-3.58478 0.0248,-4.06151 -0.24765,-3.51668 -1.72739,-4.6373 -3.19472,-5.84461 c 0,0 -1.73358,-1.95646 -1.73358,-2.05552 0,-0.0991 -0.17335,-1.04015 -0.17335,-1.04015 l 0.79248,-0.5696 z"
       id="path7640"
       inkscape:connector-curvature="0"
       sodipodi:nodetypes="cccccccccccccccccccccccccccccccccccsccc" />
    <path
       style="fill:#e82222;fill-opacity:1;stroke:#000000;stroke-width:0.07004688;stroke-linecap:round;stroke-linejoin:round;stroke-miterlimit:4;stroke-dasharray:none;stroke-opacity:1"
       d="m 44.128017,237.29919 17.68245,-0.0495 -0.0389,16.59676 -17.569319,-0.15259 z"
       id="path7642"
       inkscape:connector-curvature="0"
       sodipodi:nodetypes="ccccc" />
  </g>
</svg>
