<?xml version="1.0" encoding="UTF-8" standalone="no"?>
<!-- Created with Inkscape (http://www.inkscape.org/) -->

<svg
   xmlns:dc="http://purl.org/dc/elements/1.1/"
   xmlns:cc="http://creativecommons.org/ns#"
   xmlns:rdf="http://www.w3.org/1999/02/22-rdf-syntax-ns#"
   xmlns:svg="http://www.w3.org/2000/svg"
   xmlns="http://www.w3.org/2000/svg"
   xmlns:sodipodi="http://sodipodi.sourceforge.net/DTD/sodipodi-0.dtd"
   xmlns:inkscape="http://www.inkscape.org/namespaces/inkscape"
   width="400"
   height="400"
   viewBox="0 0 105.83333 105.83334"
   version="1.1"
   id="svg8"
   inkscape:version="0.92.3 (2405546, 2018-03-11)"
   sodipodi:docname="p10.svg">
  <defs
     id="defs2">
    <pattern
       y="0"
       x="0"
       height="6"
       width="6"
       patternUnits="userSpaceOnUse"
       id="EMFhbasepattern" />
  </defs>
  <sodipodi:namedview
     id="base"
     pagecolor="#ffffff"
     bordercolor="#666666"
     borderopacity="1.0"
     inkscape:pageopacity="0.0"
     inkscape:pageshadow="2"
     inkscape:zoom="0.98994949"
     inkscape:cx="219.00227"
     inkscape:cy="201.38601"
     inkscape:document-units="mm"
     inkscape:current-layer="layer1"
     showgrid="false"
     units="px"
     inkscape:window-width="958"
     inkscape:window-height="1048"
     inkscape:window-x="953"
     inkscape:window-y="0"
     inkscape:window-maximized="0" />
  <metadata
     id="metadata5">
    <rdf:RDF>
      <cc:Work
         rdf:about="">
        <dc:format>image/svg+xml</dc:format>
        <dc:type
           rdf:resource="http://purl.org/dc/dcmitype/StillImage" />
        <dc:title></dc:title>
      </cc:Work>
    </rdf:RDF>
  </metadata>
  <g
     inkscape:label="Layer 1"
     inkscape:groupmode="layer"
     id="layer1"
     transform="translate(0,-191.16665)">
    <g
       transform="translate(149.76651,307.78953)"
       id="g5873">
      <g
         transform="translate(-43.391667,-5.2916667)"
         id="g2895">
        <path
           style="fill:none;stroke:none;stroke-width:0.26458332;stroke-linecap:round;stroke-linejoin:round;stroke-miterlimit:4;stroke-dasharray:none;stroke-opacity:1"
           d="m -85.779307,-91.758057 c 4.35611,-6.46471 11.546868,-10.283763 21.247926,-11.759863 12.95496,-2.75562 22.782678,1.09072 32.606879,4.944493 11.794001,5.65095 16.083111,15.25185 21.381562,24.32152 4.8853593,8.24081 4.4722093,16.48162 2.2717893,24.72243 -0.639979,9.07082 -4.9969183,14.42466 -9.0871603,20.04522 -6.014249,8.27378 -12.974428,14.23527 -22.18337,14.69982 -13.586209,4.23178 -20.715981,2.00711 -28.063304,0 -15.105082,-1.78267 -18.700492,-8.60083 -22.717902,-15.23436 -10.451853,-8.71501 -9.792993,-17.80038 -9.888993,-26.86059 l 4.409963,-20.17885 z"
           id="path823-0-7"
           inkscape:connector-curvature="0"
           sodipodi:nodetypes="cccccccccccc" />
        <path
           style="fill:#d7732b;fill-opacity:1;stroke:#000000;stroke-width:0.26458332;stroke-linecap:round;stroke-linejoin:round;stroke-miterlimit:4;stroke-dasharray:none;stroke-opacity:1"
           d="m -85.779307,-91.758057 c 4.35611,-6.46471 11.546868,-10.283763 21.247926,-11.759863 12.95496,-2.75562 22.782678,1.09072 32.606879,4.944493 11.794001,5.65095 16.083111,15.25185 21.381562,24.32152 4.8853593,8.24081 4.4722093,16.48162 2.2717893,24.72243 -0.639979,9.07082 -4.9969183,14.42466 -9.0871603,20.04522 -6.014249,8.27378 -12.974428,14.23527 -22.18337,14.69982 -13.586209,4.23178 -20.715981,2.00711 -28.063304,0 -15.105082,-1.78267 -18.700492,-8.60083 -22.717902,-15.23436 -10.451853,-8.71501 -9.792993,-17.80038 -9.888993,-26.86059 l 4.409963,-20.17885 z"
           id="path823-9-8-7"
           inkscape:connector-curvature="0"
           sodipodi:nodetypes="cccccccccccc" />
        <path
           style="fill:#fce8a8;fill-opacity:1;stroke:none;stroke-width:0.249025;stroke-linecap:round;stroke-linejoin:round;stroke-miterlimit:4;stroke-dasharray:none;stroke-opacity:1"
           d="m -13.582021,-75.186397 c 4.1747413,5.981 5.0580313,13.58043 3.026481,22.61312 -2.025189,12.32267 -8.766759,19.70096 -15.513611,27.07368 -8.997889,8.51108 -18.886148,9.10263 -28.654663,10.75932 -8.900176,1.5679 -15.983889,-1.53015 -22.454903,-6.20211 -7.73369,-3.57318 -10.93414,-9.18634 -14.45991,-14.65311 -5.1924,-8.04144 -8.03322,-16.14865 -5.28348,-24.41233 0.94735,-13.36833 5.34214,-18.90882 9.62076,-24.71306 6.74137,-12.71034 13.95197,-13.61431 21.145371,-14.95118 11.224244,-6.312513 18.964246,-2.717873 26.940936,0.20369 l 16.18052,10.57862 z"
           id="path823-1-3-41-1"
           inkscape:connector-curvature="0"
           sodipodi:nodetypes="cccccccccccc" />
        <path
           style="fill:#fbe9a7;fill-opacity:1;stroke:none;stroke-width:0.22322927;stroke-linecap:round;stroke-linejoin:round;stroke-miterlimit:4;stroke-dasharray:none;stroke-opacity:1"
           d="m -39.628361,-93.993947 c 6.494761,1.03675 11.972012,5.18266 16.548171,12.08199 6.711371,8.93478 7.259529,17.82199 7.800761,26.70912 -0.134242,11.03304 -5.957522,17.72626 -11.015652,25.00317 -4.57064,6.6663 -11.023708,9.27793 -18.111769,10.52184 -7.168814,2.73293 -12.813771,1.30087 -18.56808,0.16769 -8.468262,-1.66294 -15.503087,-4.87122 -19.130327,-11.75332 -8.06525,-8.8934 -8.8959,-15.13985 -9.97029,-21.47548 -4.00235,-12.19252 -0.0621,-17.36626 3.58692,-22.79734 2.95585,-11.09453 10.14253,-13.81819 17.041744,-17.11055 l 17.008639,-3.79439 z"
           id="path823-1-83-9"
           inkscape:connector-curvature="0"
           sodipodi:nodetypes="cccccccccccc" />
        <path
           style="fill:#cc0001;fill-opacity:1;stroke:none;stroke-width:0.23646981;stroke-linecap:round;stroke-linejoin:round;stroke-miterlimit:4;stroke-dasharray:none;stroke-opacity:1"
           d="m -84.193647,-87.167947 c 3.70754,-5.89891 10.021986,-9.51445 18.645075,-11.1079 11.493159,-2.828723 20.38032,0.32929 29.26452,3.49402 10.694591,4.71458 14.797842,13.17052 19.787582,21.12327 4.59726,7.22396 4.461931,14.59795 2.730209,22.02257 -0.314389,8.12195 -4.054179,13.02842 -7.54815,18.16562 -5.137298,7.56207 -11.18503,13.08513 -19.397228,13.76093 -12.015121,4.16538 -18.446491,2.37977 -25.066017,0.7947 -13.542321,-1.16488 -16.947061,-7.1544 -20.723511,-12.96698 -9.58266,-7.48998 -9.25182,-15.62547 -9.5945,-23.71709 l 3.36672,-18.15256 z"
           id="path823-1-8-9-3-1"
           inkscape:connector-curvature="0"
           sodipodi:nodetypes="cccccccccccc" />
        <path
           style="fill:#f5cc15;fill-opacity:1;stroke:none;stroke-width:0.22322927;stroke-linecap:round;stroke-linejoin:round;stroke-miterlimit:4;stroke-dasharray:none;stroke-opacity:1"
           d="m -39.628361,-93.993947 c 6.494761,1.03675 11.972012,5.18266 16.548171,12.08199 6.711371,8.93478 7.259529,17.82199 7.800761,26.70912 -0.134242,11.03304 -5.957522,17.72626 -11.015652,25.00317 -4.57064,6.6663 -11.023708,9.27793 -18.111769,10.52184 -7.168814,2.73293 -12.813771,1.30087 -18.56808,0.16769 -8.468262,-1.66294 -15.503087,-4.87122 -19.130327,-11.75332 -8.06525,-8.8934 -8.8959,-15.13985 -9.97029,-21.47548 -4.00235,-12.19252 -0.0621,-17.36626 3.58692,-22.79734 2.95585,-11.09453 10.14253,-13.81819 17.041744,-17.11055 l 17.008639,-3.79439 z"
           id="path823-1-8-7-3"
           inkscape:connector-curvature="0"
           sodipodi:nodetypes="cccccccccccc" />
        <path
           sodipodi:nodetypes="cccccccccccc"
           inkscape:connector-curvature="0"
           id="path1536-9-6"
           d="m -85.779307,-91.758057 c 4.35611,-6.46471 11.546868,-10.283763 21.247926,-11.759863 12.95496,-2.75562 22.782678,1.09072 32.606879,4.944493 11.794001,5.65095 16.083111,15.25185 21.381562,24.32152 4.8853593,8.24081 4.4722093,16.48162 2.2717893,24.72243 -0.639979,9.07082 -4.9969183,14.42466 -9.0871603,20.04522 -6.014249,8.27378 -12.974428,14.23527 -22.18337,14.69982 -13.586209,4.23178 -20.715981,2.00711 -28.063304,0 -15.105082,-1.78267 -18.700492,-8.60083 -22.717902,-15.23436 -10.451853,-8.71501 -9.792993,-17.80038 -9.888993,-26.86059 l 4.409963,-20.17885 z"
           style="fill:none;stroke:none;stroke-width:0.26458332;stroke-linecap:round;stroke-linejoin:round;stroke-miterlimit:4;stroke-dasharray:none;stroke-opacity:1" />
        <path
           sodipodi:nodetypes="cccccccccccc"
           inkscape:connector-curvature="0"
           id="path1538-3-9"
           d="m -85.779307,-91.758057 c 4.35611,-6.46471 11.546868,-10.283763 21.247926,-11.759863 12.95496,-2.75562 22.782678,1.09072 32.606879,4.944493 11.794001,5.65095 16.083111,15.25185 21.381562,24.32152 4.8853593,8.24081 4.4722093,16.48162 2.2717893,24.72243 -0.639979,9.07082 -4.9969183,14.42466 -9.0871603,20.04522 -6.014249,8.27378 -12.974428,14.23527 -22.18337,14.69982 -13.586209,4.23178 -20.715981,2.00711 -28.063304,0 -15.105082,-1.78267 -18.700492,-8.60083 -22.717902,-15.23436 -10.451853,-8.71501 -9.792993,-17.80038 -9.888993,-26.86059 l 4.409963,-20.17885 z"
           style="fill:#d7732b;fill-opacity:1;stroke:#000000;stroke-width:0.26458332;stroke-linecap:round;stroke-linejoin:round;stroke-miterlimit:4;stroke-dasharray:none;stroke-opacity:1" />
        <path
           sodipodi:nodetypes="cccccccccccc"
           inkscape:connector-curvature="0"
           id="path1540-0-5"
           d="m -13.582021,-75.186397 c 4.1747413,5.981 5.0580313,13.58043 3.026481,22.61312 -2.025189,12.32267 -8.766759,19.70096 -15.513611,27.07368 -8.997889,8.51108 -18.886148,9.10263 -28.654663,10.75932 -8.900176,1.5679 -15.983889,-1.53015 -22.454903,-6.20211 -7.73369,-3.57318 -10.93414,-9.18634 -14.45991,-14.65311 -5.1924,-8.04144 -8.03322,-16.14865 -5.28348,-24.41233 0.94735,-13.36833 5.34214,-18.90882 9.62076,-24.71306 6.74137,-12.71034 13.95197,-13.61431 21.145371,-14.95118 11.224244,-6.312513 18.964246,-2.717873 26.940936,0.20369 l 16.18052,10.57862 z"
           style="fill:#fce8a8;fill-opacity:1;stroke:none;stroke-width:0.249025;stroke-linecap:round;stroke-linejoin:round;stroke-miterlimit:4;stroke-dasharray:none;stroke-opacity:1" />
        <path
           sodipodi:nodetypes="cccccccccccc"
           inkscape:connector-curvature="0"
           id="path1542-45-59"
           d="m -39.628361,-93.993947 c 6.494761,1.03675 11.972012,5.18266 16.548171,12.08199 6.711371,8.93478 7.259529,17.82199 7.800761,26.70912 -0.134242,11.03304 -5.957522,17.72626 -11.015652,25.00317 -4.57064,6.6663 -11.023708,9.27793 -18.111769,10.52184 -7.168814,2.73293 -12.813771,1.30087 -18.56808,0.16769 -8.468262,-1.66294 -15.503087,-4.87122 -19.130327,-11.75332 -8.06525,-8.8934 -8.8959,-15.13985 -9.97029,-21.47548 -4.00235,-12.19252 -0.0621,-17.36626 3.58692,-22.79734 2.95585,-11.09453 10.14253,-13.81819 17.041744,-17.11055 l 17.008639,-3.79439 z"
           style="fill:#fbe9a7;fill-opacity:1;stroke:none;stroke-width:0.22322927;stroke-linecap:round;stroke-linejoin:round;stroke-miterlimit:4;stroke-dasharray:none;stroke-opacity:1" />
        <path
           sodipodi:nodetypes="cccccccccccc"
           inkscape:connector-curvature="0"
           id="path1546-93-5"
           d="m -84.193647,-87.167947 c 3.70754,-5.89891 10.021986,-9.51445 18.645075,-11.1079 11.493159,-2.828723 20.38032,0.32929 29.26452,3.49402 10.694591,4.71458 14.797842,13.17052 19.787582,21.12327 4.59726,7.22396 4.461931,14.59795 2.730209,22.02257 -0.314389,8.12195 -4.054179,13.02842 -7.54815,18.16562 -5.137298,7.56207 -11.18503,13.08513 -19.397228,13.76093 -12.015121,4.16538 -18.446491,2.37977 -25.066017,0.7947 -13.542321,-1.16488 -16.947061,-7.1544 -20.723511,-12.96698 -9.58266,-7.48998 -9.25182,-15.62547 -9.5945,-23.71709 l 3.36672,-18.15256 z"
           style="fill:#cc0001;fill-opacity:1;stroke:none;stroke-width:0.23646981;stroke-linecap:round;stroke-linejoin:round;stroke-miterlimit:4;stroke-dasharray:none;stroke-opacity:1" />
        <path
           sodipodi:nodetypes="cccccccccccc"
           inkscape:connector-curvature="0"
           id="path1548-5-3"
           d="m -39.628361,-93.993947 c 6.494761,1.03675 11.972012,5.18266 16.548171,12.08199 6.711371,8.93478 7.259529,17.82199 7.800761,26.70912 -0.134242,11.03304 -5.957522,17.72626 -11.015652,25.00317 -4.57064,6.6663 -11.023708,9.27793 -18.111769,10.52184 -7.168814,2.73293 -12.813771,1.30087 -18.56808,0.16769 -8.468262,-1.66294 -15.503087,-4.87122 -19.130327,-11.75332 -8.06525,-8.8934 -8.8959,-15.13985 -9.97029,-21.47548 -4.00235,-12.19252 -0.0621,-17.36626 3.58692,-22.79734 2.95585,-11.09453 10.14253,-13.81819 17.041744,-17.11055 l 17.008639,-3.79439 z"
           style="fill:#f5cc15;fill-opacity:1;stroke:none;stroke-width:0.22322927;stroke-linecap:round;stroke-linejoin:round;stroke-miterlimit:4;stroke-dasharray:none;stroke-opacity:1" />
      </g>
      <path
         sodipodi:nodetypes="ccccc"
         inkscape:connector-curvature="0"
         id="path2249-4-4-0"
         d="m -100.24024,-38.687296 -4.39567,-1.412949 3.26018,-6.705851 2.540121,0.80918 z"
         style="fill:#f7f052;fill-opacity:1;stroke:#000000;stroke-width:0.15875003;stroke-linecap:butt;stroke-linejoin:miter;stroke-miterlimit:4;stroke-dasharray:none;stroke-opacity:1" />
      <path
         sodipodi:nodetypes="ccccc"
         inkscape:connector-curvature="0"
         id="path2249-4-50-0"
         d="m -74.116405,-69.177605 0.218667,4.61199 -7.423351,-0.70086 -0.133223,-2.66257 z"
         style="fill:#f7f052;fill-opacity:1;stroke:#000000;stroke-width:0.15875003;stroke-linecap:butt;stroke-linejoin:miter;stroke-miterlimit:4;stroke-dasharray:none;stroke-opacity:1" />
      <path
         sodipodi:nodetypes="ccccc"
         inkscape:connector-curvature="0"
         id="path2249-4-2-1"
         d="m -101.4483,-84.644335 -4.39566,-1.41295 3.26017,-6.70585 2.54013,0.80917 z"
         style="fill:#f7f052;fill-opacity:1;stroke:#000000;stroke-width:0.15875003;stroke-linecap:butt;stroke-linejoin:miter;stroke-miterlimit:4;stroke-dasharray:none;stroke-opacity:1" />
      <path
         sodipodi:nodetypes="ccccc"
         inkscape:connector-curvature="0"
         id="path2249-4-52-5"
         d="m -72.64638,-58.777984 4.617146,-0.01651 -1.025261,7.385532 -2.665844,0.01651 z"
         style="fill:#f7f052;fill-opacity:1;stroke:#000000;stroke-width:0.15875003;stroke-linecap:butt;stroke-linejoin:miter;stroke-miterlimit:4;stroke-dasharray:none;stroke-opacity:1" />
      <path
         sodipodi:nodetypes="ccccc"
         inkscape:connector-curvature="0"
         id="path2249-4-48-5"
         d="m -94.131991,-54.948786 -4.395648,-1.412949 3.260162,-6.705851 2.540126,0.80917 z"
         style="fill:#f7f052;fill-opacity:1;stroke:#000000;stroke-width:0.15875003;stroke-linecap:butt;stroke-linejoin:miter;stroke-miterlimit:4;stroke-dasharray:none;stroke-opacity:1" />
      <path
         sodipodi:nodetypes="ccccc"
         inkscape:connector-curvature="0"
         id="path2249-4-7-9"
         d="m -71.165967,-82.802792 0.21867,4.612 -7.423351,-0.70086 -0.133223,-2.66257 z"
         style="fill:#f7f052;fill-opacity:1;stroke:#000000;stroke-width:0.15875003;stroke-linecap:butt;stroke-linejoin:miter;stroke-miterlimit:4;stroke-dasharray:none;stroke-opacity:1" />
      <path
         sodipodi:nodetypes="ccccc"
         inkscape:connector-curvature="0"
         id="path2249-4-1-3"
         d="m -124.50468,-78.489445 4.61714,-0.0165 -1.02526,7.38553 -2.66584,0.0165 z"
         style="fill:#f7f052;fill-opacity:1;stroke:#000000;stroke-width:0.15875003;stroke-linecap:butt;stroke-linejoin:miter;stroke-miterlimit:4;stroke-dasharray:none;stroke-opacity:1" />
      <path
         sodipodi:nodetypes="ccccc"
         inkscape:connector-curvature="0"
         id="path2249-4-6-6"
         d="m -87.981361,-38.332775 0.21867,4.612 -7.42336,-0.700871 -0.133216,-2.662558 z"
         style="fill:#f7f052;fill-opacity:1;stroke:#000000;stroke-width:0.15875003;stroke-linecap:butt;stroke-linejoin:miter;stroke-miterlimit:4;stroke-dasharray:none;stroke-opacity:1" />
      <path
         sodipodi:nodetypes="ccccc"
         inkscape:connector-curvature="0"
         id="path2249-4-0-4"
         d="m -81.293466,-49.550188 4.617149,-0.01651 -1.02526,7.385539 -2.665844,0.01651 z"
         style="fill:#f7f052;fill-opacity:1;stroke:#000000;stroke-width:0.15875003;stroke-linecap:butt;stroke-linejoin:miter;stroke-miterlimit:4;stroke-dasharray:none;stroke-opacity:1" />
      <path
         sodipodi:nodetypes="ccccc"
         inkscape:connector-curvature="0"
         id="path2249-4-72-9"
         d="m -87.992211,-71.874845 4.61714,-0.0165 -1.02526,7.385529 -2.66584,0.01651 z"
         style="fill:#f7f052;fill-opacity:1;stroke:#000000;stroke-width:0.15875003;stroke-linecap:butt;stroke-linejoin:miter;stroke-miterlimit:4;stroke-dasharray:none;stroke-opacity:1" />
      <path
         sodipodi:nodetypes="ccccc"
         inkscape:connector-curvature="0"
         id="path2249-4-8-03"
         d="m -111.5401,-64.466504 4.61715,-0.01651 -1.02526,7.385528 -2.66585,0.01651 z"
         style="fill:#f7f052;fill-opacity:1;stroke:#000000;stroke-width:0.15875003;stroke-linecap:butt;stroke-linejoin:miter;stroke-miterlimit:4;stroke-dasharray:none;stroke-opacity:1" />
      <path
         sodipodi:nodetypes="ccccc"
         inkscape:connector-curvature="0"
         id="path2249-4-53-5"
         d="m -120.80052,-47.004015 4.61715,-0.01651 -1.02526,7.385539 -2.66585,0.01651 z"
         style="fill:#f7f052;fill-opacity:1;stroke:#000000;stroke-width:0.15875003;stroke-linecap:butt;stroke-linejoin:miter;stroke-miterlimit:4;stroke-dasharray:none;stroke-opacity:1" />
      <path
         sodipodi:nodetypes="ccccc"
         inkscape:connector-curvature="0"
         id="path2249-4-10-6"
         d="m -113.38425,-90.550115 0.21867,4.612 -7.42335,-0.70086 -0.13322,-2.66257 z"
         style="fill:#f7f052;fill-opacity:1;stroke:#000000;stroke-width:0.15875003;stroke-linecap:butt;stroke-linejoin:miter;stroke-miterlimit:4;stroke-dasharray:none;stroke-opacity:1" />
      <path
         sodipodi:nodetypes="ccccc"
         inkscape:connector-curvature="0"
         id="path2249-4-3-0"
         d="m -90.505761,-88.279016 4.61715,-0.0165 -1.02526,7.38553 -2.66584,0.0165 z"
         style="fill:#f7f052;fill-opacity:1;stroke:#000000;stroke-width:0.15875003;stroke-linecap:butt;stroke-linejoin:miter;stroke-miterlimit:4;stroke-dasharray:none;stroke-opacity:1" />
      <path
         sodipodi:nodetypes="ccccc"
         inkscape:connector-curvature="0"
         id="path2249-4-73-5"
         d="m -97.179828,-68.811418 -4.395652,-1.41295 3.260168,-6.70586 2.540118,0.80917 z"
         style="fill:#f7f052;fill-opacity:1;stroke:#000000;stroke-width:0.15875003;stroke-linecap:butt;stroke-linejoin:miter;stroke-miterlimit:4;stroke-dasharray:none;stroke-opacity:1" />
      <path
         sodipodi:nodetypes="ccccc"
         inkscape:connector-curvature="0"
         id="path2249-4-67-79"
         d="m -123.5,-63.529234 0.21867,4.611989 -7.42335,-0.70086 -0.13323,-2.66256 z"
         style="fill:#f7f052;fill-opacity:1;stroke:#000000;stroke-width:0.15875003;stroke-linecap:butt;stroke-linejoin:miter;stroke-miterlimit:4;stroke-dasharray:none;stroke-opacity:1" />
      <path
         sodipodi:nodetypes="ccccc"
         inkscape:connector-curvature="0"
         id="path2249-7-5"
         d="m -84.671861,-59.019766 h 3.161936 v 7.38554 h -3.161936 z"
         style="fill:#fc6675;fill-opacity:1;stroke:#000000;stroke-width:0.15875003;stroke-linecap:butt;stroke-linejoin:miter;stroke-miterlimit:4;stroke-dasharray:none;stroke-opacity:1" />
      <path
         sodipodi:nodetypes="ccccc"
         inkscape:connector-curvature="0"
         id="path2249-0-8"
         d="m -116.50039,-82.334105 h 3.16194 v 7.38553 h -3.16194 z"
         style="fill:#fc6675;fill-opacity:1;stroke:#000000;stroke-width:0.15875003;stroke-linecap:butt;stroke-linejoin:miter;stroke-miterlimit:4;stroke-dasharray:none;stroke-opacity:1" />
      <path
         sodipodi:nodetypes="ccccc"
         inkscape:connector-curvature="0"
         id="path2249-2-9"
         d="m -119.93998,-64.077866 h 3.16194 v 7.385542 h -3.16194 z"
         style="fill:#fc6675;fill-opacity:1;stroke:#000000;stroke-width:0.15875003;stroke-linecap:butt;stroke-linejoin:miter;stroke-miterlimit:4;stroke-dasharray:none;stroke-opacity:1" />
      <path
         sodipodi:nodetypes="ccccc"
         inkscape:connector-curvature="0"
         id="path2249-5-8"
         d="m -80.927124,-84.027585 -2.000457,-2.44868 5.719525,-4.67259 2.000456,2.44868 z"
         style="fill:#fc6675;fill-opacity:1;stroke:#000000;stroke-width:0.15875003;stroke-linecap:butt;stroke-linejoin:miter;stroke-miterlimit:4;stroke-dasharray:none;stroke-opacity:1" />
      <path
         sodipodi:nodetypes="ccccc"
         inkscape:connector-curvature="0"
         id="path2249-14-4"
         d="m -98.844479,-77.459395 -2.000441,-2.44868 5.719489,-4.67258 2.00046,2.44867 z"
         style="fill:#fc6675;fill-opacity:1;stroke:#000000;stroke-width:0.15875003;stroke-linecap:butt;stroke-linejoin:miter;stroke-miterlimit:4;stroke-dasharray:none;stroke-opacity:1" />
      <path
         sodipodi:nodetypes="ccccc"
         inkscape:connector-curvature="0"
         id="path2249-48-7"
         d="m -111.6056,-51.510144 h 3.16194 v 7.385539 h -3.16194 z"
         style="fill:#fc6675;fill-opacity:1;stroke:#000000;stroke-width:0.15875003;stroke-linecap:butt;stroke-linejoin:miter;stroke-miterlimit:4;stroke-dasharray:none;stroke-opacity:1" />
      <path
         sodipodi:nodetypes="ccccc"
         inkscape:connector-curvature="0"
         id="path2249-92-7"
         d="m -126.783,-48.254256 -2.00046,-2.448679 5.71953,-4.672581 2.00046,2.448671 z"
         style="fill:#fc6675;fill-opacity:1;stroke:#000000;stroke-width:0.15875003;stroke-linecap:butt;stroke-linejoin:miter;stroke-miterlimit:4;stroke-dasharray:none;stroke-opacity:1" />
      <path
         sodipodi:nodetypes="ccccc"
         inkscape:connector-curvature="0"
         id="path2249-57-9"
         d="m -94.386781,-41.700365 -2.00045,-2.448679 5.71952,-4.6726 2.00046,2.448679 z"
         style="fill:#fc6675;fill-opacity:1;stroke:#000000;stroke-width:0.15875003;stroke-linecap:butt;stroke-linejoin:miter;stroke-miterlimit:4;stroke-dasharray:none;stroke-opacity:1" />
      <path
         sodipodi:nodetypes="ccccc"
         inkscape:connector-curvature="0"
         id="path2249-23-4"
         d="m -107.50456,-74.661195 h 3.16194 v 7.38554 h -3.16194 z"
         style="fill:#fc6675;fill-opacity:1;stroke:#000000;stroke-width:0.15875003;stroke-linecap:butt;stroke-linejoin:miter;stroke-miterlimit:4;stroke-dasharray:none;stroke-opacity:1" />
      <path
         sodipodi:nodetypes="ccccc"
         inkscape:connector-curvature="0"
         id="path2249-17-1"
         d="m -85.116861,-41.106315 h 3.161939 v 7.38554 h -3.161939 z"
         style="fill:#fc6675;fill-opacity:1;stroke:#000000;stroke-width:0.15875003;stroke-linecap:butt;stroke-linejoin:miter;stroke-miterlimit:4;stroke-dasharray:none;stroke-opacity:1" />
      <path
         inkscape:transform-center-y="-0.13229167"
         inkscape:transform-center-x="-0.26458334"
         sodipodi:nodetypes="ccccc"
         inkscape:connector-curvature="0"
         id="path2249-02-5"
         d="m -108.36394,-35.596274 2.1825,-2.287921 5.34403,5.097801 -2.1825,2.287918 z"
         style="fill:#fc6675;fill-opacity:1;stroke:#000000;stroke-width:0.15875003;stroke-linecap:butt;stroke-linejoin:miter;stroke-miterlimit:4;stroke-dasharray:none;stroke-opacity:1" />
      <path
         sodipodi:nodetypes="ccccc"
         inkscape:connector-curvature="0"
         id="path2249-4-5-3"
         d="m -104.94231,-58.877968 2.66584,0.04961 0.0496,3.102591 -2.68238,0.04961 z"
         style="fill:#f7f013;fill-opacity:1;stroke:#000000;stroke-width:0.15875003;stroke-linecap:butt;stroke-linejoin:miter;stroke-miterlimit:4;stroke-dasharray:none;stroke-opacity:1" />
      <path
         sodipodi:nodetypes="ccccc"
         inkscape:connector-curvature="0"
         id="path2249-4-5-7"
         d="m -89.464186,-62.317552 2.665846,0.04961 0.04961,3.102592 -2.682381,0.04961 z"
         style="fill:#f7f013;fill-opacity:1;stroke:#000000;stroke-width:0.15875003;stroke-linecap:butt;stroke-linejoin:miter;stroke-miterlimit:4;stroke-dasharray:none;stroke-opacity:1" />
      <path
         sodipodi:nodetypes="ccccc"
         inkscape:connector-curvature="0"
         id="path2249-4-5-8"
         d="m -111.55689,-69.064427 2.66584,0.04961 0.0496,3.102592 -2.68238,0.04961 z"
         style="fill:#f7f013;fill-opacity:1;stroke:#000000;stroke-width:0.15875003;stroke-linecap:butt;stroke-linejoin:miter;stroke-miterlimit:4;stroke-dasharray:none;stroke-opacity:1" />
      <path
         sodipodi:nodetypes="ccccc"
         inkscape:connector-curvature="0"
         id="path2249-4-5-87"
         d="m -91.068003,-92.009995 2.665846,0.04961 0.04961,3.102592 -2.682381,0.04961 z"
         style="fill:#f7f013;fill-opacity:1;stroke:#000000;stroke-width:0.15875003;stroke-linecap:butt;stroke-linejoin:miter;stroke-miterlimit:4;stroke-dasharray:none;stroke-opacity:1" />
      <path
         sodipodi:nodetypes="ccccc"
         inkscape:connector-curvature="0"
         id="path2249-4-5-5"
         d="m -76.899727,-58.827594 2.665846,0.04961 0.04961,3.102592 -2.682381,0.04961 z"
         style="fill:#f7f013;fill-opacity:1;stroke:#000000;stroke-width:0.15875003;stroke-linecap:butt;stroke-linejoin:miter;stroke-miterlimit:4;stroke-dasharray:none;stroke-opacity:1" />
      <path
         sodipodi:nodetypes="ccccc"
         inkscape:connector-curvature="0"
         id="path2249-4-5-36"
         d="m -112.13772,-39.277642 2.66584,0.04961 0.0496,3.102591 -2.68238,0.04961 z"
         style="fill:#f7f013;fill-opacity:1;stroke:#000000;stroke-width:0.15875003;stroke-linecap:butt;stroke-linejoin:miter;stroke-miterlimit:4;stroke-dasharray:none;stroke-opacity:1" />
      <path
         sodipodi:nodetypes="ccccc"
         inkscape:connector-curvature="0"
         id="path2249-4-5-85"
         d="m -126.24127,-69.990468 2.66585,0.04961 0.0496,3.102591 -2.68238,0.04961 z"
         style="fill:#f7f013;fill-opacity:1;stroke:#000000;stroke-width:0.15875003;stroke-linecap:butt;stroke-linejoin:miter;stroke-miterlimit:4;stroke-dasharray:none;stroke-opacity:1" />
      <path
         sodipodi:nodetypes="ccccc"
         inkscape:connector-curvature="0"
         id="path2249-4-5-1"
         d="m -112.88815,-94.281093 2.66585,0.04961 0.0496,3.102591 -2.68238,0.04961 z"
         style="fill:#f7f013;fill-opacity:1;stroke:#000000;stroke-width:0.15875003;stroke-linecap:butt;stroke-linejoin:miter;stroke-miterlimit:4;stroke-dasharray:none;stroke-opacity:1" />
      <path
         sodipodi:nodetypes="ccccc"
         inkscape:connector-curvature="0"
         id="path2249-4-5-51"
         d="m -106.39752,-78.986302 2.66585,0.04961 0.0496,3.102592 -2.68238,0.04961 z"
         style="fill:#f7f013;fill-opacity:1;stroke:#000000;stroke-width:0.15875003;stroke-linecap:butt;stroke-linejoin:miter;stroke-miterlimit:4;stroke-dasharray:none;stroke-opacity:1" />
      <path
         sodipodi:nodetypes="ccccc"
         inkscape:connector-curvature="0"
         id="path2249-4-5-9"
         d="m -117.24544,-52.924843 2.66585,0.04961 0.0496,3.102591 -2.68238,0.04961 z"
         style="fill:#f7f013;fill-opacity:1;stroke:#000000;stroke-width:0.15875003;stroke-linecap:butt;stroke-linejoin:miter;stroke-miterlimit:4;stroke-dasharray:none;stroke-opacity:1" />
      <path
         sodipodi:nodetypes="ccccc"
         inkscape:connector-curvature="0"
         id="path2249-4-5-6"
         d="m -91.448561,-70.255052 2.665846,0.04961 0.04961,3.102592 -2.682381,0.04961 z"
         style="fill:#f7f013;fill-opacity:1;stroke:#000000;stroke-width:0.15875003;stroke-linecap:butt;stroke-linejoin:miter;stroke-miterlimit:4;stroke-dasharray:none;stroke-opacity:1" />
      <path
         sodipodi:nodetypes="ccccc"
         inkscape:connector-curvature="0"
         id="path2249-4-5-58"
         d="m -81.56566,-78.412095 2.665845,0.04961 0.04961,3.102591 -2.682381,0.04961 z"
         style="fill:#f7f013;fill-opacity:1;stroke:#000000;stroke-width:0.15875003;stroke-linecap:butt;stroke-linejoin:miter;stroke-miterlimit:4;stroke-dasharray:none;stroke-opacity:1" />
      <path
         sodipodi:nodetypes="ccccc"
         inkscape:connector-curvature="0"
         id="path2249-4-5-4"
         d="m -98.327727,-51.07276 2.665845,0.04961 0.04961,3.102591 -2.682381,0.04961 z"
         style="fill:#f7f013;fill-opacity:1;stroke:#000000;stroke-width:0.15875003;stroke-linecap:butt;stroke-linejoin:miter;stroke-miterlimit:4;stroke-dasharray:none;stroke-opacity:1" />
      <path
         sodipodi:nodetypes="ccccc"
         inkscape:connector-curvature="0"
         id="path2249-4-5-66"
         d="m -73.721477,-47.10401 2.665845,0.04961 0.04961,3.102591 -2.682381,0.04961 z"
         style="fill:#f7f013;fill-opacity:1;stroke:#000000;stroke-width:0.15875003;stroke-linecap:butt;stroke-linejoin:miter;stroke-miterlimit:4;stroke-dasharray:none;stroke-opacity:1" />
    </g>
  </g>
</svg>
