<?xml version="1.0" encoding="UTF-8" standalone="no"?>
<!-- Created with Inkscape (http://www.inkscape.org/) -->

<svg
   xmlns:dc="http://purl.org/dc/elements/1.1/"
   xmlns:cc="http://creativecommons.org/ns#"
   xmlns:rdf="http://www.w3.org/1999/02/22-rdf-syntax-ns#"
   xmlns:svg="http://www.w3.org/2000/svg"
   xmlns="http://www.w3.org/2000/svg"
   xmlns:sodipodi="http://sodipodi.sourceforge.net/DTD/sodipodi-0.dtd"
   xmlns:inkscape="http://www.inkscape.org/namespaces/inkscape"
   width="400"
   height="400"
   viewBox="0 0 105.83333 105.83334"
   version="1.1"
   id="svg8"
   inkscape:version="0.92.3 (2405546, 2018-03-11)"
   sodipodi:docname="p3.svg">
  <defs
     id="defs2" />
  <sodipodi:namedview
     id="base"
     pagecolor="#ffffff"
     bordercolor="#666666"
     borderopacity="1.0"
     inkscape:pageopacity="0.0"
     inkscape:pageshadow="2"
     inkscape:zoom="0.98994949"
     inkscape:cx="219.00227"
     inkscape:cy="201.38601"
     inkscape:document-units="mm"
     inkscape:current-layer="layer1"
     showgrid="false"
     units="px"
     inkscape:window-width="958"
     inkscape:window-height="1048"
     inkscape:window-x="953"
     inkscape:window-y="0"
     inkscape:window-maximized="0" />
  <metadata
     id="metadata5">
    <rdf:RDF>
      <cc:Work
         rdf:about="">
        <dc:format>image/svg+xml</dc:format>
        <dc:type
           rdf:resource="http://purl.org/dc/dcmitype/StillImage" />
        <dc:title></dc:title>
      </cc:Work>
    </rdf:RDF>
  </metadata>
  <g
     inkscape:label="Layer 1"
     inkscape:groupmode="layer"
     id="layer1"
     transform="translate(0,-191.16665)">
    <g
       transform="translate(-111.69742,644.48451)"
       id="g5406">
      <g
         transform="translate(10.583333,-40.745833)"
         id="g2487">
        <path
           style="fill:none;stroke:none;stroke-width:0.26458332;stroke-linecap:round;stroke-linejoin:round;stroke-miterlimit:4;stroke-dasharray:none;stroke-opacity:1"
           d="m 121.70961,-392.99887 c 4.35611,-6.46471 11.54687,-10.28376 21.24793,-11.75986 12.95496,-2.75562 22.78268,1.09072 32.60688,4.94449 11.794,5.65095 16.08311,15.25185 21.38156,24.32152 4.88536,8.24081 4.47221,16.48162 2.27179,24.72243 -0.63998,9.07082 -4.99692,14.42466 -9.08716,20.04522 -6.01425,8.27378 -12.97443,14.23527 -22.18337,14.69982 -13.58621,4.23178 -20.71598,2.00711 -28.0633,0 -15.10509,-1.78267 -18.7005,-8.60083 -22.71791,-15.23436 -10.45184,-8.71501 -9.79299,-17.80038 -9.88898,-26.86059 l 4.40995,-20.17885 z"
           id="path823-7"
           inkscape:connector-curvature="0"
           sodipodi:nodetypes="cccccccccccc" />
        <path
           style="fill:#d7732b;fill-opacity:1;stroke:#000000;stroke-width:0.26458332;stroke-linecap:round;stroke-linejoin:round;stroke-miterlimit:4;stroke-dasharray:none;stroke-opacity:1"
           d="m 121.70961,-392.99887 c 4.35611,-6.46471 11.54687,-10.28376 21.24793,-11.75986 12.95496,-2.75562 22.78268,1.09072 32.60688,4.94449 11.794,5.65095 16.08311,15.25185 21.38156,24.32152 4.88536,8.24081 4.47221,16.48162 2.27179,24.72243 -0.63998,9.07082 -4.99692,14.42466 -9.08716,20.04522 -6.01425,8.27378 -12.97443,14.23527 -22.18337,14.69982 -13.58621,4.23178 -20.71598,2.00711 -28.0633,0 -15.10509,-1.78267 -18.7005,-8.60083 -22.71791,-15.23436 -10.45184,-8.71501 -9.79299,-17.80038 -9.88898,-26.86059 l 4.40995,-20.17885 z"
           id="path823-9-2"
           inkscape:connector-curvature="0"
           sodipodi:nodetypes="cccccccccccc" />
        <path
           style="fill:#fce8a8;fill-opacity:1;stroke:none;stroke-width:0.249025;stroke-linecap:round;stroke-linejoin:round;stroke-miterlimit:4;stroke-dasharray:none;stroke-opacity:1"
           d="m 193.9069,-376.42721 c 4.17474,5.981 5.05803,13.58043 3.02648,22.61312 -2.02519,12.32267 -8.76676,19.70096 -15.51361,27.07368 -8.99789,8.51108 -18.88615,9.10263 -28.65466,10.75932 -8.90018,1.5679 -15.98389,-1.53015 -22.4549,-6.20211 -7.7337,-3.57318 -10.93415,-9.18634 -14.45992,-14.65311 -5.1924,-8.04144 -8.03321,-16.14865 -5.28348,-24.41233 0.94735,-13.36833 5.34214,-18.90882 9.62076,-24.71306 6.74137,-12.71034 13.95198,-13.61431 21.14537,-14.95118 11.22425,-6.31251 18.96425,-2.71787 26.94094,0.20369 l 16.18052,10.57862 z"
           id="path823-1-3-44"
           inkscape:connector-curvature="0"
           sodipodi:nodetypes="cccccccccccc" />
        <path
           style="fill:#fbe9a7;fill-opacity:1;stroke:none;stroke-width:0.22322927;stroke-linecap:round;stroke-linejoin:round;stroke-miterlimit:4;stroke-dasharray:none;stroke-opacity:1"
           d="m 167.86056,-395.23476 c 6.49476,1.03675 11.97201,5.18266 16.54817,12.08199 6.71137,8.93478 7.25953,17.82199 7.80076,26.70912 -0.13424,11.03304 -5.95752,17.72626 -11.01565,25.00317 -4.57064,6.6663 -11.02371,9.27793 -18.11177,10.52184 -7.16881,2.73293 -12.81377,1.30087 -18.56808,0.16769 -8.46826,-1.66294 -15.50309,-4.87122 -19.13033,-11.75332 -8.06525,-8.8934 -8.89589,-15.13985 -9.97029,-21.47548 -4.00234,-12.19252 -0.0621,-17.36626 3.58692,-22.79734 2.95585,-11.09453 10.14253,-13.81819 17.04175,-17.11055 l 17.00864,-3.79439 z"
           id="path823-1-6"
           inkscape:connector-curvature="0"
           sodipodi:nodetypes="cccccccccccc" />
        <path
           style="fill:#cc0001;fill-opacity:1;stroke:none;stroke-width:0.23646981;stroke-linecap:round;stroke-linejoin:round;stroke-miterlimit:4;stroke-dasharray:none;stroke-opacity:1"
           d="m 123.29527,-388.40876 c 3.70754,-5.89891 10.02199,-9.51445 18.64508,-11.1079 11.49316,-2.82872 20.38032,0.32929 29.26452,3.49402 10.69459,4.71458 14.79784,13.17052 19.78758,21.12327 4.59726,7.22396 4.46193,14.59795 2.73021,22.02257 -0.31439,8.12195 -4.05418,13.02842 -7.54815,18.16562 -5.1373,7.56207 -11.18503,13.08513 -19.39723,13.76093 -12.01512,4.16538 -18.44649,2.37977 -25.06602,0.7947 -13.54232,-1.16488 -16.94706,-7.1544 -20.72351,-12.96698 -9.58266,-7.48998 -9.25182,-15.62547 -9.59449,-23.71709 l 3.36672,-18.15256 z"
           id="path823-1-8-9-02"
           inkscape:connector-curvature="0"
           sodipodi:nodetypes="cccccccccccc" />
        <path
           style="fill:#f5cc15;fill-opacity:1;stroke:none;stroke-width:0.22322927;stroke-linecap:round;stroke-linejoin:round;stroke-miterlimit:4;stroke-dasharray:none;stroke-opacity:1"
           d="m 167.86056,-395.23476 c 6.49476,1.03675 11.97201,5.18266 16.54817,12.08199 6.71137,8.93478 7.25953,17.82199 7.80076,26.70912 -0.13424,11.03304 -5.95752,17.72626 -11.01565,25.00317 -4.57064,6.6663 -11.02371,9.27793 -18.11177,10.52184 -7.16881,2.73293 -12.81377,1.30087 -18.56808,0.16769 -8.46826,-1.66294 -15.50309,-4.87122 -19.13033,-11.75332 -8.06525,-8.8934 -8.89589,-15.13985 -9.97029,-21.47548 -4.00234,-12.19252 -0.0621,-17.36626 3.58692,-22.79734 2.95585,-11.09453 10.14253,-13.81819 17.04175,-17.11055 l 17.00864,-3.79439 z"
           id="path823-1-8-5"
           inkscape:connector-curvature="0"
           sodipodi:nodetypes="cccccccccccc" />
        <path
           sodipodi:nodetypes="cccccccccccc"
           inkscape:connector-curvature="0"
           id="path1536-38"
           d="m 121.70961,-392.99887 c 4.35611,-6.46471 11.54687,-10.28376 21.24793,-11.75986 12.95496,-2.75562 22.78268,1.09072 32.60688,4.94449 11.794,5.65095 16.08311,15.25185 21.38156,24.32152 4.88536,8.24081 4.47221,16.48162 2.27179,24.72243 -0.63998,9.07082 -4.99692,14.42466 -9.08716,20.04522 -6.01425,8.27378 -12.97443,14.23527 -22.18337,14.69982 -13.58621,4.23178 -20.71598,2.00711 -28.0633,0 -15.10509,-1.78267 -18.7005,-8.60083 -22.71791,-15.23436 -10.45184,-8.71501 -9.79299,-17.80038 -9.88898,-26.86059 l 4.40995,-20.17885 z"
           style="fill:none;stroke:none;stroke-width:0.26458332;stroke-linecap:round;stroke-linejoin:round;stroke-miterlimit:4;stroke-dasharray:none;stroke-opacity:1" />
        <path
           sodipodi:nodetypes="cccccccccccc"
           inkscape:connector-curvature="0"
           id="path1538-0"
           d="m 121.70961,-392.99887 c 4.35611,-6.46471 11.54687,-10.28376 21.24793,-11.75986 12.95496,-2.75562 22.78268,1.09072 32.60688,4.94449 11.794,5.65095 16.08311,15.25185 21.38156,24.32152 4.88536,8.24081 4.47221,16.48162 2.27179,24.72243 -0.63998,9.07082 -4.99692,14.42466 -9.08716,20.04522 -6.01425,8.27378 -12.97443,14.23527 -22.18337,14.69982 -13.58621,4.23178 -20.71598,2.00711 -28.0633,0 -15.10509,-1.78267 -18.7005,-8.60083 -22.71791,-15.23436 -10.45184,-8.71501 -9.79299,-17.80038 -9.88898,-26.86059 l 4.40995,-20.17885 z"
           style="fill:#d7732b;fill-opacity:1;stroke:#000000;stroke-width:0.26458332;stroke-linecap:round;stroke-linejoin:round;stroke-miterlimit:4;stroke-dasharray:none;stroke-opacity:1" />
        <path
           sodipodi:nodetypes="cccccccccccc"
           inkscape:connector-curvature="0"
           id="path1540-9"
           d="m 193.9069,-376.42721 c 4.17474,5.981 5.05803,13.58043 3.02648,22.61312 -2.02519,12.32267 -8.76676,19.70096 -15.51361,27.07368 -8.99789,8.51108 -18.88615,9.10263 -28.65466,10.75932 -8.90018,1.5679 -15.98389,-1.53015 -22.4549,-6.20211 -7.7337,-3.57318 -10.93415,-9.18634 -14.45992,-14.65311 -5.1924,-8.04144 -8.03321,-16.14865 -5.28348,-24.41233 0.94735,-13.36833 5.34214,-18.90882 9.62076,-24.71306 6.74137,-12.71034 13.95198,-13.61431 21.14537,-14.95118 11.22425,-6.31251 18.96425,-2.71787 26.94094,0.20369 l 16.18052,10.57862 z"
           style="fill:#fce8a8;fill-opacity:1;stroke:none;stroke-width:0.249025;stroke-linecap:round;stroke-linejoin:round;stroke-miterlimit:4;stroke-dasharray:none;stroke-opacity:1" />
        <path
           sodipodi:nodetypes="cccccccccccc"
           inkscape:connector-curvature="0"
           id="path1542-4"
           d="m 167.86056,-395.23476 c 6.49476,1.03675 11.97201,5.18266 16.54817,12.08199 6.71137,8.93478 7.25953,17.82199 7.80076,26.70912 -0.13424,11.03304 -5.95752,17.72626 -11.01565,25.00317 -4.57064,6.6663 -11.02371,9.27793 -18.11177,10.52184 -7.16881,2.73293 -12.81377,1.30087 -18.56808,0.16769 -8.46826,-1.66294 -15.50309,-4.87122 -19.13033,-11.75332 -8.06525,-8.8934 -8.89589,-15.13985 -9.97029,-21.47548 -4.00234,-12.19252 -0.0621,-17.36626 3.58692,-22.79734 2.95585,-11.09453 10.14253,-13.81819 17.04175,-17.11055 l 17.00864,-3.79439 z"
           style="fill:#fbe9a7;fill-opacity:1;stroke:none;stroke-width:0.22322927;stroke-linecap:round;stroke-linejoin:round;stroke-miterlimit:4;stroke-dasharray:none;stroke-opacity:1" />
        <path
           sodipodi:nodetypes="cccccccccccc"
           inkscape:connector-curvature="0"
           id="path1546-0"
           d="m 123.29527,-388.40876 c 3.70754,-5.89891 10.02199,-9.51445 18.64508,-11.1079 11.49316,-2.82872 20.38032,0.32929 29.26452,3.49402 10.69459,4.71458 14.79784,13.17052 19.78758,21.12327 4.59726,7.22396 4.46193,14.59795 2.73021,22.02257 -0.31439,8.12195 -4.05418,13.02842 -7.54815,18.16562 -5.1373,7.56207 -11.18503,13.08513 -19.39723,13.76093 -12.01512,4.16538 -18.44649,2.37977 -25.06602,0.7947 -13.54232,-1.16488 -16.94706,-7.1544 -20.72351,-12.96698 -9.58266,-7.48998 -9.25182,-15.62547 -9.59449,-23.71709 l 3.36672,-18.15256 z"
           style="fill:#cc0001;fill-opacity:1;stroke:none;stroke-width:0.23646981;stroke-linecap:round;stroke-linejoin:round;stroke-miterlimit:4;stroke-dasharray:none;stroke-opacity:1" />
        <path
           sodipodi:nodetypes="cccccccccccc"
           inkscape:connector-curvature="0"
           id="path1548-2"
           d="m 167.86056,-395.23476 c 6.49476,1.03675 11.97201,5.18266 16.54817,12.08199 6.71137,8.93478 7.25953,17.82199 7.80076,26.70912 -0.13424,11.03304 -5.95752,17.72626 -11.01565,25.00317 -4.57064,6.6663 -11.02371,9.27793 -18.11177,10.52184 -7.16881,2.73293 -12.81377,1.30087 -18.56808,0.16769 -8.46826,-1.66294 -15.50309,-4.87122 -19.13033,-11.75332 -8.06525,-8.8934 -8.89589,-15.13985 -9.97029,-21.47548 -4.00234,-12.19252 -0.0621,-17.36626 3.58692,-22.79734 2.95585,-11.09453 10.14253,-13.81819 17.04175,-17.11055 l 17.00864,-3.79439 z"
           style="fill:#f5cc15;fill-opacity:1;stroke:none;stroke-width:0.22322927;stroke-linecap:round;stroke-linejoin:round;stroke-miterlimit:4;stroke-dasharray:none;stroke-opacity:1" />
      </g>
      <path
         sodipodi:nodetypes="ccccccc"
         inkscape:connector-curvature="0"
         id="path2251-8"
         d="m 145.79857,-425.69376 2.61248,1.02731 0.8459,-2.66373 2.39462,1.0623 c 1.82122,-4.50302 -4.20581,-7.01413 -6.24414,-2.58674 l 2.16247,0.71034 z"
         style="fill:#a59682;fill-opacity:1;stroke:#000000;stroke-width:0.26458332px;stroke-linecap:butt;stroke-linejoin:miter;stroke-opacity:1" />
      <path
         sodipodi:nodetypes="ccccccc"
         inkscape:connector-curvature="0"
         id="path2251-4"
         d="m 174.65243,-424.65057 0.89341,-2.66124 -2.70321,-0.70964 0.93941,-2.44543 c -4.58963,-1.59036 -6.79166,4.55633 -2.26654,6.36737 l 0.59969,-2.19573 z"
         style="fill:#a59682;fill-opacity:1;stroke:#000000;stroke-width:0.26458332px;stroke-linecap:butt;stroke-linejoin:miter;stroke-opacity:1" />
      <path
         sodipodi:nodetypes="ccccccc"
         inkscape:connector-curvature="0"
         id="path2251-0"
         d="m 190.16746,-407.01779 2.80633,-0.0702 -0.25725,-2.78294 2.61924,0.0468 c -0.0745,-4.85679 -6.60364,-4.82481 -6.75858,0.0468 l 2.26845,-0.18709 z"
         style="fill:#a59682;fill-opacity:1;stroke:#000000;stroke-width:0.26458332px;stroke-linecap:butt;stroke-linejoin:miter;stroke-opacity:1" />
      <path
         sodipodi:nodetypes="ccccccc"
         inkscape:connector-curvature="0"
         id="path2251-3"
         d="m 182.15402,-382.59529 2.77077,-0.45088 -0.63302,-2.72218 2.60131,-0.30955 c -0.73377,-4.80162 -7.19799,-3.88273 -6.68953,0.96474 l 2.22199,-0.4936 z"
         style="fill:#a59682;fill-opacity:1;stroke:#000000;stroke-width:0.26458332px;stroke-linecap:butt;stroke-linejoin:miter;stroke-opacity:1" />
      <path
         sodipodi:nodetypes="ccccccc"
         inkscape:connector-curvature="0"
         id="path2251-2"
         d="m 159.87266,-373.28341 2.80633,-0.0702 -0.25724,-2.78295 2.61924,0.0468 c -0.0745,-4.85679 -6.60364,-4.8248 -6.75858,0.0468 l 2.26845,-0.18709 z"
         style="fill:#a59682;fill-opacity:1;stroke:#000000;stroke-width:0.26458332px;stroke-linecap:butt;stroke-linejoin:miter;stroke-opacity:1" />
      <path
         sodipodi:nodetypes="ccccccc"
         inkscape:connector-curvature="0"
         id="path2251-84"
         d="m 140.42387,-387.57192 2.57204,1.12474 0.94539,-2.63005 2.353,1.1515 c 1.9891,-4.43141 -3.93932,-7.16719 -6.14255,-2.8195 l 2.13426,0.79108 z"
         style="fill:#a59682;fill-opacity:1;stroke:#000000;stroke-width:0.26458332px;stroke-linecap:butt;stroke-linejoin:miter;stroke-opacity:1" />
      <path
         sodipodi:nodetypes="ccccccc"
         inkscape:connector-curvature="0"
         id="path2251-7"
         d="m 135.49881,-402.62606 2.67301,0.85756 0.67325,-2.71251 2.45783,0.90645 c 1.52852,-4.6106 -4.6472,-6.7298 -6.39725,-2.18075 l 2.2036,0.57012 z"
         style="fill:#a59682;fill-opacity:1;stroke:#000000;stroke-width:0.26458332px;stroke-linecap:butt;stroke-linejoin:miter;stroke-opacity:1" />
      <path
         sodipodi:nodetypes="ccccccc"
         inkscape:connector-curvature="0"
         id="path2251-30"
         d="m 164.37058,-398.55112 2.80633,-0.0702 -0.25725,-2.78295 2.61925,0.0468 c -0.0745,-4.8568 -6.60364,-4.82481 -6.75858,0.0468 l 2.26845,-0.18709 z"
         style="fill:#a59682;fill-opacity:1;stroke:#000000;stroke-width:0.26458332px;stroke-linecap:butt;stroke-linejoin:miter;stroke-opacity:1" />
      <path
         sodipodi:nodetypes="ccccccc"
         inkscape:connector-curvature="0"
         id="path2251-1"
         d="m 162.0223,-384.23068 2.73276,-0.64222 -0.82053,-2.67164 2.57352,-0.48946 c -1.06546,-4.73906 -7.45027,-3.37345 -6.60638,1.427 l 2.18235,-0.64671 z"
         style="fill:#a59682;fill-opacity:1;stroke:#000000;stroke-width:0.26458332px;stroke-linecap:butt;stroke-linejoin:miter;stroke-opacity:1" />
      <path
         sodipodi:nodetypes="ccccccc"
         inkscape:connector-curvature="0"
         id="path2251-20"
         d="m 160.67347,-412.94122 2.09793,1.86524 1.71263,-2.20859 1.88136,1.82294 c 3.26241,-3.59871 -1.52889,-8.03426 -4.96902,-4.58143 l 1.78484,1.41252 z"
         style="fill:#a59682;fill-opacity:1;stroke:#000000;stroke-width:0.26458332px;stroke-linecap:butt;stroke-linejoin:miter;stroke-opacity:1" />
      <path
         sodipodi:nodetypes="ccccccc"
         inkscape:connector-curvature="0"
         id="path2251-31"
         d="m 180.27149,-405.2066 2.0046,-1.96519 -2.08604,-1.85993 1.94756,-1.75203 c -3.3667,-3.50133 -8.12014,0.97477 -4.91114,4.64341 l 1.5315,-1.68386 z"
         style="fill:#a59682;fill-opacity:1;stroke:#000000;stroke-width:0.26458332px;stroke-linecap:butt;stroke-linejoin:miter;stroke-opacity:1" />
      <path
         sodipodi:nodetypes="ccccccc"
         inkscape:connector-curvature="0"
         id="path2251-44"
         d="m 177.87742,-368.97042 2.72639,0.66874 0.48211,-2.75292 2.51516,0.73253 c 1.2027,-4.70612 -5.10599,-6.38871 -6.53398,-1.72851 l 2.23804,0.41478 z"
         style="fill:#a59682;fill-opacity:1;stroke:#000000;stroke-width:0.26458332px;stroke-linecap:butt;stroke-linejoin:miter;stroke-opacity:1" />
      <path
         sodipodi:nodetypes="ccccccc"
         inkscape:connector-curvature="0"
         id="path2251-38"
         d="m 190.88594,-394.90113 2.44281,1.38315 1.21072,-2.51894 2.22218,1.38727 c 2.43407,-4.20348 -3.18174,-7.53414 -5.8202,-3.43596 l 2.04164,1.00627 z"
         style="fill:#a59682;fill-opacity:1;stroke:#000000;stroke-width:0.26458332px;stroke-linecap:butt;stroke-linejoin:miter;stroke-opacity:1" />
      <path
         sodipodi:nodetypes="ccccccc"
         inkscape:connector-curvature="0"
         id="path2251-29"
         d="m 148.62787,-405.16571 2.80633,-0.0702 -0.25724,-2.78294 2.61924,0.0468 c -0.0745,-4.85679 -6.60364,-4.8248 -6.75858,0.0468 l 2.26845,-0.18708 z"
         style="fill:#a59682;fill-opacity:1;stroke:#000000;stroke-width:0.26458332px;stroke-linecap:butt;stroke-linejoin:miter;stroke-opacity:1" />
      <path
         sodipodi:nodetypes="ccccc"
         inkscape:connector-curvature="0"
         id="path2249-8"
         d="m 141.74,-418.79093 2.34637,-2.11953 4.95071,5.48056 -2.34637,2.11953 z"
         style="fill:#fc6675;fill-opacity:1;stroke:#000000;stroke-width:0.15875001;stroke-linecap:butt;stroke-linejoin:miter;stroke-miterlimit:4;stroke-dasharray:none;stroke-opacity:1" />
      <path
         sodipodi:nodetypes="ccccc"
         inkscape:connector-curvature="0"
         id="path2249-6"
         d="m 156.21604,-422.40929 3.10149,-0.61534 1.43727,7.24434 -3.10149,0.61534 z"
         style="fill:#fc6675;fill-opacity:1;stroke:#000000;stroke-width:0.15875001;stroke-linecap:butt;stroke-linejoin:miter;stroke-miterlimit:4;stroke-dasharray:none;stroke-opacity:1" />
      <path
         sodipodi:nodetypes="ccccc"
         inkscape:connector-curvature="0"
         id="path2249-61"
         d="m 154.12632,-401.09173 h 3.16194 v 7.38554 h -3.16194 z"
         style="fill:#fc6675;fill-opacity:1;stroke:#000000;stroke-width:0.15875001;stroke-linecap:butt;stroke-linejoin:miter;stroke-miterlimit:4;stroke-dasharray:none;stroke-opacity:1" />
      <path
         sodipodi:nodetypes="ccccc"
         inkscape:connector-curvature="0"
         id="path2249-81"
         d="m 151.29853,-381.83065 2.83372,1.40281 -3.27662,6.61891 -2.83372,-1.40281 z"
         style="fill:#fc6675;fill-opacity:1;stroke:#000000;stroke-width:0.15875001;stroke-linecap:butt;stroke-linejoin:miter;stroke-miterlimit:4;stroke-dasharray:none;stroke-opacity:1" />
      <path
         sodipodi:nodetypes="ccccc"
         inkscape:connector-curvature="0"
         id="path2249-83"
         d="m 133.7534,-398.3136 h 3.16194 v 7.38553 h -3.16194 z"
         style="fill:#fc6675;fill-opacity:1;stroke:#000000;stroke-width:0.15875001;stroke-linecap:butt;stroke-linejoin:miter;stroke-miterlimit:4;stroke-dasharray:none;stroke-opacity:1" />
      <path
         sodipodi:nodetypes="ccccc"
         inkscape:connector-curvature="0"
         id="path2249-89"
         d="m 172.84484,-393.47921 1.91281,-2.51775 5.88085,4.46784 -1.91281,2.51775 z"
         style="fill:#fc6675;fill-opacity:1;stroke:#000000;stroke-width:0.15875001;stroke-linecap:butt;stroke-linejoin:miter;stroke-miterlimit:4;stroke-dasharray:none;stroke-opacity:1" />
      <path
         sodipodi:nodetypes="ccccc"
         inkscape:connector-curvature="0"
         id="path2249-9"
         d="m 173.16275,-378.77509 2.77226,1.52068 -3.55192,6.47533 -2.77226,-1.52068 z"
         style="fill:#fc6675;fill-opacity:1;stroke:#000000;stroke-width:0.15875001;stroke-linecap:butt;stroke-linejoin:miter;stroke-miterlimit:4;stroke-dasharray:none;stroke-opacity:1" />
      <path
         sodipodi:nodetypes="ccccc"
         inkscape:connector-curvature="0"
         id="path2249-1"
         d="m 182.58576,-426.74134 3.09148,0.66381 -1.5505,7.22095 -3.09148,-0.66381 z"
         style="fill:#fc6675;fill-opacity:1;stroke:#000000;stroke-width:0.15875001;stroke-linecap:butt;stroke-linejoin:miter;stroke-miterlimit:4;stroke-dasharray:none;stroke-opacity:1" />
    </g>
  </g>
</svg>
