<?xml version="1.0" encoding="UTF-8" standalone="no"?>
<!-- Created with Inkscape (http://www.inkscape.org/) -->

<svg
   xmlns:dc="http://purl.org/dc/elements/1.1/"
   xmlns:cc="http://creativecommons.org/ns#"
   xmlns:rdf="http://www.w3.org/1999/02/22-rdf-syntax-ns#"
   xmlns:svg="http://www.w3.org/2000/svg"
   xmlns="http://www.w3.org/2000/svg"
   xmlns:sodipodi="http://sodipodi.sourceforge.net/DTD/sodipodi-0.dtd"
   xmlns:inkscape="http://www.inkscape.org/namespaces/inkscape"
   width="400"
   height="400"
   viewBox="0 0 105.83333 105.83334"
   version="1.1"
   id="svg8"
   inkscape:version="0.92.3 (2405546, 2018-03-11)"
   sodipodi:docname="p4.svg">
  <defs
     id="defs2" />
  <sodipodi:namedview
     id="base"
     pagecolor="#ffffff"
     bordercolor="#666666"
     borderopacity="1.0"
     inkscape:pageopacity="0.0"
     inkscape:pageshadow="2"
     inkscape:zoom="0.98994949"
     inkscape:cx="219.00227"
     inkscape:cy="201.38601"
     inkscape:document-units="mm"
     inkscape:current-layer="layer1"
     showgrid="false"
     units="px"
     inkscape:window-width="958"
     inkscape:window-height="1048"
     inkscape:window-x="953"
     inkscape:window-y="0"
     inkscape:window-maximized="0" />
  <metadata
     id="metadata5">
    <rdf:RDF>
      <cc:Work
         rdf:about="">
        <dc:format>image/svg+xml</dc:format>
        <dc:type
           rdf:resource="http://purl.org/dc/dcmitype/StillImage" />
        <dc:title></dc:title>
      </cc:Work>
    </rdf:RDF>
  </metadata>
  <g
     inkscape:label="Layer 1"
     inkscape:groupmode="layer"
     id="layer1"
     transform="translate(0,-191.16665)">
    <g
       transform="translate(149.57242,534.19688)"
       id="g5447">
      <g
         transform="translate(-33.3375,-25.929167)"
         id="g2697">
        <path
           style="fill:none;stroke:none;stroke-width:0.26458332;stroke-linecap:round;stroke-linejoin:round;stroke-miterlimit:4;stroke-dasharray:none;stroke-opacity:1"
           d="m -95.63939,-297.52791 c 4.35611,-6.46471 11.546873,-10.28376 21.24793,-11.75986 12.95496,-2.75562 22.78268,1.09072 32.606879,4.94449 11.794001,5.65095 16.083111,15.25185 21.381561,24.32152 4.88536,8.24081 4.47221,16.48162 2.27179,24.72243 -0.63998,9.07082 -4.996919,14.42466 -9.08716,20.04522 -6.014249,8.27378 -12.974428,14.23527 -22.18337,14.69982 -13.586209,4.23178 -20.715981,2.00711 -28.063304,0 -15.105086,-1.78267 -18.700496,-8.60083 -22.717906,-15.23436 -10.45184,-8.71501 -9.79298,-17.80038 -9.88898,-26.86059 l 4.40995,-20.17885 z"
           id="path823-0"
           inkscape:connector-curvature="0"
           sodipodi:nodetypes="cccccccccccc" />
        <path
           style="fill:#d7732b;fill-opacity:1;stroke:#000000;stroke-width:0.26458332;stroke-linecap:round;stroke-linejoin:round;stroke-miterlimit:4;stroke-dasharray:none;stroke-opacity:1"
           d="m -95.63939,-297.52791 c 4.35611,-6.46471 11.546873,-10.28376 21.24793,-11.75986 12.95496,-2.75562 22.78268,1.09072 32.606879,4.94449 11.794001,5.65095 16.083111,15.25185 21.381561,24.32152 4.88536,8.24081 4.47221,16.48162 2.27179,24.72243 -0.63998,9.07082 -4.996919,14.42466 -9.08716,20.04522 -6.014249,8.27378 -12.974428,14.23527 -22.18337,14.69982 -13.586209,4.23178 -20.715981,2.00711 -28.063304,0 -15.105086,-1.78267 -18.700496,-8.60083 -22.717906,-15.23436 -10.45184,-8.71501 -9.79298,-17.80038 -9.88898,-26.86059 l 4.40995,-20.17885 z"
           id="path823-9-8"
           inkscape:connector-curvature="0"
           sodipodi:nodetypes="cccccccccccc" />
        <path
           style="fill:#fce8a8;fill-opacity:1;stroke:none;stroke-width:0.249025;stroke-linecap:round;stroke-linejoin:round;stroke-miterlimit:4;stroke-dasharray:none;stroke-opacity:1"
           d="m -23.4421,-280.95625 c 4.174741,5.981 5.058031,13.58043 3.026481,22.61312 -2.02519,12.32267 -8.76676,19.70096 -15.513611,27.07368 -8.997889,8.51108 -18.886149,9.10263 -28.654661,10.75932 -8.900178,1.5679 -15.983889,-1.53015 -22.454901,-6.20211 -7.733698,-3.57318 -10.934148,-9.18634 -14.459918,-14.65311 -5.1924,-8.04144 -8.03321,-16.14865 -5.28348,-24.41233 0.94735,-13.36833 5.34214,-18.90882 9.62076,-24.71306 6.74137,-12.71034 13.951976,-13.61431 21.145375,-14.95118 11.224244,-6.31251 18.964246,-2.71787 26.940936,0.20369 l 16.18052,10.57862 z"
           id="path823-1-3-41"
           inkscape:connector-curvature="0"
           sodipodi:nodetypes="cccccccccccc" />
        <path
           style="fill:#fbe9a7;fill-opacity:1;stroke:none;stroke-width:0.22322927;stroke-linecap:round;stroke-linejoin:round;stroke-miterlimit:4;stroke-dasharray:none;stroke-opacity:1"
           d="m -49.48844,-299.7638 c 6.494761,1.03675 11.972012,5.18266 16.548171,12.08199 6.711371,8.93478 7.259529,17.82199 7.800761,26.70912 -0.134242,11.03304 -5.957523,17.72626 -11.015652,25.00317 -4.57064,6.6663 -11.023709,9.27793 -18.111769,10.52184 -7.168812,2.73293 -12.813771,1.30087 -18.56808,0.16769 -8.46826,-1.66294 -15.503091,-4.87122 -19.130331,-11.75332 -8.06525,-8.8934 -8.89589,-15.13985 -9.97029,-21.47548 -4.00234,-12.19252 -0.0621,-17.36626 3.58692,-22.79734 2.95585,-11.09453 10.14253,-13.81819 17.041748,-17.11055 l 17.008641,-3.79439 z"
           id="path823-1-83"
           inkscape:connector-curvature="0"
           sodipodi:nodetypes="cccccccccccc" />
        <path
           style="fill:#cc0001;fill-opacity:1;stroke:none;stroke-width:0.23646981;stroke-linecap:round;stroke-linejoin:round;stroke-miterlimit:4;stroke-dasharray:none;stroke-opacity:1"
           d="m -94.05373,-292.9378 c 3.70754,-5.89891 10.021991,-9.51445 18.645079,-11.1079 11.493161,-2.82872 20.380322,0.32929 29.26452,3.49402 10.694591,4.71458 14.797842,13.17052 19.787582,21.12327 4.597259,7.22396 4.46193,14.59795 2.730209,22.02257 -0.314389,8.12195 -4.054179,13.02842 -7.54815,18.16562 -5.137298,7.56207 -11.18503,13.08513 -19.397229,13.76093 -12.01512,4.16538 -18.44649,2.37977 -25.066016,0.7947 -13.542325,-1.16488 -16.947065,-7.1544 -20.723515,-12.96698 -9.58266,-7.48998 -9.25182,-15.62547 -9.59449,-23.71709 l 3.36672,-18.15256 z"
           id="path823-1-8-9-3"
           inkscape:connector-curvature="0"
           sodipodi:nodetypes="cccccccccccc" />
        <path
           style="fill:#f5cc15;fill-opacity:1;stroke:none;stroke-width:0.22322927;stroke-linecap:round;stroke-linejoin:round;stroke-miterlimit:4;stroke-dasharray:none;stroke-opacity:1"
           d="m -49.48844,-299.7638 c 6.494761,1.03675 11.972012,5.18266 16.548171,12.08199 6.711371,8.93478 7.259529,17.82199 7.800761,26.70912 -0.134242,11.03304 -5.957523,17.72626 -11.015652,25.00317 -4.57064,6.6663 -11.023709,9.27793 -18.111769,10.52184 -7.168812,2.73293 -12.813771,1.30087 -18.56808,0.16769 -8.468262,-1.66294 -15.503091,-4.87122 -19.130331,-11.75332 -8.06525,-8.8934 -8.89589,-15.13985 -9.97029,-21.47548 -4.00234,-12.19252 -0.0621,-17.36626 3.58692,-22.79734 2.95585,-11.09453 10.14253,-13.81819 17.041748,-17.11055 l 17.008641,-3.79439 z"
           id="path823-1-8-7"
           inkscape:connector-curvature="0"
           sodipodi:nodetypes="cccccccccccc" />
        <path
           sodipodi:nodetypes="cccccccccccc"
           inkscape:connector-curvature="0"
           id="path1536-9"
           d="m -95.63939,-297.52791 c 4.35611,-6.46471 11.546873,-10.28376 21.24793,-11.75986 12.95496,-2.75562 22.78268,1.09072 32.606879,4.94449 11.794001,5.65095 16.083111,15.25185 21.381561,24.32152 4.88536,8.24081 4.47221,16.48162 2.27179,24.72243 -0.63998,9.07082 -4.996919,14.42466 -9.08716,20.04522 -6.014249,8.27378 -12.974428,14.23527 -22.18337,14.69982 -13.586209,4.23178 -20.715981,2.00711 -28.063304,0 -15.105086,-1.78267 -18.700496,-8.60083 -22.717906,-15.23436 -10.45184,-8.71501 -9.79298,-17.80038 -9.88898,-26.86059 l 4.40995,-20.17885 z"
           style="fill:none;stroke:none;stroke-width:0.26458332;stroke-linecap:round;stroke-linejoin:round;stroke-miterlimit:4;stroke-dasharray:none;stroke-opacity:1" />
        <path
           sodipodi:nodetypes="cccccccccccc"
           inkscape:connector-curvature="0"
           id="path1538-3"
           d="m -95.63939,-297.52791 c 4.35611,-6.46471 11.546873,-10.28376 21.24793,-11.75986 12.95496,-2.75562 22.78268,1.09072 32.606879,4.94449 11.794001,5.65095 16.083111,15.25185 21.381561,24.32152 4.88536,8.24081 4.47221,16.48162 2.27179,24.72243 -0.63998,9.07082 -4.996919,14.42466 -9.08716,20.04522 -6.014249,8.27378 -12.974428,14.23527 -22.18337,14.69982 -13.586209,4.23178 -20.715981,2.00711 -28.063304,0 -15.105086,-1.78267 -18.700496,-8.60083 -22.717906,-15.23436 -10.45184,-8.71501 -9.79298,-17.80038 -9.88898,-26.86059 l 4.40995,-20.17885 z"
           style="fill:#d7732b;fill-opacity:1;stroke:#000000;stroke-width:0.26458332;stroke-linecap:round;stroke-linejoin:round;stroke-miterlimit:4;stroke-dasharray:none;stroke-opacity:1" />
        <path
           sodipodi:nodetypes="cccccccccccc"
           inkscape:connector-curvature="0"
           id="path1540-0"
           d="m -23.4421,-280.95625 c 4.174741,5.981 5.058031,13.58043 3.026481,22.61312 -2.02519,12.32267 -8.76676,19.70096 -15.513611,27.07368 -8.997889,8.51108 -18.886149,9.10263 -28.654661,10.75932 -8.900178,1.5679 -15.983889,-1.53015 -22.454901,-6.20211 -7.733698,-3.57318 -10.934148,-9.18634 -14.459918,-14.65311 -5.1924,-8.04144 -8.03321,-16.14865 -5.28348,-24.41233 0.94735,-13.36833 5.34214,-18.90882 9.62076,-24.71306 6.74137,-12.71034 13.951976,-13.61431 21.145375,-14.95118 11.224244,-6.31251 18.964246,-2.71787 26.940936,0.20369 l 16.18052,10.57862 z"
           style="fill:#fce8a8;fill-opacity:1;stroke:none;stroke-width:0.249025;stroke-linecap:round;stroke-linejoin:round;stroke-miterlimit:4;stroke-dasharray:none;stroke-opacity:1" />
        <path
           sodipodi:nodetypes="cccccccccccc"
           inkscape:connector-curvature="0"
           id="path1542-45"
           d="m -49.48844,-299.7638 c 6.494761,1.03675 11.972012,5.18266 16.548171,12.08199 6.711371,8.93478 7.259529,17.82199 7.800761,26.70912 -0.134242,11.03304 -5.957523,17.72626 -11.015652,25.00317 -4.57064,6.6663 -11.023709,9.27793 -18.111769,10.52184 -7.168812,2.73293 -12.813771,1.30087 -18.56808,0.16769 -8.46826,-1.66294 -15.503091,-4.87122 -19.130331,-11.75332 -8.06525,-8.8934 -8.89589,-15.13985 -9.97029,-21.47548 -4.00234,-12.19252 -0.0621,-17.36626 3.58692,-22.79734 2.95585,-11.09453 10.14253,-13.81819 17.041748,-17.11055 l 17.008641,-3.79439 z"
           style="fill:#fbe9a7;fill-opacity:1;stroke:none;stroke-width:0.22322927;stroke-linecap:round;stroke-linejoin:round;stroke-miterlimit:4;stroke-dasharray:none;stroke-opacity:1" />
        <path
           sodipodi:nodetypes="cccccccccccc"
           inkscape:connector-curvature="0"
           id="path1546-93"
           d="m -94.05373,-292.9378 c 3.70754,-5.89891 10.021991,-9.51445 18.645079,-11.1079 11.493161,-2.82872 20.380322,0.32929 29.26452,3.49402 10.694591,4.71458 14.797842,13.17052 19.787582,21.12327 4.597259,7.22396 4.46193,14.59795 2.730209,22.02257 -0.314389,8.12195 -4.054179,13.02842 -7.54815,18.16562 -5.137298,7.56207 -11.18503,13.08513 -19.397229,13.76093 -12.01512,4.16538 -18.44649,2.37977 -25.066016,0.7947 -13.542325,-1.16488 -16.947065,-7.1544 -20.723515,-12.96698 -9.58266,-7.48998 -9.25182,-15.62547 -9.59449,-23.71709 l 3.36672,-18.15256 z"
           style="fill:#cc0001;fill-opacity:1;stroke:none;stroke-width:0.23646981;stroke-linecap:round;stroke-linejoin:round;stroke-miterlimit:4;stroke-dasharray:none;stroke-opacity:1" />
        <path
           sodipodi:nodetypes="cccccccccccc"
           inkscape:connector-curvature="0"
           id="path1548-5"
           d="m -49.48844,-299.7638 c 6.494761,1.03675 11.972012,5.18266 16.548171,12.08199 6.711371,8.93478 7.259529,17.82199 7.800761,26.70912 -0.134242,11.03304 -5.957523,17.72626 -11.015652,25.00317 -4.57064,6.6663 -11.023709,9.27793 -18.111769,10.52184 -7.168812,2.73293 -12.813771,1.30087 -18.56808,0.16769 -8.468262,-1.66294 -15.503091,-4.87122 -19.130331,-11.75332 -8.06525,-8.8934 -8.89589,-15.13985 -9.97029,-21.47548 -4.00234,-12.19252 -0.0621,-17.36626 3.58692,-22.79734 2.95585,-11.09453 10.14253,-13.81819 17.041748,-17.11055 l 17.008641,-3.79439 z"
           style="fill:#f5cc15;fill-opacity:1;stroke:none;stroke-width:0.22322927;stroke-linecap:round;stroke-linejoin:round;stroke-miterlimit:4;stroke-dasharray:none;stroke-opacity:1" />
      </g>
      <path
         sodipodi:nodetypes="cccc"
         inkscape:connector-curvature="0"
         id="path1826-45-3-5-3"
         d="m -99.012797,-318.5908 c -0.106379,-3.05626 0.305609,-4.8207 3.828949,-4.63567 4.001252,2.41882 2.306741,3.85892 -0.217278,6.15254 -1.60595,-1.73288 -3.32222,0.14995 -3.611671,-1.51687 z"
         style="fill:#f8992e;fill-opacity:1;stroke:#000000;stroke-width:0.15875001;stroke-linecap:butt;stroke-linejoin:miter;stroke-miterlimit:4;stroke-dasharray:none;stroke-opacity:1" />
      <path
         sodipodi:nodetypes="cccc"
         inkscape:connector-curvature="0"
         id="path1826-45-3-5-5"
         d="m -70.511683,-289.90904 c 3.020753,-0.47655 4.822153,-0.28176 5.066131,3.23799 -1.915291,4.26525 -3.550413,2.75806 -6.133426,0.53108 1.525149,-1.8044 -0.552071,-3.27946 1.067295,-3.76907 z"
         style="fill:#f8992e;fill-opacity:1;stroke:#000000;stroke-width:0.15875001;stroke-linecap:butt;stroke-linejoin:miter;stroke-miterlimit:4;stroke-dasharray:none;stroke-opacity:1" />
      <path
         sodipodi:nodetypes="cccc"
         inkscape:connector-curvature="0"
         id="path1826-45-3-5-4"
         d="m -110.27949,-296.06625 c 3.02075,-0.47653 4.82215,-0.28175 5.06613,3.238 -1.91529,4.26525 -3.55042,2.75806 -6.13343,0.53109 1.52515,-1.8044 -0.55207,-3.27946 1.0673,-3.76909 z"
         style="fill:#f8992e;fill-opacity:1;stroke:#000000;stroke-width:0.15875001;stroke-linecap:butt;stroke-linejoin:miter;stroke-miterlimit:4;stroke-dasharray:none;stroke-opacity:1" />
      <path
         sodipodi:nodetypes="cccc"
         inkscape:connector-curvature="0"
         id="path1826-45-3-5-6"
         d="m -89.223214,-276.52205 c -0.106379,-3.05626 0.305609,-4.8207 3.828949,-4.63567 4.001252,2.41882 2.306741,3.85892 -0.217278,6.15254 -1.60595,-1.73288 -3.32222,0.14995 -3.611671,-1.51687 z"
         style="fill:#f8992e;fill-opacity:1;stroke:#000000;stroke-width:0.15875001;stroke-linecap:butt;stroke-linejoin:miter;stroke-miterlimit:4;stroke-dasharray:none;stroke-opacity:1" />
      <path
         sodipodi:nodetypes="cccc"
         inkscape:connector-curvature="0"
         id="path1826-45-3-5-65"
         d="m -82.377947,-303.7092 c -2.243535,-2.07813 -3.205188,-3.61377 -0.591165,-5.98338 4.535773,-1.13467 4.363555,1.08245 4.212439,4.48958 -2.361206,-0.0816 -2.234617,2.46295 -3.621274,1.4938 z"
         style="fill:#f8992e;fill-opacity:1;stroke:#000000;stroke-width:0.15875001;stroke-linecap:butt;stroke-linejoin:miter;stroke-miterlimit:4;stroke-dasharray:none;stroke-opacity:1" />
      <path
         sodipodi:nodetypes="cccc"
         inkscape:connector-curvature="0"
         id="path1826-45-3-5-48"
         d="m -96.102381,-299.01164 c -0.106379,-3.05626 0.305609,-4.8207 3.82895,-4.63567 4.001252,2.41882 2.306741,3.85892 -0.217279,6.15254 -1.60595,-1.73288 -3.32222,0.14995 -3.611671,-1.51687 z"
         style="fill:#f8992e;fill-opacity:1;stroke:#000000;stroke-width:0.15875001;stroke-linecap:butt;stroke-linejoin:miter;stroke-miterlimit:4;stroke-dasharray:none;stroke-opacity:1" />
      <path
         sodipodi:nodetypes="cccc"
         inkscape:connector-curvature="0"
         id="path1826-45-3-5-46"
         d="m -103.24613,-304.3033 c -0.10637,-3.05626 0.30561,-4.8207 3.828945,-4.63567 4.00126,2.41882 2.30674,3.85892 -0.21727,6.15254 -1.605945,-1.73288 -3.322215,0.14995 -3.611675,-1.51687 z"
         style="fill:#f8992e;fill-opacity:1;stroke:#000000;stroke-width:0.15875001;stroke-linecap:butt;stroke-linejoin:miter;stroke-miterlimit:4;stroke-dasharray:none;stroke-opacity:1" />
      <path
         sodipodi:nodetypes="cccc"
         inkscape:connector-curvature="0"
         id="path1826-45-3-5-2"
         d="m -104.4886,-276.51478 c -2.24353,-2.07812 -3.20518,-3.61377 -0.59116,-5.98338 4.53577,-1.13466 4.36356,1.08245 4.21244,4.48958 -2.36121,-0.0816 -2.23462,2.46295 -3.62128,1.4938 z"
         style="fill:#f8992e;fill-opacity:1;stroke:#000000;stroke-width:0.15875001;stroke-linecap:butt;stroke-linejoin:miter;stroke-miterlimit:4;stroke-dasharray:none;stroke-opacity:1" />
      <path
         sodipodi:nodetypes="cccc"
         inkscape:connector-curvature="0"
         id="path1826-45-3-5-20"
         d="m -119.78259,-309.59497 c -0.10638,-3.05626 0.30561,-4.8207 3.82895,-4.63567 4.00125,2.41882 2.30674,3.85892 -0.21728,6.15254 -1.60595,-1.73288 -3.32222,0.14995 -3.61167,-1.51687 z"
         style="fill:#f8992e;fill-opacity:1;stroke:#000000;stroke-width:0.15875001;stroke-linecap:butt;stroke-linejoin:miter;stroke-miterlimit:4;stroke-dasharray:none;stroke-opacity:1" />
      <path
         sodipodi:nodetypes="cccc"
         inkscape:connector-curvature="0"
         id="path1826-45-3-5-42"
         d="m -125.84655,-293.86407 c -2.24353,-2.07813 -3.20519,-3.61377 -0.59116,-5.98338 4.53577,-1.13467 4.36355,1.08245 4.21244,4.48957 -2.36121,-0.0816 -2.23462,2.46295 -3.62128,1.49381 z"
         style="fill:#f8992e;fill-opacity:1;stroke:#000000;stroke-width:0.15875001;stroke-linecap:butt;stroke-linejoin:miter;stroke-miterlimit:4;stroke-dasharray:none;stroke-opacity:1" />
      <path
         sodipodi:nodetypes="cccc"
         inkscape:connector-curvature="0"
         id="path1826-45-3-5-8"
         d="m -86.445089,-289.08976 c -0.106379,-3.05626 0.305609,-4.8207 3.828949,-4.63567 4.001252,2.41882 2.306741,3.85892 -0.217278,6.15254 -1.60595,-1.73288 -3.32222,0.14995 -3.611671,-1.51687 z"
         style="fill:#f8992e;fill-opacity:1;stroke:#000000;stroke-width:0.15875001;stroke-linecap:butt;stroke-linejoin:miter;stroke-miterlimit:4;stroke-dasharray:none;stroke-opacity:1" />
      <path
         sodipodi:nodetypes="cccc"
         inkscape:connector-curvature="0"
         id="path1826-45-3-5-1"
         d="m -119.32579,-279.50857 c 3.02076,-0.47654 4.82216,-0.28175 5.06614,3.238 -1.9153,4.26525 -3.55042,2.75805 -6.13343,0.53108 1.52515,-1.8044 -0.55207,-3.27946 1.06729,-3.76908 z"
         style="fill:#f8992e;fill-opacity:1;stroke:#000000;stroke-width:0.15875001;stroke-linecap:butt;stroke-linejoin:miter;stroke-miterlimit:4;stroke-dasharray:none;stroke-opacity:1" />
      <path
         sodipodi:nodetypes="cccc"
         inkscape:connector-curvature="0"
         id="path1826-45-3-5-68"
         d="m -111.18363,-258.39809 c -0.10638,-3.05626 0.30561,-4.8207 3.82895,-4.63567 4.00125,2.41882 2.30674,3.85892 -0.21728,6.15254 -1.60595,-1.73288 -3.32222,0.14995 -3.61167,-1.51687 z"
         style="fill:#f8992e;fill-opacity:1;stroke:#000000;stroke-width:0.15875001;stroke-linecap:butt;stroke-linejoin:miter;stroke-miterlimit:4;stroke-dasharray:none;stroke-opacity:1" />
      <path
         sodipodi:nodetypes="cccc"
         inkscape:connector-curvature="0"
         id="path1826-45-3-5-22"
         d="m -73.193299,-270.47313 c -2.243535,-2.07812 -3.205187,-3.61377 -0.591165,-5.98338 4.535774,-1.13466 4.363556,1.08245 4.212439,4.48958 -2.361206,-0.0816 -2.234617,2.46295 -3.621274,1.4938 z"
         style="fill:#f8992e;fill-opacity:1;stroke:#000000;stroke-width:0.15875001;stroke-linecap:butt;stroke-linejoin:miter;stroke-miterlimit:4;stroke-dasharray:none;stroke-opacity:1" />
      <path
         sodipodi:nodetypes="cccc"
         inkscape:connector-curvature="0"
         id="path1826-45-3-5-60"
         d="m -90.370329,-267.93769 c 3.020753,-0.47654 4.822153,-0.28176 5.066131,3.23799 -1.915291,4.26526 -3.550413,2.75806 -6.133425,0.53109 1.525148,-1.80441 -0.552072,-3.27946 1.067294,-3.76908 z"
         style="fill:#f8992e;fill-opacity:1;stroke:#000000;stroke-width:0.15875001;stroke-linecap:butt;stroke-linejoin:miter;stroke-miterlimit:4;stroke-dasharray:none;stroke-opacity:1" />
      <path
         sodipodi:nodetypes="cc"
         inkscape:connector-curvature="0"
         id="path1519-39-7-5-4-9"
         d="m -85.618861,-269.53374 c 2.656515,-6.02799 10.962042,-1.93176 8.494966,3.79855"
         style="fill:none;fill-opacity:1;stroke:#b73844;stroke-width:0.40687007;stroke-linecap:butt;stroke-linejoin:miter;stroke-miterlimit:4;stroke-dasharray:none;stroke-opacity:1" />
      <path
         sodipodi:nodetypes="cc"
         inkscape:connector-curvature="0"
         id="path1519-39-7-5-4-6"
         d="m -111.01356,-304.94285 c -4.65288,-4.66309 2.17833,-10.91572 6.62258,-6.53719"
         style="fill:none;fill-opacity:1;stroke:#b73844;stroke-width:0.40687007;stroke-linecap:butt;stroke-linejoin:miter;stroke-miterlimit:4;stroke-dasharray:none;stroke-opacity:1" />
      <path
         sodipodi:nodetypes="cc"
         inkscape:connector-curvature="0"
         id="path1519-39-7-5-4-2"
         d="m -101.59588,-290.2579 c 2.656518,-6.02798 10.962041,-1.93176 8.494966,3.79855"
         style="fill:none;fill-opacity:1;stroke:#b73844;stroke-width:0.40687007;stroke-linecap:butt;stroke-linejoin:miter;stroke-miterlimit:4;stroke-dasharray:none;stroke-opacity:1" />
      <path
         sodipodi:nodetypes="cc"
         inkscape:connector-curvature="0"
         id="path1519-39-7-5-4-7"
         d="m -126.47754,-273.50055 c -4.65288,-4.66309 2.17833,-10.91572 6.62258,-6.53719"
         style="fill:none;fill-opacity:1;stroke:#b73844;stroke-width:0.40687007;stroke-linecap:butt;stroke-linejoin:miter;stroke-miterlimit:4;stroke-dasharray:none;stroke-opacity:1" />
      <path
         sodipodi:nodetypes="cc"
         inkscape:connector-curvature="0"
         id="path1519-39-7-5-4-0"
         d="m -126.89229,-302.47599 c 2.65652,-6.02799 10.96204,-1.93176 8.49497,3.79855"
         style="fill:none;fill-opacity:1;stroke:#b73844;stroke-width:0.40687007;stroke-linecap:butt;stroke-linejoin:miter;stroke-miterlimit:4;stroke-dasharray:none;stroke-opacity:1" />
      <path
         sodipodi:nodetypes="cc"
         inkscape:connector-curvature="0"
         id="path1519-39-7-5-4-05"
         d="m -112.24084,-263.54374 c -4.65288,-4.66309 2.17833,-10.91572 6.62258,-6.53719"
         style="fill:none;fill-opacity:1;stroke:#b73844;stroke-width:0.40687007;stroke-linecap:butt;stroke-linejoin:miter;stroke-miterlimit:4;stroke-dasharray:none;stroke-opacity:1" />
      <path
         sodipodi:nodetypes="cc"
         inkscape:connector-curvature="0"
         id="path1519-39-7-5-4-79"
         d="m -119.74004,-282.95016 c -4.65288,-4.66309 2.17833,-10.91572 6.62258,-6.53719"
         style="fill:none;fill-opacity:1;stroke:#b73844;stroke-width:0.40687007;stroke-linecap:butt;stroke-linejoin:miter;stroke-miterlimit:4;stroke-dasharray:none;stroke-opacity:1" />
      <path
         sodipodi:nodetypes="cc"
         inkscape:connector-curvature="0"
         id="path1519-39-7-5-4-1"
         d="m -80.318225,-279.60278 c -4.652884,-4.66309 2.178328,-10.91572 6.622579,-6.53719"
         style="fill:none;fill-opacity:1;stroke:#b73844;stroke-width:0.40687007;stroke-linecap:butt;stroke-linejoin:miter;stroke-miterlimit:4;stroke-dasharray:none;stroke-opacity:1" />
      <path
         sodipodi:nodetypes="cc"
         inkscape:connector-curvature="0"
         id="path1519-39-7-5-4-16"
         d="m -102.1043,-266.35754 c 2.656517,-6.02799 10.962043,-1.93176 8.494968,3.79854"
         style="fill:none;fill-opacity:1;stroke:#b73844;stroke-width:0.40687007;stroke-linecap:butt;stroke-linejoin:miter;stroke-miterlimit:4;stroke-dasharray:none;stroke-opacity:1" />
      <path
         sodipodi:nodetypes="cc"
         inkscape:connector-curvature="0"
         id="path1519-39-7-5-4-07"
         d="m -75.859689,-298.53644 c -4.652884,-4.66309 2.178328,-10.91572 6.622579,-6.53719"
         style="fill:none;fill-opacity:1;stroke:#b73844;stroke-width:0.40687007;stroke-linecap:butt;stroke-linejoin:miter;stroke-miterlimit:4;stroke-dasharray:none;stroke-opacity:1" />
      <path
         sodipodi:nodetypes="cc"
         inkscape:connector-curvature="0"
         id="path1519-39-7-5-4-8"
         d="m -86.723458,-309.49462 c -4.65289,-4.66309 2.178327,-10.91572 6.622578,-6.53719"
         style="fill:none;fill-opacity:1;stroke:#b73844;stroke-width:0.40687007;stroke-linecap:butt;stroke-linejoin:miter;stroke-miterlimit:4;stroke-dasharray:none;stroke-opacity:1" />
    </g>
  </g>
</svg>
