<?xml version="1.0" encoding="UTF-8" standalone="no"?>
<!-- Created with Inkscape (http://www.inkscape.org/) -->

<svg
   xmlns:dc="http://purl.org/dc/elements/1.1/"
   xmlns:cc="http://creativecommons.org/ns#"
   xmlns:rdf="http://www.w3.org/1999/02/22-rdf-syntax-ns#"
   xmlns:svg="http://www.w3.org/2000/svg"
   xmlns="http://www.w3.org/2000/svg"
   xmlns:sodipodi="http://sodipodi.sourceforge.net/DTD/sodipodi-0.dtd"
   xmlns:inkscape="http://www.inkscape.org/namespaces/inkscape"
   width="400"
   height="400"
   viewBox="0 0 105.83333 105.83334"
   version="1.1"
   id="svg8"
   inkscape:version="0.92.3 (2405546, 2018-03-11)"
   sodipodi:docname="p5.svg">
  <defs
     id="defs2" />
  <sodipodi:namedview
     id="base"
     pagecolor="#ffffff"
     bordercolor="#666666"
     borderopacity="1.0"
     inkscape:pageopacity="0.0"
     inkscape:pageshadow="2"
     inkscape:zoom="0.98994949"
     inkscape:cx="219.00227"
     inkscape:cy="201.38601"
     inkscape:document-units="mm"
     inkscape:current-layer="layer1"
     showgrid="false"
     units="px"
     inkscape:window-width="958"
     inkscape:window-height="1048"
     inkscape:window-x="953"
     inkscape:window-y="0"
     inkscape:window-maximized="0" />
  <metadata
     id="metadata5">
    <rdf:RDF>
      <cc:Work
         rdf:about="">
        <dc:format>image/svg+xml</dc:format>
        <dc:type
           rdf:resource="http://purl.org/dc/dcmitype/StillImage" />
        <dc:title></dc:title>
      </cc:Work>
    </rdf:RDF>
  </metadata>
  <g
     inkscape:label="Layer 1"
     inkscape:groupmode="layer"
     id="layer1"
     transform="translate(0,-191.16665)">
    <g
       transform="translate(10.13406,530.91927)"
       id="g5489">
      <g
         transform="translate(2.3841864,-18.418227)"
         id="g2711">
        <path
           style="fill:none;stroke:none;stroke-width:0.26458332;stroke-linecap:round;stroke-linejoin:round;stroke-miterlimit:4;stroke-dasharray:none;stroke-opacity:1"
           d="m 8.0772756,-301.76124 c 4.3561154,-6.46472 11.5468744,-10.28376 21.2479314,-11.75986 12.95496,-2.75563 22.78268,1.09072 32.606879,4.94448 11.794001,5.65096 16.083111,15.25186 21.381561,24.32153 4.88536,8.24081 4.47221,16.48162 2.27179,24.72243 -0.63998,9.07082 -4.996919,14.42466 -9.08716,20.04522 -6.014249,8.27378 -12.974428,14.23527 -22.18337,14.69982 -13.586209,4.23178 -20.715981,2.00711 -28.063304,0 -15.105087,-1.78267 -18.7004974,-8.60083 -22.7179084,-15.23436 -10.4518386,-8.71501 -9.7929806,-17.80038 -9.8889746,-26.86059 l 4.409948,-20.17885 z"
           id="path823-77"
           inkscape:connector-curvature="0"
           sodipodi:nodetypes="cccccccccccc" />
        <path
           style="fill:#d7732b;fill-opacity:1;stroke:#000000;stroke-width:0.26458332;stroke-linecap:round;stroke-linejoin:round;stroke-miterlimit:4;stroke-dasharray:none;stroke-opacity:1"
           d="m 8.0772756,-301.76124 c 4.3561154,-6.46472 11.5468744,-10.28376 21.2479314,-11.75986 12.95496,-2.75563 22.78268,1.09072 32.606879,4.94448 11.794001,5.65096 16.083111,15.25186 21.381561,24.32153 4.88536,8.24081 4.47221,16.48162 2.27179,24.72243 -0.63998,9.07082 -4.996919,14.42466 -9.08716,20.04522 -6.014249,8.27378 -12.974428,14.23527 -22.18337,14.69982 -13.586209,4.23178 -20.715981,2.00711 -28.063304,0 -15.105087,-1.78267 -18.7004974,-8.60083 -22.7179084,-15.23436 -10.4518386,-8.71501 -9.7929806,-17.80038 -9.8889746,-26.86059 l 4.409948,-20.17885 z"
           id="path823-9-3"
           inkscape:connector-curvature="0"
           sodipodi:nodetypes="cccccccccccc" />
        <path
           style="fill:#fce8a8;fill-opacity:1;stroke:none;stroke-width:0.249025;stroke-linecap:round;stroke-linejoin:round;stroke-miterlimit:4;stroke-dasharray:none;stroke-opacity:1"
           d="m 80.274567,-285.18959 c 4.174741,5.98101 5.058031,13.58043 3.026481,22.61313 -2.02519,12.32267 -8.76676,19.70096 -15.513611,27.07368 -8.997889,8.51108 -18.886149,9.10263 -28.654661,10.75932 -8.900178,1.5679 -15.983889,-1.53015 -22.454901,-6.20211 -7.7336944,-3.57318 -10.9341474,-9.18634 -14.4599158,-14.65311 -5.1924072,-8.04144 -8.0332132,-16.14865 -5.2834812,-24.41233 0.947349,-13.36833 5.3421404,-18.90882 9.6207586,-24.71306 6.7413674,-12.71034 13.9519764,-13.61432 21.1453754,-14.95118 11.224244,-6.31251 18.964246,-2.71787 26.940936,0.20368 l 16.18052,10.57863 z"
           id="path823-1-3-7"
           inkscape:connector-curvature="0"
           sodipodi:nodetypes="cccccccccccc" />
        <path
           style="fill:#fbe9a7;fill-opacity:1;stroke:none;stroke-width:0.22322927;stroke-linecap:round;stroke-linejoin:round;stroke-miterlimit:4;stroke-dasharray:none;stroke-opacity:1"
           d="m 54.228227,-303.99713 c 6.494761,1.03674 11.972012,5.18266 16.548171,12.08199 6.711371,8.93478 7.259529,17.82199 7.800761,26.70912 -0.134242,11.03304 -5.957523,17.72626 -11.015652,25.00317 -4.57064,6.6663 -11.023709,9.27793 -18.111769,10.52184 -7.168812,2.73293 -12.813771,1.30087 -18.56808,0.16769 -8.46826,-1.66294 -15.503095,-4.87122 -19.130328,-11.75332 -8.0652544,-8.8934 -8.8958905,-15.13985 -9.970298,-21.47548 -4.002333,-12.19252 -0.06209,-17.36626 3.5869246,-22.79734 2.955852,-11.09453 10.1425284,-13.81819 17.0417484,-17.11055 l 17.008641,-3.7944 z"
           id="path823-1-4"
           inkscape:connector-curvature="0"
           sodipodi:nodetypes="cccccccccccc" />
        <path
           style="fill:#cc0001;fill-opacity:1;stroke:none;stroke-width:0.23646981;stroke-linecap:round;stroke-linejoin:round;stroke-miterlimit:4;stroke-dasharray:none;stroke-opacity:1"
           d="m 9.6629366,-297.17113 c 3.7075414,-5.89892 10.0219914,-9.51446 18.6450794,-11.1079 11.493161,-2.82873 20.380322,0.32929 29.26452,3.49402 10.694591,4.71457 14.797842,13.17052 19.787582,21.12327 4.597259,7.22395 4.46193,14.59795 2.730209,22.02257 -0.314389,8.12195 -4.054179,13.02842 -7.54815,18.16562 -5.137298,7.56207 -11.18503,13.08513 -19.397229,13.76093 -12.01512,4.16538 -18.44649,2.37977 -25.066016,0.7947 -13.542321,-1.16488 -16.947062,-7.1544 -20.7235164,-12.96698 -9.5826556,-7.48998 -9.2518196,-15.62547 -9.5944856,-23.71709 l 3.366718,-18.15256 z"
           id="path823-1-8-9-8"
           inkscape:connector-curvature="0"
           sodipodi:nodetypes="cccccccccccc" />
        <path
           style="fill:#f5cc15;fill-opacity:1;stroke:none;stroke-width:0.22322927;stroke-linecap:round;stroke-linejoin:round;stroke-miterlimit:4;stroke-dasharray:none;stroke-opacity:1"
           d="m 54.228227,-303.99714 c 6.494761,1.03675 11.972012,5.18267 16.548171,12.082 6.711371,8.93478 7.259529,17.82199 7.800761,26.70912 -0.134242,11.03304 -5.957523,17.72626 -11.015652,25.00317 -4.57064,6.6663 -11.023709,9.27793 -18.111769,10.52184 -7.168812,2.73293 -12.813771,1.30087 -18.56808,0.16769 -8.468262,-1.66294 -15.503095,-4.87122 -19.130328,-11.75332 -8.0652544,-8.8934 -8.8958905,-15.13985 -9.970298,-21.47548 -4.002333,-12.19252 -0.06209,-17.36626 3.5869246,-22.79734 2.955852,-11.09453 10.1425284,-13.81819 17.0417484,-17.11055 l 17.008641,-3.7944 z"
           id="path823-1-8-2"
           inkscape:connector-curvature="0"
           sodipodi:nodetypes="cccccccccccc" />
        <path
           sodipodi:nodetypes="cccccccccccc"
           inkscape:connector-curvature="0"
           id="path1536-2"
           d="m 8.0772756,-301.76124 c 4.3561154,-6.46472 11.5468744,-10.28376 21.2479314,-11.75986 12.95496,-2.75563 22.78268,1.09072 32.606879,4.94448 11.794001,5.65096 16.083111,15.25186 21.381561,24.32153 4.88536,8.24081 4.47221,16.48162 2.27179,24.72243 -0.63998,9.07082 -4.996919,14.42466 -9.08716,20.04522 -6.014249,8.27378 -12.974428,14.23527 -22.18337,14.69982 -13.586209,4.23178 -20.715981,2.00711 -28.063304,0 -15.105087,-1.78267 -18.7004974,-8.60083 -22.7179084,-15.23436 -10.4518386,-8.71501 -9.7929806,-17.80038 -9.8889746,-26.86059 l 4.409948,-20.17885 z"
           style="fill:none;stroke:none;stroke-width:0.26458332;stroke-linecap:round;stroke-linejoin:round;stroke-miterlimit:4;stroke-dasharray:none;stroke-opacity:1" />
        <path
           sodipodi:nodetypes="cccccccccccc"
           inkscape:connector-curvature="0"
           id="path1538-1"
           d="m 8.0772756,-301.76124 c 4.3561154,-6.46472 11.5468744,-10.28376 21.2479314,-11.75986 12.95496,-2.75563 22.78268,1.09072 32.606879,4.94448 11.794001,5.65096 16.083111,15.25186 21.381561,24.32153 4.88536,8.24081 4.47221,16.48162 2.27179,24.72243 -0.63998,9.07082 -4.996919,14.42466 -9.08716,20.04522 -6.014249,8.27378 -12.974428,14.23527 -22.18337,14.69982 -13.586209,4.23178 -20.715981,2.00711 -28.063304,0 -15.105087,-1.78267 -18.7004974,-8.60083 -22.7179084,-15.23436 -10.4518386,-8.71501 -9.7929806,-17.80038 -9.8889746,-26.86059 l 4.409948,-20.17885 z"
           style="fill:#d7732b;fill-opacity:1;stroke:#000000;stroke-width:0.26458332;stroke-linecap:round;stroke-linejoin:round;stroke-miterlimit:4;stroke-dasharray:none;stroke-opacity:1" />
        <path
           sodipodi:nodetypes="cccccccccccc"
           inkscape:connector-curvature="0"
           id="path1540-6"
           d="m 80.274567,-285.18959 c 4.174741,5.98101 5.058031,13.58043 3.026481,22.61313 -2.02519,12.32267 -8.76676,19.70096 -15.513611,27.07368 -8.997889,8.51108 -18.886149,9.10263 -28.654661,10.75932 -8.900178,1.5679 -15.983889,-1.53015 -22.454901,-6.20211 -7.7336944,-3.57318 -10.9341474,-9.18634 -14.4599158,-14.65311 -5.1924072,-8.04144 -8.0332132,-16.14865 -5.2834812,-24.41233 0.947349,-13.36833 5.3421404,-18.90882 9.6207586,-24.71306 6.7413674,-12.71034 13.9519764,-13.61432 21.1453754,-14.95118 11.224244,-6.31251 18.964246,-2.71787 26.940936,0.20368 l 16.18052,10.57863 z"
           style="fill:#fce8a8;fill-opacity:1;stroke:none;stroke-width:0.249025;stroke-linecap:round;stroke-linejoin:round;stroke-miterlimit:4;stroke-dasharray:none;stroke-opacity:1" />
        <path
           sodipodi:nodetypes="cccccccccccc"
           inkscape:connector-curvature="0"
           id="path1542-8"
           d="m 54.228227,-303.99713 c 6.494761,1.03674 11.972012,5.18266 16.548171,12.08199 6.711371,8.93478 7.259529,17.82199 7.800761,26.70912 -0.134242,11.03304 -5.957523,17.72626 -11.015652,25.00317 -4.57064,6.6663 -11.023709,9.27793 -18.111769,10.52184 -7.168812,2.73293 -12.813771,1.30087 -18.56808,0.16769 -8.46826,-1.66294 -15.503095,-4.87122 -19.130328,-11.75332 -8.0652544,-8.8934 -8.8958905,-15.13985 -9.970298,-21.47548 -4.002333,-12.19252 -0.06209,-17.36626 3.5869246,-22.79734 2.955852,-11.09453 10.1425284,-13.81819 17.0417484,-17.11055 l 17.008641,-3.7944 z"
           style="fill:#fbe9a7;fill-opacity:1;stroke:none;stroke-width:0.22322927;stroke-linecap:round;stroke-linejoin:round;stroke-miterlimit:4;stroke-dasharray:none;stroke-opacity:1" />
        <path
           sodipodi:nodetypes="cccccccccccc"
           inkscape:connector-curvature="0"
           id="path1546-4"
           d="m 9.6629366,-297.17113 c 3.7075414,-5.89892 10.0219914,-9.51446 18.6450794,-11.1079 11.493161,-2.82873 20.380322,0.32929 29.26452,3.49402 10.694591,4.71457 14.797842,13.17052 19.787582,21.12327 4.597259,7.22395 4.46193,14.59795 2.730209,22.02257 -0.314389,8.12195 -4.054179,13.02842 -7.54815,18.16562 -5.137298,7.56207 -11.18503,13.08513 -19.397229,13.76093 -12.01512,4.16538 -18.44649,2.37977 -25.066016,0.7947 -13.542321,-1.16488 -16.947062,-7.1544 -20.7235164,-12.96698 -9.5826556,-7.48998 -9.2518196,-15.62547 -9.5944856,-23.71709 l 3.366718,-18.15256 z"
           style="fill:#cc0001;fill-opacity:1;stroke:none;stroke-width:0.23646981;stroke-linecap:round;stroke-linejoin:round;stroke-miterlimit:4;stroke-dasharray:none;stroke-opacity:1" />
        <path
           sodipodi:nodetypes="cccccccccccc"
           inkscape:connector-curvature="0"
           id="path1548-9"
           d="m 54.228227,-303.99714 c 6.494761,1.03675 11.972012,5.18267 16.548171,12.082 6.711371,8.93478 7.259529,17.82199 7.800761,26.70912 -0.134242,11.03304 -5.957523,17.72626 -11.015652,25.00317 -4.57064,6.6663 -11.023709,9.27793 -18.111769,10.52184 -7.168812,2.73293 -12.813771,1.30087 -18.56808,0.16769 -8.468262,-1.66294 -15.503095,-4.87122 -19.130328,-11.75332 -8.0652544,-8.8934 -8.8958905,-15.13985 -9.970298,-21.47548 -4.002333,-12.19252 -0.06209,-17.36626 3.5869246,-22.79734 2.955852,-11.09453 10.1425284,-13.81819 17.0417484,-17.11055 l 17.008641,-3.7944 z"
           style="fill:#f5cc15;fill-opacity:1;stroke:none;stroke-width:0.22322927;stroke-linecap:round;stroke-linejoin:round;stroke-miterlimit:4;stroke-dasharray:none;stroke-opacity:1" />
      </g>
      <path
         sodipodi:nodetypes="ccccc"
         inkscape:connector-curvature="0"
         id="path2249-4-4"
         d="m 41.798976,-262.59179 -4.395668,-1.41295 3.260177,-6.70585 2.540125,0.80918 z"
         style="fill:#f7f052;fill-opacity:1;stroke:#000000;stroke-width:0.15875003;stroke-linecap:butt;stroke-linejoin:miter;stroke-miterlimit:4;stroke-dasharray:none;stroke-opacity:1" />
      <path
         sodipodi:nodetypes="ccccc"
         inkscape:connector-curvature="0"
         id="path2249-4-50"
         d="m 67.922839,-293.0821 0.21867,4.61199 -7.423352,-0.70086 -0.133222,-2.66257 z"
         style="fill:#f7f052;fill-opacity:1;stroke:#000000;stroke-width:0.15875003;stroke-linecap:butt;stroke-linejoin:miter;stroke-miterlimit:4;stroke-dasharray:none;stroke-opacity:1" />
      <path
         sodipodi:nodetypes="ccccc"
         inkscape:connector-curvature="0"
         id="path2249-4-2"
         d="m 40.590918,-308.54883 -4.395668,-1.41295 3.260177,-6.70585 2.540125,0.80917 z"
         style="fill:#f7f052;fill-opacity:1;stroke:#000000;stroke-width:0.15875003;stroke-linecap:butt;stroke-linejoin:miter;stroke-miterlimit:4;stroke-dasharray:none;stroke-opacity:1" />
      <path
         sodipodi:nodetypes="ccccc"
         inkscape:connector-curvature="0"
         id="path2249-4-52"
         d="m 69.392864,-282.68248 4.617147,-0.0165 -1.02526,7.38553 -2.665845,0.0165 z"
         style="fill:#f7f052;fill-opacity:1;stroke:#000000;stroke-width:0.15875003;stroke-linecap:butt;stroke-linejoin:miter;stroke-miterlimit:4;stroke-dasharray:none;stroke-opacity:1" />
      <path
         sodipodi:nodetypes="ccccc"
         inkscape:connector-curvature="0"
         id="path2249-4-48"
         d="m 47.907256,-278.85328 -4.395669,-1.41295 3.260177,-6.70585 2.540126,0.80917 z"
         style="fill:#f7f052;fill-opacity:1;stroke:#000000;stroke-width:0.15875003;stroke-linecap:butt;stroke-linejoin:miter;stroke-miterlimit:4;stroke-dasharray:none;stroke-opacity:1" />
      <path
         sodipodi:nodetypes="ccccc"
         inkscape:connector-curvature="0"
         id="path2249-4-7"
         d="m 70.344112,-306.17812 0.21867,4.612 -7.423352,-0.70086 -0.133222,-2.66257 z"
         style="fill:#f7f052;fill-opacity:1;stroke:#000000;stroke-width:0.15875003;stroke-linecap:butt;stroke-linejoin:miter;stroke-miterlimit:4;stroke-dasharray:none;stroke-opacity:1" />
      <path
         sodipodi:nodetypes="ccccc"
         inkscape:connector-curvature="0"
         id="path2249-4-1"
         d="m 17.534531,-302.39394 4.617147,-0.0165 -1.02526,7.38553 -2.665845,0.0165 z"
         style="fill:#f7f052;fill-opacity:1;stroke:#000000;stroke-width:0.15875003;stroke-linecap:butt;stroke-linejoin:miter;stroke-miterlimit:4;stroke-dasharray:none;stroke-opacity:1" />
      <path
         sodipodi:nodetypes="ccccc"
         inkscape:connector-curvature="0"
         id="path2249-4-6"
         d="m 54.057881,-262.23727 0.21867,4.612 -7.423352,-0.70087 -0.133222,-2.66256 z"
         style="fill:#f7f052;fill-opacity:1;stroke:#000000;stroke-width:0.15875003;stroke-linecap:butt;stroke-linejoin:miter;stroke-miterlimit:4;stroke-dasharray:none;stroke-opacity:1" />
      <path
         sodipodi:nodetypes="ccccc"
         inkscape:connector-curvature="0"
         id="path2249-4-0"
         d="m 60.529322,-275.53872 4.617147,-0.0165 -1.02526,7.38554 -2.665845,0.0165 z"
         style="fill:#f7f052;fill-opacity:1;stroke:#000000;stroke-width:0.15875003;stroke-linecap:butt;stroke-linejoin:miter;stroke-miterlimit:4;stroke-dasharray:none;stroke-opacity:1" />
      <path
         sodipodi:nodetypes="ccccc"
         inkscape:connector-curvature="0"
         id="path2249-4-72"
         d="m 54.047031,-295.77934 4.617147,-0.0165 -1.02526,7.38553 -2.665845,0.0165 z"
         style="fill:#f7f052;fill-opacity:1;stroke:#000000;stroke-width:0.15875003;stroke-linecap:butt;stroke-linejoin:miter;stroke-miterlimit:4;stroke-dasharray:none;stroke-opacity:1" />
      <path
         sodipodi:nodetypes="ccccc"
         inkscape:connector-curvature="0"
         id="path2249-4-8"
         d="m 30.499114,-288.371 4.617147,-0.0165 -1.02526,7.38553 -2.665845,0.0165 z"
         style="fill:#f7f052;fill-opacity:1;stroke:#000000;stroke-width:0.15875003;stroke-linecap:butt;stroke-linejoin:miter;stroke-miterlimit:4;stroke-dasharray:none;stroke-opacity:1" />
      <path
         sodipodi:nodetypes="ccccc"
         inkscape:connector-curvature="0"
         id="path2249-4-53"
         d="m 21.238697,-270.90851 4.617147,-0.0165 -1.02526,7.38554 -2.665845,0.0165 z"
         style="fill:#f7f052;fill-opacity:1;stroke:#000000;stroke-width:0.15875003;stroke-linecap:butt;stroke-linejoin:miter;stroke-miterlimit:4;stroke-dasharray:none;stroke-opacity:1" />
      <path
         sodipodi:nodetypes="ccccc"
         inkscape:connector-curvature="0"
         id="path2249-4-10"
         d="m 28.654966,-314.45461 0.218669,4.612 -7.423351,-0.70086 -0.133222,-2.66257 z"
         style="fill:#f7f052;fill-opacity:1;stroke:#000000;stroke-width:0.15875003;stroke-linecap:butt;stroke-linejoin:miter;stroke-miterlimit:4;stroke-dasharray:none;stroke-opacity:1" />
      <path
         sodipodi:nodetypes="ccccc"
         inkscape:connector-curvature="0"
         id="path2249-4-3"
         d="m 51.533489,-312.18351 4.617147,-0.0165 -1.02526,7.38553 -2.665845,0.0165 z"
         style="fill:#f7f052;fill-opacity:1;stroke:#000000;stroke-width:0.15875003;stroke-linecap:butt;stroke-linejoin:miter;stroke-miterlimit:4;stroke-dasharray:none;stroke-opacity:1" />
      <path
         sodipodi:nodetypes="ccccc"
         inkscape:connector-curvature="0"
         id="path2249-4-73"
         d="m 44.330236,-293.24508 -4.395668,-1.41295 3.260179,-6.70586 2.540126,0.80917 z"
         style="fill:#f7f052;fill-opacity:1;stroke:#000000;stroke-width:0.15875003;stroke-linecap:butt;stroke-linejoin:miter;stroke-miterlimit:4;stroke-dasharray:none;stroke-opacity:1" />
      <path
         sodipodi:nodetypes="ccccc"
         inkscape:connector-curvature="0"
         id="path2249-4-67"
         d="m 18.539213,-287.43373 0.21867,4.61199 -7.423352,-0.70086 -0.133222,-2.66256 z"
         style="fill:#f7f052;fill-opacity:1;stroke:#000000;stroke-width:0.15875003;stroke-linecap:butt;stroke-linejoin:miter;stroke-miterlimit:4;stroke-dasharray:none;stroke-opacity:1" />
      <path
         sodipodi:nodetypes="ccccc"
         inkscape:connector-curvature="0"
         id="path2249-7"
         d="m 57.367382,-282.92426 h 3.16194 v 7.38554 h -3.161939 z"
         style="fill:#fc6675;fill-opacity:1;stroke:#000000;stroke-width:0.15875001;stroke-linecap:butt;stroke-linejoin:miter;stroke-miterlimit:4;stroke-dasharray:none;stroke-opacity:1" />
      <path
         sodipodi:nodetypes="ccccc"
         inkscape:connector-curvature="0"
         id="path2249-0"
         d="m 25.538822,-306.2386 h 3.161939 v 7.38553 h -3.161938 z"
         style="fill:#fc6675;fill-opacity:1;stroke:#000000;stroke-width:0.15875001;stroke-linecap:butt;stroke-linejoin:miter;stroke-miterlimit:4;stroke-dasharray:none;stroke-opacity:1" />
      <path
         sodipodi:nodetypes="ccccc"
         inkscape:connector-curvature="0"
         id="path2249-2"
         d="m 22.099238,-287.98236 h 3.16194 v 7.38554 h -3.161939 z"
         style="fill:#fc6675;fill-opacity:1;stroke:#000000;stroke-width:0.15875001;stroke-linecap:butt;stroke-linejoin:miter;stroke-miterlimit:4;stroke-dasharray:none;stroke-opacity:1" />
      <path
         sodipodi:nodetypes="ccccc"
         inkscape:connector-curvature="0"
         id="path2249-5"
         d="m 61.112121,-307.93208 -2.000457,-2.44868 5.719526,-4.67259 2.000456,2.44868 z"
         style="fill:#fc6675;fill-opacity:1;stroke:#000000;stroke-width:0.15875001;stroke-linecap:butt;stroke-linejoin:miter;stroke-miterlimit:4;stroke-dasharray:none;stroke-opacity:1" />
      <path
         sodipodi:nodetypes="ccccc"
         inkscape:connector-curvature="0"
         id="path2249-14"
         d="m 43.194747,-301.36389 -2.000457,-2.44868 5.719526,-4.67258 2.000456,2.44867 z"
         style="fill:#fc6675;fill-opacity:1;stroke:#000000;stroke-width:0.15875001;stroke-linecap:butt;stroke-linejoin:miter;stroke-miterlimit:4;stroke-dasharray:none;stroke-opacity:1" />
      <path
         sodipodi:nodetypes="ccccc"
         inkscape:connector-curvature="0"
         id="path2249-48"
         d="m 30.433614,-275.41464 h 3.161939 v 7.38554 h -3.161938 z"
         style="fill:#fc6675;fill-opacity:1;stroke:#000000;stroke-width:0.15875001;stroke-linecap:butt;stroke-linejoin:miter;stroke-miterlimit:4;stroke-dasharray:none;stroke-opacity:1" />
      <path
         sodipodi:nodetypes="ccccc"
         inkscape:connector-curvature="0"
         id="path2249-92"
         d="m 15.256215,-272.15875 -2.000457,-2.44868 5.719526,-4.67258 2.000456,2.44867 z"
         style="fill:#fc6675;fill-opacity:1;stroke:#000000;stroke-width:0.15875001;stroke-linecap:butt;stroke-linejoin:miter;stroke-miterlimit:4;stroke-dasharray:none;stroke-opacity:1" />
      <path
         sodipodi:nodetypes="ccccc"
         inkscape:connector-curvature="0"
         id="path2249-57"
         d="m 47.652464,-265.60486 -2.000458,-2.44868 5.719534,-4.6726 2.000457,2.44868 z"
         style="fill:#fc6675;fill-opacity:1;stroke:#000000;stroke-width:0.15875001;stroke-linecap:butt;stroke-linejoin:miter;stroke-miterlimit:4;stroke-dasharray:none;stroke-opacity:1" />
      <path
         sodipodi:nodetypes="ccccc"
         inkscape:connector-curvature="0"
         id="path2249-23"
         d="m 34.534656,-298.56569 h 3.161939 v 7.38554 h -3.161938 z"
         style="fill:#fc6675;fill-opacity:1;stroke:#000000;stroke-width:0.15875001;stroke-linecap:butt;stroke-linejoin:miter;stroke-miterlimit:4;stroke-dasharray:none;stroke-opacity:1" />
      <path
         sodipodi:nodetypes="ccccc"
         inkscape:connector-curvature="0"
         id="path2249-17"
         d="m 56.922385,-265.01081 h 3.161939 v 7.38554 h -3.161938 z"
         style="fill:#fc6675;fill-opacity:1;stroke:#000000;stroke-width:0.15875001;stroke-linecap:butt;stroke-linejoin:miter;stroke-miterlimit:4;stroke-dasharray:none;stroke-opacity:1" />
      <path
         inkscape:transform-center-y="-0.13229167"
         inkscape:transform-center-x="-0.26458334"
         sodipodi:nodetypes="ccccc"
         inkscape:connector-curvature="0"
         id="path2249-02"
         d="m 33.675278,-259.50077 2.182499,-2.28792 5.344028,5.0978 -2.182498,2.28792 z"
         style="fill:#fc6675;fill-opacity:1;stroke:#000000;stroke-width:0.15875001;stroke-linecap:butt;stroke-linejoin:miter;stroke-miterlimit:4;stroke-dasharray:none;stroke-opacity:1" />
    </g>
  </g>
</svg>
