<?xml version="1.0" encoding="UTF-8" standalone="no"?>
<!-- Created with Inkscape (http://www.inkscape.org/) -->

<svg
   xmlns:dc="http://purl.org/dc/elements/1.1/"
   xmlns:cc="http://creativecommons.org/ns#"
   xmlns:rdf="http://www.w3.org/1999/02/22-rdf-syntax-ns#"
   xmlns:svg="http://www.w3.org/2000/svg"
   xmlns="http://www.w3.org/2000/svg"
   xmlns:sodipodi="http://sodipodi.sourceforge.net/DTD/sodipodi-0.dtd"
   xmlns:inkscape="http://www.inkscape.org/namespaces/inkscape"
   width="400"
   height="400"
   viewBox="0 0 105.83333 105.83334"
   version="1.1"
   id="svg8"
   inkscape:version="0.92.3 (2405546, 2018-03-11)"
   sodipodi:docname="p6.svg">
  <defs
     id="defs2">
    <pattern
       y="0"
       x="0"
       height="6"
       width="6"
       patternUnits="userSpaceOnUse"
       id="EMFhbasepattern" />
  </defs>
  <sodipodi:namedview
     id="base"
     pagecolor="#ffffff"
     bordercolor="#666666"
     borderopacity="1.0"
     inkscape:pageopacity="0.0"
     inkscape:pageshadow="2"
     inkscape:zoom="0.98994949"
     inkscape:cx="219.00227"
     inkscape:cy="201.38601"
     inkscape:document-units="mm"
     inkscape:current-layer="layer1"
     showgrid="false"
     units="px"
     inkscape:window-width="958"
     inkscape:window-height="1048"
     inkscape:window-x="953"
     inkscape:window-y="0"
     inkscape:window-maximized="0" />
  <metadata
     id="metadata5">
    <rdf:RDF>
      <cc:Work
         rdf:about="">
        <dc:format>image/svg+xml</dc:format>
        <dc:type
           rdf:resource="http://purl.org/dc/dcmitype/StillImage" />
        <dc:title></dc:title>
      </cc:Work>
    </rdf:RDF>
  </metadata>
  <g
     inkscape:label="Layer 1"
     inkscape:groupmode="layer"
     id="layer1"
     transform="translate(0,-191.16665)">
    <path
       id="path1592"
       d="m 20.59632,210.74495 c 4.360301,-6.45579 11.556914,-10.28693 21.251176,-11.76858 12.953903,-2.75165 22.775164,1.10065 32.596424,4.95296 11.810912,5.65146 16.086547,15.26105 21.399344,24.32032 4.868296,8.23377 4.466136,16.48871 2.264814,24.72248 -0.634994,9.08043 -4.995296,14.4144 -9.080431,20.04469 -6.032455,8.2761 -12.975071,14.24506 -22.182502,14.71072 -13.5889,4.21214 -20.722014,1.98965 -28.066794,0 C 23.665464,285.92839 20.067157,279.11277 16.04552,272.48765 5.6104311,263.76705 6.2665931,254.68662 6.1607601,245.62735 L 10.584561,225.4345 Z"
       style="fill:#d7732b;fill-opacity:1;fill-rule:nonzero;stroke:#000000;stroke-width:0.25399813px;stroke-linecap:round;stroke-linejoin:round;stroke-miterlimit:4;stroke-dasharray:none;stroke-opacity:1"
       inkscape:connector-curvature="0" />
    <path
       id="path1594"
       d="m 92.795285,227.31832 c 4.169801,5.96896 5.058796,13.56774 3.026812,22.60583 -2.031987,12.31891 -8.762937,19.70602 -15.515053,27.07197 -8.995767,8.50894 -18.880526,9.1016 -28.659455,10.77375 -8.889934,1.56633 -15.980714,-1.54515 -22.457666,-6.20178 -7.725776,-3.57714 -10.921918,-9.18627 -14.456726,-14.66839 -5.1857948,-8.04328 -8.0221069,-16.15005 -5.2704609,-24.40499 0.9313269,-13.37723 5.3339609,-18.90169 9.6095959,-24.72248 6.752116,-12.69991 13.948728,-13.61007 21.145342,-14.94356 11.218251,-6.30762 18.965193,-2.70931 26.944968,0.21167 l 16.171214,10.56208 z"
       style="fill:#fce8a8;fill-opacity:1;fill-rule:nonzero;stroke:none;stroke-width:0.26458332"
       inkscape:connector-curvature="0" />
    <path
       id="path1596"
       d="m 66.739311,208.5013 c 6.498119,1.03715 11.980246,5.18579 16.552212,12.08607 6.709783,8.93227 7.260111,17.8222 7.810442,26.71214 -0.148167,11.02775 -5.968955,17.71637 -11.027752,24.99765 -4.571965,6.66745 -11.006584,9.29209 -18.097367,10.51975 -7.175447,2.73048 -12.826905,1.31233 -18.584196,0.16933 -8.466603,-1.65099 -15.493884,-4.8683 -19.113358,-11.74741 -8.06444,-8.88993 -8.9111,-15.13405 -9.969425,-21.48401 -4.000471,-12.19191 -0.0635,-17.35654 3.577139,-22.79633 2.963312,-11.09125 10.138759,-13.80056 17.039041,-17.10254 l 17.017873,-3.7888 z"
       style="fill:#fbe9a7;fill-opacity:1;fill-rule:nonzero;stroke:none;stroke-width:0.26458332"
       inkscape:connector-curvature="0" />
    <path
       id="path1598"
       d="m 22.183808,215.33808 c 3.704139,-5.90546 10.011759,-9.52493 18.647696,-11.11242 11.493413,-2.83631 20.38335,0.33866 29.252117,3.49247 10.710254,4.72014 14.816555,13.16557 19.790685,21.12418 4.614299,7.21778 4.466135,14.60489 2.730481,22.01317 -0.317497,8.12794 -4.042804,13.03857 -7.535277,18.18203 -5.143463,7.55645 -11.197085,13.08091 -19.409691,13.75823 -12.00141,4.16981 -18.436029,2.37065 -25.061148,0.78317 C 27.052105,282.41475 23.644297,276.42462 19.876659,270.625 10.28823,263.13206 10.626894,255.00412 10.28823,246.89734 l 3.365475,-18.13969 z"
       style="fill:#cc0001;fill-opacity:1;fill-rule:nonzero;stroke:none;stroke-width:0.26458332"
       inkscape:connector-curvature="0" />
    <path
       id="path1600"
       d="m 66.739311,208.5013 c 6.498119,1.03715 11.980246,5.18579 16.552212,12.08607 6.709783,8.93227 7.260111,17.8222 7.810442,26.71214 -0.148167,11.02775 -5.968955,17.71637 -11.027752,24.99765 -4.571965,6.66745 -11.006584,9.29209 -18.097367,10.51975 -7.175447,2.73048 -12.826905,1.31233 -18.584196,0.16933 -8.466603,-1.65099 -15.493884,-4.8683 -19.113358,-11.74741 -8.06444,-8.88993 -8.9111,-15.13405 -9.969425,-21.48401 -4.000471,-12.19191 -0.0635,-17.35654 3.577139,-22.79633 2.963312,-11.09125 10.138759,-13.80056 17.039041,-17.10254 l 17.017873,-3.7888 z"
       style="fill:#f5cc15;fill-opacity:1;fill-rule:nonzero;stroke:none;stroke-width:0.26458332"
       inkscape:connector-curvature="0" />
    <path
       id="path1602"
       d="m 20.59632,210.74495 c 4.360301,-6.45579 11.556914,-10.28693 21.251176,-11.76858 12.953903,-2.75165 22.775164,1.10065 32.596424,4.95296 11.810912,5.65146 16.086547,15.26105 21.399344,24.32032 4.868296,8.23377 4.466136,16.48871 2.264814,24.72248 -0.634994,9.08043 -4.995296,14.4144 -9.080431,20.04469 -6.032455,8.2761 -12.975071,14.24506 -22.182502,14.71072 -13.5889,4.21214 -20.722014,1.98965 -28.066794,0 C 23.665464,285.92839 20.067157,279.11277 16.04552,272.48765 5.6104311,263.76705 6.2665931,254.68662 6.1607601,245.62735 L 10.584561,225.4345 Z"
       style="fill:#d7732b;fill-opacity:1;fill-rule:nonzero;stroke:#000000;stroke-width:0.25399813px;stroke-linecap:round;stroke-linejoin:round;stroke-miterlimit:4;stroke-dasharray:none;stroke-opacity:1"
       inkscape:connector-curvature="0" />
    <path
       id="path1604"
       d="m 92.795285,227.31832 c 4.169801,5.96896 5.058796,13.56774 3.026812,22.60583 -2.031987,12.31891 -8.762937,19.70602 -15.515053,27.07197 -8.995767,8.50894 -18.880526,9.1016 -28.659455,10.77375 -8.889934,1.56633 -15.980714,-1.54515 -22.457666,-6.20178 -7.725776,-3.57714 -10.921918,-9.18627 -14.456726,-14.66839 -5.1857948,-8.04328 -8.0221069,-16.15005 -5.2704609,-24.40499 0.9313269,-13.37723 5.3339609,-18.90169 9.6095959,-24.72248 6.752116,-12.69991 13.948728,-13.61007 21.145342,-14.94356 11.218251,-6.30762 18.965193,-2.70931 26.944968,0.21167 l 16.171214,10.56208 z"
       style="fill:#fce8a8;fill-opacity:1;fill-rule:nonzero;stroke:none;stroke-width:0.26458332"
       inkscape:connector-curvature="0" />
    <path
       id="path1606"
       d="m 66.739311,208.5013 c 6.498119,1.03715 11.980246,5.18579 16.552212,12.08607 6.709783,8.93227 7.260111,17.8222 7.810442,26.71214 -0.148167,11.02775 -5.968955,17.71637 -11.027752,24.99765 -4.571965,6.66745 -11.006584,9.29209 -18.097367,10.51975 -7.175447,2.73048 -12.826905,1.31233 -18.584196,0.16933 -8.466603,-1.65099 -15.493884,-4.8683 -19.113358,-11.74741 -8.06444,-8.88993 -8.9111,-15.13405 -9.969425,-21.48401 -4.000471,-12.19191 -0.0635,-17.35654 3.577139,-22.79633 2.963312,-11.09125 10.138759,-13.80056 17.039041,-17.10254 l 17.017873,-3.7888 z"
       style="fill:#fbe9a7;fill-opacity:1;fill-rule:nonzero;stroke:none;stroke-width:0.26458332"
       inkscape:connector-curvature="0" />
    <path
       id="path1608"
       d="m 22.183808,215.33808 c 3.704139,-5.90546 10.011759,-9.52493 18.647696,-11.11242 11.493413,-2.83631 20.38335,0.33866 29.252117,3.49247 10.710254,4.72014 14.816555,13.16557 19.790685,21.12418 4.614299,7.21778 4.466135,14.60489 2.730481,22.01317 -0.317497,8.12794 -4.042804,13.03857 -7.535277,18.18203 -5.143463,7.55645 -11.197085,13.08091 -19.409691,13.75823 -12.00141,4.16981 -18.436029,2.37065 -25.061148,0.78317 C 27.052105,282.41475 23.644297,276.42462 19.876659,270.625 10.28823,263.13206 10.626894,255.00412 10.28823,246.89734 l 3.365475,-18.13969 z"
       style="fill:#cc0001;fill-opacity:1;fill-rule:nonzero;stroke:none;stroke-width:0.26458332"
       inkscape:connector-curvature="0" />
    <path
       id="path1610"
       d="m 66.739311,208.5013 c 6.498119,1.03715 11.980246,5.18579 16.552212,12.08607 6.709783,8.93227 7.260111,17.8222 7.810442,26.71214 -0.148167,11.02775 -5.968955,17.71637 -11.027752,24.99765 -4.571965,6.66745 -11.006584,9.29209 -18.097367,10.51975 -7.175447,2.73048 -12.826905,1.31233 -18.584196,0.16933 -8.466603,-1.65099 -15.493884,-4.8683 -19.113358,-11.74741 -8.06444,-8.88993 -8.9111,-15.13405 -9.969425,-21.48401 -4.000471,-12.19191 -0.0635,-17.35654 3.577139,-22.79633 2.963312,-11.09125 10.138759,-13.80056 17.039041,-17.10254 l 17.017873,-3.7888 z"
       style="fill:#f5cc15;fill-opacity:1;fill-rule:nonzero;stroke:none;stroke-width:0.26458332"
       inkscape:connector-curvature="0" />
    <path
       id="path1612"
       d="m 51.181928,215.90957 c -0.105834,-3.04797 0.29633,-4.82596 3.831137,-4.63546 4.000471,2.41298 2.307148,3.8523 -0.211666,6.15945 -1.608654,-1.73565 -3.323141,0.14817 -3.619471,-1.52399 z"
       style="fill:#f8992e;fill-opacity:1;fill-rule:nonzero;stroke:#000000;stroke-width:0.16933209px;stroke-linecap:butt;stroke-linejoin:miter;stroke-miterlimit:4;stroke-dasharray:none;stroke-opacity:1"
       inkscape:connector-curvature="0" />
    <path
       id="path1614"
       d="m 79.672049,244.59019 c 3.02681,-0.48682 4.825963,-0.27516 5.079963,3.23848 -1.926153,4.25447 -3.555973,2.75165 -6.138288,0.52916 1.523989,-1.79915 -0.550331,-3.28081 1.058325,-3.76764 z"
       style="fill:#f8992e;fill-opacity:1;fill-rule:nonzero;stroke:#000000;stroke-width:0.16933209px;stroke-linecap:butt;stroke-linejoin:miter;stroke-miterlimit:4;stroke-dasharray:none;stroke-opacity:1"
       inkscape:connector-curvature="0" />
    <path
       id="path1616"
       d="m 39.921343,238.43074 c 3.005645,-0.46566 4.804799,-0.27517 5.058796,3.23848 -1.904987,4.27563 -3.555973,2.75164 -6.138288,0.52916 1.523989,-1.79915 -0.550328,-3.28081 1.079492,-3.76764 z"
       style="fill:#f8992e;fill-opacity:1;fill-rule:nonzero;stroke:#000000;stroke-width:0.16933209px;stroke-linecap:butt;stroke-linejoin:miter;stroke-miterlimit:4;stroke-dasharray:none;stroke-opacity:1"
       inkscape:connector-curvature="0" />
    <path
       id="path1618"
       d="m 60.960854,257.96743 c -0.105831,-3.04798 0.317497,-4.8048 3.831137,-4.63547 4.000471,2.43415 2.307151,3.87347 -0.211664,6.15946 -1.608653,-1.73566 -3.323143,0.14816 -3.619473,-1.52399 z"
       style="fill:#f8992e;fill-opacity:1;fill-rule:nonzero;stroke:#000000;stroke-width:0.16933209px;stroke-linecap:butt;stroke-linejoin:miter;stroke-miterlimit:4;stroke-dasharray:none;stroke-opacity:1"
       inkscape:connector-curvature="0" />
    <path
       id="path1620"
       d="m 67.818803,230.78963 c -2.243651,-2.07432 -3.217309,-3.61947 -0.592661,-5.99012 4.529632,-1.12183 4.360299,1.07949 4.212135,4.4873 -2.370648,-0.0635 -2.243651,2.47648 -3.619474,1.50282 z"
       style="fill:#f8992e;fill-opacity:1;fill-rule:nonzero;stroke:#000000;stroke-width:0.16933209px;stroke-linecap:butt;stroke-linejoin:miter;stroke-miterlimit:4;stroke-dasharray:none;stroke-opacity:1"
       inkscape:connector-curvature="0" />
    <path
       id="path1622"
       d="m 54.081737,235.4886 c -0.105831,-3.04798 0.3175,-4.82597 3.83114,-4.63547 4.000471,2.41298 2.307148,3.8523 -0.211666,6.15945 -1.608654,-1.73565 -3.323141,0.14817 -3.619474,-1.52398 z"
       style="fill:#f8992e;fill-opacity:1;fill-rule:nonzero;stroke:#000000;stroke-width:0.16933209px;stroke-linecap:butt;stroke-linejoin:miter;stroke-miterlimit:4;stroke-dasharray:none;stroke-opacity:1"
       inkscape:connector-curvature="0" />
    <path
       id="path1624"
       d="m 46.948623,230.19697 c -0.10583,-3.04798 0.296334,-4.82597 3.831141,-4.63547 4.00047,2.41298 2.307148,3.85231 -0.211667,6.15946 -1.608654,-1.73566 -3.32314,0.14816 -3.619474,-1.52399 z"
       style="fill:#f8992e;fill-opacity:1;fill-rule:nonzero;stroke:#000000;stroke-width:0.16933209px;stroke-linecap:butt;stroke-linejoin:miter;stroke-miterlimit:4;stroke-dasharray:none;stroke-opacity:1"
       inkscape:connector-curvature="0" />
    <path
       id="path1626"
       d="m 45.699801,257.9886 c -2.243651,-2.07432 -3.196143,-3.61948 -0.592662,-5.99013 4.550799,-1.12182 4.360299,1.0795 4.212135,4.4873 -2.349484,-0.0847 -2.222484,2.47648 -3.619473,1.50283 z"
       style="fill:#f8992e;fill-opacity:1;fill-rule:nonzero;stroke:#000000;stroke-width:0.16933209px;stroke-linecap:butt;stroke-linejoin:miter;stroke-miterlimit:4;stroke-dasharray:none;stroke-opacity:1"
       inkscape:connector-curvature="0" />
    <path
       id="path1628"
       d="m 30.41758,224.90534 c -0.105832,-3.04798 0.296332,-4.82596 3.831139,-4.63547 4.000471,2.41299 2.30715,3.85231 -0.232831,6.15946 -1.608656,-1.73566 -3.323143,0.14817 -3.598308,-1.52399 z"
       style="fill:#f8992e;fill-opacity:1;fill-rule:nonzero;stroke:#000000;stroke-width:0.16933209px;stroke-linecap:butt;stroke-linejoin:miter;stroke-miterlimit:4;stroke-dasharray:none;stroke-opacity:1"
       inkscape:connector-curvature="0" />
    <path
       id="path1630"
       d="m 24.342792,240.63206 c -2.24365,-2.07432 -3.196143,-3.61948 -0.592662,-5.99013 4.550799,-1.12182 4.360301,1.10066 4.212135,4.50847 -2.349482,-0.0847 -2.222483,2.45532 -3.619473,1.48166 z"
       style="fill:#f8992e;fill-opacity:1;fill-rule:nonzero;stroke:#000000;stroke-width:0.16933209px;stroke-linecap:butt;stroke-linejoin:miter;stroke-miterlimit:4;stroke-dasharray:none;stroke-opacity:1"
       inkscape:connector-curvature="0" />
    <path
       id="path1632"
       d="m 63.754832,245.41569 c -0.10583,-3.06914 0.296334,-4.82596 3.831141,-4.63547 4.000468,2.41298 2.307148,3.85231 -0.232834,6.13829 -1.608653,-1.71449 -3.32314,0.14816 -3.598307,-1.50282 z"
       style="fill:#f8992e;fill-opacity:1;fill-rule:nonzero;stroke:#000000;stroke-width:0.16933209px;stroke-linecap:butt;stroke-linejoin:miter;stroke-miterlimit:4;stroke-dasharray:none;stroke-opacity:1"
       inkscape:connector-curvature="0" />
    <path
       id="path1634"
       d="m 30.862077,254.98295 c 3.026811,-0.46566 4.825964,-0.27516 5.079962,3.23848 -1.926151,4.27563 -3.555973,2.77281 -6.138287,0.52916 1.523988,-1.79915 -0.55033,-3.25964 1.058325,-3.76764 z"
       style="fill:#f8992e;fill-opacity:1;fill-rule:nonzero;stroke:#000000;stroke-width:0.16933209px;stroke-linecap:butt;stroke-linejoin:miter;stroke-miterlimit:4;stroke-dasharray:none;stroke-opacity:1"
       inkscape:connector-curvature="0" />
    <path
       id="path1636"
       d="m 39.011184,276.10713 c -0.105833,-3.06915 0.296331,-4.82597 3.831138,-4.63547 4.000471,2.41298 2.307148,3.85231 -0.211664,6.13829 -1.608656,-1.71449 -3.323143,0.14816 -3.619474,-1.50282 z"
       style="fill:#f8992e;fill-opacity:1;fill-rule:nonzero;stroke:#000000;stroke-width:0.16933209px;stroke-linecap:butt;stroke-linejoin:miter;stroke-miterlimit:4;stroke-dasharray:none;stroke-opacity:1"
       inkscape:connector-curvature="0" />
    <path
       id="path1638"
       d="m 77.005068,264.02105 c -2.243648,-2.07432 -3.21731,-3.59831 -0.592662,-5.96895 4.529633,-1.143 4.360302,1.07949 4.212135,4.48729 -2.370648,-0.0847 -2.24365,2.45532 -3.619473,1.48166 z"
       style="fill:#f8992e;fill-opacity:1;fill-rule:nonzero;stroke:#000000;stroke-width:0.16933209px;stroke-linecap:butt;stroke-linejoin:miter;stroke-miterlimit:4;stroke-dasharray:none;stroke-opacity:1"
       inkscape:connector-curvature="0" />
    <path
       id="path1640"
       d="m 59.817861,266.56103 c 3.026813,-0.46566 4.825966,-0.27516 5.079963,3.23848 -1.92615,4.27563 -3.555973,2.75164 -6.138288,0.52916 1.523989,-1.79915 -0.550328,-3.28081 1.058325,-3.76764 z"
       style="fill:#f8992e;fill-opacity:1;fill-rule:nonzero;stroke:#000000;stroke-width:0.16933209px;stroke-linecap:butt;stroke-linejoin:miter;stroke-miterlimit:4;stroke-dasharray:none;stroke-opacity:1"
       inkscape:connector-curvature="0" />
    <path
       id="path1642"
       d="m 48.79011,270.01117 -4.402632,-1.41815 3.25964,-6.68862 2.539982,0.80433 z"
       style="fill:#f7f052;fill-opacity:1;fill-rule:nonzero;stroke:#000000;stroke-width:0.16933209px;stroke-linecap:butt;stroke-linejoin:miter;stroke-miterlimit:4;stroke-dasharray:none;stroke-opacity:1"
       inkscape:connector-curvature="0" />
    <path
       id="path1644"
       d="m 79.947213,234.76893 0.211664,4.6143 -7.429444,-0.71966 -0.126997,-2.64581 z"
       style="fill:#f7f052;fill-opacity:1;fill-rule:nonzero;stroke:#000000;stroke-width:0.16933209px;stroke-linecap:butt;stroke-linejoin:miter;stroke-miterlimit:4;stroke-dasharray:none;stroke-opacity:1"
       inkscape:connector-curvature="0" />
    <path
       id="path1646"
       d="m 41.974494,233.94344 -4.402633,-1.41816 3.259643,-6.70978 2.539979,0.80433 z"
       style="fill:#f7f052;fill-opacity:1;fill-rule:nonzero;stroke:#000000;stroke-width:0.16933209px;stroke-linecap:butt;stroke-linejoin:miter;stroke-miterlimit:4;stroke-dasharray:none;stroke-opacity:1"
       inkscape:connector-curvature="0" />
    <path
       id="path1648"
       d="m 71.205446,249.67016 4.614299,-0.0212 -1.015995,7.38711 -2.666978,0.0212 z"
       style="fill:#f7f052;fill-opacity:1;fill-rule:nonzero;stroke:#000000;stroke-width:0.16933209px;stroke-linecap:butt;stroke-linejoin:miter;stroke-miterlimit:4;stroke-dasharray:none;stroke-opacity:1"
       inkscape:connector-curvature="0" />
    <path
       id="path1650"
       d="m 54.907232,253.75529 -4.402635,-1.41815 3.259643,-6.70979 2.539981,0.8255 z"
       style="fill:#f7f052;fill-opacity:1;fill-rule:nonzero;stroke:#000000;stroke-width:0.16933209px;stroke-linecap:butt;stroke-linejoin:miter;stroke-miterlimit:4;stroke-dasharray:none;stroke-opacity:1"
       inkscape:connector-curvature="0" />
    <path
       id="path1652"
       d="m 81.301869,222.47119 0.211667,4.59313 -7.40828,-0.69849 -0.148164,-2.66698 z"
       style="fill:#f7f052;fill-opacity:1;fill-rule:nonzero;stroke:#000000;stroke-width:0.16933209px;stroke-linecap:butt;stroke-linejoin:miter;stroke-miterlimit:4;stroke-dasharray:none;stroke-opacity:1"
       inkscape:connector-curvature="0" />
    <path
       id="path1654"
       d="m 29.020591,229.56197 4.6143,-0.0212 -1.015992,7.38712 h -2.666982 z"
       style="fill:#f7f052;fill-opacity:1;fill-rule:nonzero;stroke:#000000;stroke-width:0.16933209px;stroke-linecap:butt;stroke-linejoin:miter;stroke-miterlimit:4;stroke-dasharray:none;stroke-opacity:1"
       inkscape:connector-curvature="0" />
    <path
       id="path1656"
       d="m 56.156057,273.01682 0.211664,4.6143 -7.408278,-0.6985 -0.148166,-2.66698 z"
       style="fill:#f7f052;fill-opacity:1;fill-rule:nonzero;stroke:#000000;stroke-width:0.16933209px;stroke-linecap:butt;stroke-linejoin:miter;stroke-miterlimit:4;stroke-dasharray:none;stroke-opacity:1"
       inkscape:connector-curvature="0" />
    <path
       id="path1658"
       d="m 67.247309,262.75106 h 4.635465 l -1.037159,7.36595 -2.666981,0.0212 z"
       style="fill:#f7f052;fill-opacity:1;fill-rule:nonzero;stroke:#000000;stroke-width:0.16933209px;stroke-linecap:butt;stroke-linejoin:miter;stroke-miterlimit:4;stroke-dasharray:none;stroke-opacity:1"
       inkscape:connector-curvature="0" />
    <path
       id="path1660"
       d="m 57.46838,242.11371 h 4.614299 l -1.015992,7.36595 -2.666982,0.0212 z"
       style="fill:#f7f052;fill-opacity:1;fill-rule:nonzero;stroke:#000000;stroke-width:0.16933209px;stroke-linecap:butt;stroke-linejoin:miter;stroke-miterlimit:4;stroke-dasharray:none;stroke-opacity:1"
       inkscape:connector-curvature="0" />
    <path
       id="path1662"
       d="m 35.772708,245.96602 4.614299,-0.0212 -1.015992,7.38711 h -2.666982 z"
       style="fill:#f7f052;fill-opacity:1;fill-rule:nonzero;stroke:#000000;stroke-width:0.16933209px;stroke-linecap:butt;stroke-linejoin:miter;stroke-miterlimit:4;stroke-dasharray:none;stroke-opacity:1"
       inkscape:connector-curvature="0" />
    <path
       id="path1664"
       d="m 28.23743,261.69273 h 4.614299 l -1.037159,7.36595 -2.66698,0.0212 z"
       style="fill:#f7f052;fill-opacity:1;fill-rule:nonzero;stroke:#000000;stroke-width:0.16933209px;stroke-linecap:butt;stroke-linejoin:miter;stroke-miterlimit:4;stroke-dasharray:none;stroke-opacity:1"
       inkscape:connector-curvature="0" />
    <path
       id="path1666"
       d="m 45.551634,213.83526 0.211667,4.61429 -7.429445,-0.69849 -0.127,-2.66698 z"
       style="fill:#f7f052;fill-opacity:1;fill-rule:nonzero;stroke:#000000;stroke-width:0.16933209px;stroke-linecap:butt;stroke-linejoin:miter;stroke-miterlimit:4;stroke-dasharray:none;stroke-opacity:1"
       inkscape:connector-curvature="0" />
    <path
       id="path1668"
       d="m 58.526705,220.41804 h 4.614299 l -1.015992,7.36594 -2.666981,0.0212 z"
       style="fill:#f7f052;fill-opacity:1;fill-rule:nonzero;stroke:#000000;stroke-width:0.16933209px;stroke-linecap:butt;stroke-linejoin:miter;stroke-miterlimit:4;stroke-dasharray:none;stroke-opacity:1"
       inkscape:connector-curvature="0" />
    <path
       id="path1670"
       d="m 50.970261,243.08737 -4.402632,-1.41815 3.25964,-6.70979 2.539981,0.8255 z"
       style="fill:#f7f052;fill-opacity:1;fill-rule:nonzero;stroke:#000000;stroke-width:0.16933209px;stroke-linecap:butt;stroke-linejoin:miter;stroke-miterlimit:4;stroke-dasharray:none;stroke-opacity:1"
       inkscape:connector-curvature="0" />
    <path
       id="path1672"
       d="m 26.586442,244.90769 0.232832,4.6143 -7.429444,-0.6985 -0.126999,-2.66697 z"
       style="fill:#f7f052;fill-opacity:1;fill-rule:nonzero;stroke:#000000;stroke-width:0.16933209px;stroke-linecap:butt;stroke-linejoin:miter;stroke-miterlimit:4;stroke-dasharray:none;stroke-opacity:1"
       inkscape:connector-curvature="0" />
  </g>
</svg>
