<?xml version="1.0" encoding="UTF-8" standalone="no"?>
<!-- Created with Inkscape (http://www.inkscape.org/) -->

<svg
   xmlns:dc="http://purl.org/dc/elements/1.1/"
   xmlns:cc="http://creativecommons.org/ns#"
   xmlns:rdf="http://www.w3.org/1999/02/22-rdf-syntax-ns#"
   xmlns:svg="http://www.w3.org/2000/svg"
   xmlns="http://www.w3.org/2000/svg"
   xmlns:sodipodi="http://sodipodi.sourceforge.net/DTD/sodipodi-0.dtd"
   xmlns:inkscape="http://www.inkscape.org/namespaces/inkscape"
   width="400"
   height="400"
   viewBox="0 0 105.83333 105.83334"
   version="1.1"
   id="svg8"
   inkscape:version="0.92.3 (2405546, 2018-03-11)"
   sodipodi:docname="p7.svg">
  <defs
     id="defs2">
    <pattern
       y="0"
       x="0"
       height="6"
       width="6"
       patternUnits="userSpaceOnUse"
       id="EMFhbasepattern" />
  </defs>
  <sodipodi:namedview
     id="base"
     pagecolor="#ffffff"
     bordercolor="#666666"
     borderopacity="1.0"
     inkscape:pageopacity="0.0"
     inkscape:pageshadow="2"
     inkscape:zoom="0.98994949"
     inkscape:cx="219.00227"
     inkscape:cy="201.38601"
     inkscape:document-units="mm"
     inkscape:current-layer="layer1"
     showgrid="false"
     units="px"
     inkscape:window-width="958"
     inkscape:window-height="1048"
     inkscape:window-x="953"
     inkscape:window-y="0"
     inkscape:window-maximized="0" />
  <metadata
     id="metadata5">
    <rdf:RDF>
      <cc:Work
         rdf:about="">
        <dc:format>image/svg+xml</dc:format>
        <dc:type
           rdf:resource="http://purl.org/dc/dcmitype/StillImage" />
        <dc:title></dc:title>
      </cc:Work>
    </rdf:RDF>
  </metadata>
  <g
     inkscape:label="Layer 1"
     inkscape:groupmode="layer"
     id="layer1"
     transform="translate(0,-191.16665)">
    <g
       transform="translate(147.10833,418.04165)"
       id="g5577">
      <g
         transform="translate(-45.508333,-14.816667)"
         id="g2739">
        <path
           style="fill:none;stroke:none;stroke-width:0.26458332;stroke-linecap:round;stroke-linejoin:round;stroke-miterlimit:4;stroke-dasharray:none;stroke-opacity:1"
           d="m -81.004476,-192.48518 c 4.35611,-6.46471 11.546873,-10.28376 21.247931,-11.75986 12.95496,-2.75562 22.782678,1.09072 32.606879,4.94449 11.794001,5.65095 16.083111,15.25185 21.3815621,24.32152 4.88535898,8.24081 4.472209,16.48162 2.271789,24.72243 -0.639979,9.07082 -4.996918,14.42466 -9.0871601,20.04522 -6.014249,8.27378 -12.974428,14.23527 -22.18337,14.69982 -13.586209,4.23178 -20.715981,2.00711 -28.063304,0 -15.105087,-1.78267 -18.700497,-8.60083 -22.717907,-15.23436 -10.45184,-8.71501 -9.79298,-17.80038 -9.88898,-26.86059 l 4.40995,-20.17885 z"
           id="path823-0-3"
           inkscape:connector-curvature="0"
           sodipodi:nodetypes="cccccccccccc" />
        <path
           style="fill:#d7732b;fill-opacity:1;stroke:#000000;stroke-width:0.26458332;stroke-linecap:round;stroke-linejoin:round;stroke-miterlimit:4;stroke-dasharray:none;stroke-opacity:1"
           d="m -81.004476,-192.48518 c 4.35611,-6.46471 11.546873,-10.28376 21.247931,-11.75986 12.95496,-2.75562 22.782678,1.09072 32.606879,4.94449 11.794001,5.65095 16.083111,15.25185 21.3815621,24.32152 4.88535898,8.24081 4.472209,16.48162 2.271789,24.72243 -0.639979,9.07082 -4.996918,14.42466 -9.0871601,20.04522 -6.014249,8.27378 -12.974428,14.23527 -22.18337,14.69982 -13.586209,4.23178 -20.715981,2.00711 -28.063304,0 -15.105087,-1.78267 -18.700497,-8.60083 -22.717907,-15.23436 -10.45184,-8.71501 -9.79298,-17.80038 -9.88898,-26.86059 l 4.40995,-20.17885 z"
           id="path823-9-8-5"
           inkscape:connector-curvature="0"
           sodipodi:nodetypes="cccccccccccc" />
        <path
           style="fill:#fce8a8;fill-opacity:1;stroke:none;stroke-width:0.249025;stroke-linecap:round;stroke-linejoin:round;stroke-miterlimit:4;stroke-dasharray:none;stroke-opacity:1"
           d="m -8.8071849,-175.91352 c 4.174741,5.981 5.058031,13.58043 3.026481,22.61312 -2.025189,12.32267 -8.7667591,19.70096 -15.5136111,27.07368 -8.997889,8.51108 -18.886148,9.10263 -28.654663,10.75932 -8.900176,1.5679 -15.983889,-1.53015 -22.4549,-6.20211 -7.733698,-3.57318 -10.934148,-9.18634 -14.459918,-14.65311 -5.1924,-8.04144 -8.03321,-16.14865 -5.28348,-24.41233 0.94735,-13.36833 5.34214,-18.90882 9.62076,-24.71306 6.74137,-12.71034 13.951975,-13.61431 21.145376,-14.95118 11.224244,-6.31251 18.964246,-2.71787 26.940936,0.20369 l 16.18052,10.57862 z"
           id="path823-1-3-41-7"
           inkscape:connector-curvature="0"
           sodipodi:nodetypes="cccccccccccc" />
        <path
           style="fill:#fbe9a7;fill-opacity:1;stroke:none;stroke-width:0.22322927;stroke-linecap:round;stroke-linejoin:round;stroke-miterlimit:4;stroke-dasharray:none;stroke-opacity:1"
           d="m -34.853525,-194.72107 c 6.494761,1.03675 11.972012,5.18266 16.548171,12.08199 6.711371,8.93478 7.259529,17.82199 7.800761,26.70912 -0.134242,11.03304 -5.957522,17.72626 -11.015652,25.00317 -4.57064,6.6663 -11.023708,9.27793 -18.111769,10.52184 -7.168814,2.73293 -12.813771,1.30087 -18.56808,0.16769 -8.468262,-1.66294 -15.503092,-4.87122 -19.130332,-11.75332 -8.06525,-8.8934 -8.89589,-15.13985 -9.97029,-21.47548 -4.00234,-12.19252 -0.0621,-17.36626 3.58692,-22.79734 2.95585,-11.09453 10.14253,-13.81819 17.041749,-17.11055 l 17.008639,-3.79439 z"
           id="path823-1-83-2"
           inkscape:connector-curvature="0"
           sodipodi:nodetypes="cccccccccccc" />
        <path
           style="fill:#cc0001;fill-opacity:1;stroke:none;stroke-width:0.23646981;stroke-linecap:round;stroke-linejoin:round;stroke-miterlimit:4;stroke-dasharray:none;stroke-opacity:1"
           d="m -79.418816,-187.89507 c 3.70754,-5.89891 10.021991,-9.51445 18.64508,-11.1079 11.493159,-2.82872 20.38032,0.32929 29.26452,3.49402 10.694591,4.71458 14.797842,13.17052 19.787582,21.12327 4.5972601,7.22396 4.4619311,14.59795 2.7302091,22.02257 -0.314389,8.12195 -4.0541791,13.02842 -7.5481501,18.16562 -5.137298,7.56207 -11.18503,13.08513 -19.397228,13.76093 -12.015121,4.16538 -18.446491,2.37977 -25.066017,0.7947 -13.542326,-1.16488 -16.947066,-7.1544 -20.723516,-12.96698 -9.58266,-7.48998 -9.25182,-15.62547 -9.59449,-23.71709 l 3.36672,-18.15256 z"
           id="path823-1-8-9-3-3"
           inkscape:connector-curvature="0"
           sodipodi:nodetypes="cccccccccccc" />
        <path
           style="fill:#f5cc15;fill-opacity:1;stroke:none;stroke-width:0.22322927;stroke-linecap:round;stroke-linejoin:round;stroke-miterlimit:4;stroke-dasharray:none;stroke-opacity:1"
           d="m -34.853525,-194.72107 c 6.494761,1.03675 11.972012,5.18266 16.548171,12.08199 6.711371,8.93478 7.259529,17.82199 7.800761,26.70912 -0.134242,11.03304 -5.957522,17.72626 -11.015652,25.00317 -4.57064,6.6663 -11.023708,9.27793 -18.111769,10.52184 -7.168814,2.73293 -12.813771,1.30087 -18.56808,0.16769 -8.468262,-1.66294 -15.503092,-4.87122 -19.130332,-11.75332 -8.06525,-8.8934 -8.89589,-15.13985 -9.97029,-21.47548 -4.00234,-12.19252 -0.0621,-17.36626 3.58692,-22.79734 2.95585,-11.09453 10.14253,-13.81819 17.041749,-17.11055 l 17.008639,-3.79439 z"
           id="path823-1-8-7-4"
           inkscape:connector-curvature="0"
           sodipodi:nodetypes="cccccccccccc" />
        <path
           sodipodi:nodetypes="cccccccccccc"
           inkscape:connector-curvature="0"
           id="path1536-9-7"
           d="m -81.004476,-192.48518 c 4.35611,-6.46471 11.546873,-10.28376 21.247931,-11.75986 12.95496,-2.75562 22.782678,1.09072 32.606879,4.94449 11.794001,5.65095 16.083111,15.25185 21.3815621,24.32152 4.88535898,8.24081 4.472209,16.48162 2.271789,24.72243 -0.639979,9.07082 -4.996918,14.42466 -9.0871601,20.04522 -6.014249,8.27378 -12.974428,14.23527 -22.18337,14.69982 -13.586209,4.23178 -20.715981,2.00711 -28.063304,0 -15.105087,-1.78267 -18.700497,-8.60083 -22.717907,-15.23436 -10.45184,-8.71501 -9.79298,-17.80038 -9.88898,-26.86059 l 4.40995,-20.17885 z"
           style="fill:none;stroke:none;stroke-width:0.26458332;stroke-linecap:round;stroke-linejoin:round;stroke-miterlimit:4;stroke-dasharray:none;stroke-opacity:1" />
        <path
           sodipodi:nodetypes="cccccccccccc"
           inkscape:connector-curvature="0"
           id="path1538-3-2"
           d="m -81.004476,-192.48518 c 4.35611,-6.46471 11.546873,-10.28376 21.247931,-11.75986 12.95496,-2.75562 22.782678,1.09072 32.606879,4.94449 11.794001,5.65095 16.083111,15.25185 21.3815621,24.32152 4.88535898,8.24081 4.472209,16.48162 2.271789,24.72243 -0.639979,9.07082 -4.996918,14.42466 -9.0871601,20.04522 -6.014249,8.27378 -12.974428,14.23527 -22.18337,14.69982 -13.586209,4.23178 -20.715981,2.00711 -28.063304,0 -15.105087,-1.78267 -18.700497,-8.60083 -22.717907,-15.23436 -10.45184,-8.71501 -9.79298,-17.80038 -9.88898,-26.86059 l 4.40995,-20.17885 z"
           style="fill:#d7732b;fill-opacity:1;stroke:#000000;stroke-width:0.26458332;stroke-linecap:round;stroke-linejoin:round;stroke-miterlimit:4;stroke-dasharray:none;stroke-opacity:1" />
        <path
           sodipodi:nodetypes="cccccccccccc"
           inkscape:connector-curvature="0"
           id="path1540-0-3"
           d="m -8.8071849,-175.91352 c 4.174741,5.981 5.058031,13.58043 3.026481,22.61312 -2.025189,12.32267 -8.7667591,19.70096 -15.5136111,27.07368 -8.997889,8.51108 -18.886148,9.10263 -28.654663,10.75932 -8.900176,1.5679 -15.983889,-1.53015 -22.4549,-6.20211 -7.733698,-3.57318 -10.934148,-9.18634 -14.459918,-14.65311 -5.1924,-8.04144 -8.03321,-16.14865 -5.28348,-24.41233 0.94735,-13.36833 5.34214,-18.90882 9.62076,-24.71306 6.74137,-12.71034 13.951975,-13.61431 21.145376,-14.95118 11.224244,-6.31251 18.964246,-2.71787 26.940936,0.20369 l 16.18052,10.57862 z"
           style="fill:#fce8a8;fill-opacity:1;stroke:none;stroke-width:0.249025;stroke-linecap:round;stroke-linejoin:round;stroke-miterlimit:4;stroke-dasharray:none;stroke-opacity:1" />
        <path
           sodipodi:nodetypes="cccccccccccc"
           inkscape:connector-curvature="0"
           id="path1542-45-5"
           d="m -34.853525,-194.72107 c 6.494761,1.03675 11.972012,5.18266 16.548171,12.08199 6.711371,8.93478 7.259529,17.82199 7.800761,26.70912 -0.134242,11.03304 -5.957522,17.72626 -11.015652,25.00317 -4.57064,6.6663 -11.023708,9.27793 -18.111769,10.52184 -7.168814,2.73293 -12.813771,1.30087 -18.56808,0.16769 -8.468262,-1.66294 -15.503092,-4.87122 -19.130332,-11.75332 -8.06525,-8.8934 -8.89589,-15.13985 -9.97029,-21.47548 -4.00234,-12.19252 -0.0621,-17.36626 3.58692,-22.79734 2.95585,-11.09453 10.14253,-13.81819 17.041749,-17.11055 l 17.008639,-3.79439 z"
           style="fill:#fbe9a7;fill-opacity:1;stroke:none;stroke-width:0.22322927;stroke-linecap:round;stroke-linejoin:round;stroke-miterlimit:4;stroke-dasharray:none;stroke-opacity:1" />
        <path
           sodipodi:nodetypes="cccccccccccc"
           inkscape:connector-curvature="0"
           id="path1546-93-9"
           d="m -79.418816,-187.89507 c 3.70754,-5.89891 10.021991,-9.51445 18.64508,-11.1079 11.493159,-2.82872 20.38032,0.32929 29.26452,3.49402 10.694591,4.71458 14.797842,13.17052 19.787582,21.12327 4.5972601,7.22396 4.4619311,14.59795 2.7302091,22.02257 -0.314389,8.12195 -4.0541791,13.02842 -7.5481501,18.16562 -5.137298,7.56207 -11.18503,13.08513 -19.397228,13.76093 -12.015121,4.16538 -18.446491,2.37977 -25.066017,0.7947 -13.542326,-1.16488 -16.947066,-7.1544 -20.723516,-12.96698 -9.58266,-7.48998 -9.25182,-15.62547 -9.59449,-23.71709 l 3.36672,-18.15256 z"
           style="fill:#cc0001;fill-opacity:1;stroke:none;stroke-width:0.23646981;stroke-linecap:round;stroke-linejoin:round;stroke-miterlimit:4;stroke-dasharray:none;stroke-opacity:1" />
        <path
           sodipodi:nodetypes="cccccccccccc"
           inkscape:connector-curvature="0"
           id="path1548-5-4"
           d="m -34.853525,-194.72107 c 6.494761,1.03675 11.972012,5.18266 16.548171,12.08199 6.711371,8.93478 7.259529,17.82199 7.800761,26.70912 -0.134242,11.03304 -5.957522,17.72626 -11.015652,25.00317 -4.57064,6.6663 -11.023708,9.27793 -18.111769,10.52184 -7.168814,2.73293 -12.813771,1.30087 -18.56808,0.16769 -8.468262,-1.66294 -15.503092,-4.87122 -19.130332,-11.75332 -8.06525,-8.8934 -8.89589,-15.13985 -9.97029,-21.47548 -4.00234,-12.19252 -0.0621,-17.36626 3.58692,-22.79734 2.95585,-11.09453 10.14253,-13.81819 17.041749,-17.11055 l 17.008639,-3.79439 z"
           style="fill:#f5cc15;fill-opacity:1;stroke:none;stroke-width:0.22322927;stroke-linecap:round;stroke-linejoin:round;stroke-miterlimit:4;stroke-dasharray:none;stroke-opacity:1" />
      </g>
      <path
         sodipodi:nodetypes="cccc"
         inkscape:connector-curvature="0"
         id="path1826-45-3-5-3-4-9"
         d="m -71.744466,-191.44887 c 2.467871,-1.80601 4.158739,-2.45712 5.986295,0.56086 0.248757,4.66892 -1.894813,4.077 -5.210578,3.27884 0.530414,-2.30231 -1.991546,-2.66334 -0.775717,-3.8397 z"
         style="fill:#f8992e;fill-opacity:1;stroke:#000000;stroke-width:0.15875003;stroke-linecap:butt;stroke-linejoin:miter;stroke-miterlimit:4;stroke-dasharray:none;stroke-opacity:1" />
      <path
         sodipodi:nodetypes="cccc"
         inkscape:connector-curvature="0"
         id="path1826-45-3-5-5-7-8"
         d="m -79.44422,-151.75416 c 2.092199,2.23043 2.943724,3.82977 0.169869,6.01011 -4.604209,0.8136 -4.276847,-1.38596 -3.887025,-4.77409 2.349661,0.24706 2.401931,-2.30008 3.717156,-1.23602 z"
         style="fill:#f8992e;fill-opacity:1;stroke:#000000;stroke-width:0.15875003;stroke-linecap:butt;stroke-linejoin:miter;stroke-miterlimit:4;stroke-dasharray:none;stroke-opacity:1" />
      <path
         sodipodi:nodetypes="cccc"
         inkscape:connector-curvature="0"
         id="path1826-45-3-5-4-3-0"
         d="m -96.706703,-188.10517 c 2.092176,2.23043 2.94371,3.82977 0.16986,6.01012 -4.604197,0.8136 -4.276837,-1.38597 -3.887027,-4.77409 2.349648,0.24705 2.401918,-2.30008 3.717167,-1.23603 z"
         style="fill:#f8992e;fill-opacity:1;stroke:#000000;stroke-width:0.15875003;stroke-linecap:butt;stroke-linejoin:miter;stroke-miterlimit:4;stroke-dasharray:none;stroke-opacity:1" />
      <path
         sodipodi:nodetypes="cccc"
         inkscape:connector-curvature="0"
         id="path1826-45-3-5-6-9-4"
         d="m -101.03424,-159.7042 c 2.467861,-1.80601 4.158725,-2.45713 5.986281,0.56085 0.248756,4.66892 -1.894813,4.07701 -5.210561,3.27885 0.530407,-2.30231 -1.99155,-2.66334 -0.77572,-3.8397 z"
         style="fill:#f8992e;fill-opacity:1;stroke:#000000;stroke-width:0.15875003;stroke-linecap:butt;stroke-linejoin:miter;stroke-miterlimit:4;stroke-dasharray:none;stroke-opacity:1" />
      <path
         sodipodi:nodetypes="cccc"
         inkscape:connector-curvature="0"
         id="path1826-45-3-5-65-2-3"
         d="m -74.701253,-169.32564 c 0.457543,-3.02369 1.187015,-4.68226 4.61622,-3.85237 3.488137,3.11346 1.557664,4.21735 -1.345143,6.00762 -1.259821,-1.99869 -3.293123,-0.46362 -3.271077,-2.15525 z"
         style="fill:#f8992e;fill-opacity:1;stroke:#000000;stroke-width:0.15875003;stroke-linecap:butt;stroke-linejoin:miter;stroke-miterlimit:4;stroke-dasharray:none;stroke-opacity:1" />
      <path
         sodipodi:nodetypes="cccc"
         inkscape:connector-curvature="0"
         id="path1826-45-3-5-48-1-7"
         d="m -86.301309,-178.03573 c 2.467872,-1.806 4.158739,-2.45712 5.986296,0.56086 0.248756,4.66892 -1.894814,4.07701 -5.21058,3.27884 0.530417,-2.3023 -1.991544,-2.66334 -0.775716,-3.8397 z"
         style="fill:#f8992e;fill-opacity:1;stroke:#000000;stroke-width:0.15875003;stroke-linecap:butt;stroke-linejoin:miter;stroke-miterlimit:4;stroke-dasharray:none;stroke-opacity:1" />
      <path
         sodipodi:nodetypes="cccc"
         inkscape:connector-curvature="0"
         id="path1826-45-3-5-46-2-3"
         d="m -86.782492,-189.16362 c 2.467877,-1.806 4.158739,-2.45712 5.98629,0.56085 0.248761,4.66893 -1.894815,4.07701 -5.210574,3.27885 0.530421,-2.3023 -1.991539,-2.66333 -0.775716,-3.8397 z"
         style="fill:#f8992e;fill-opacity:1;stroke:#000000;stroke-width:0.15875003;stroke-linecap:butt;stroke-linejoin:miter;stroke-miterlimit:4;stroke-dasharray:none;stroke-opacity:1" />
      <path
         sodipodi:nodetypes="cccc"
         inkscape:connector-curvature="0"
         id="path1826-45-3-5-2-9-0"
         d="m -109.62142,-172.32531 c 0.45754,-3.02368 1.18702,-4.68225 4.61622,-3.85237 3.48813,3.11347 1.55767,4.21735 -1.34514,6.00763 -1.25983,-1.9987 -3.29313,-0.46363 -3.27108,-2.15526 z"
         style="fill:#f8992e;fill-opacity:1;stroke:#000000;stroke-width:0.15875003;stroke-linecap:butt;stroke-linejoin:miter;stroke-miterlimit:4;stroke-dasharray:none;stroke-opacity:1" />
      <path
         sodipodi:nodetypes="cccc"
         inkscape:connector-curvature="0"
         id="path1826-45-3-5-20-9-8"
         d="m -90.85982,-203.56961 c 2.467871,-1.80601 4.158739,-2.45712 5.986295,0.56086 0.248757,4.66892 -1.894814,4.077 -5.210579,3.27884 0.530416,-2.30231 -1.991545,-2.66334 -0.775716,-3.8397 z"
         style="fill:#f8992e;fill-opacity:1;stroke:#000000;stroke-width:0.15875003;stroke-linecap:butt;stroke-linejoin:miter;stroke-miterlimit:4;stroke-dasharray:none;stroke-opacity:1" />
      <path
         sodipodi:nodetypes="cccc"
         inkscape:connector-curvature="0"
         id="path1826-45-3-5-42-5-1"
         d="m -107.27875,-199.74194 c 0.45755,-3.02369 1.18702,-4.68226 4.61623,-3.85237 3.488124,3.11346 1.55765,4.21734 -1.34514,6.00762 -1.25982,-1.9987 -3.29313,-0.46363 -3.27109,-2.15525 z"
         style="fill:#f8992e;fill-opacity:1;stroke:#000000;stroke-width:0.15875003;stroke-linecap:butt;stroke-linejoin:miter;stroke-miterlimit:4;stroke-dasharray:none;stroke-opacity:1" />
      <path
         sodipodi:nodetypes="cccc"
         inkscape:connector-curvature="0"
         id="path1826-45-3-5-8-6-7"
         d="m -89.078489,-164.47128 c 2.46787,-1.80601 4.158739,-2.45712 5.986295,0.56086 0.248755,4.66891 -1.894813,4.077 -5.210581,3.27884 0.530417,-2.30231 -1.991544,-2.66334 -0.775714,-3.8397 z"
         style="fill:#f8992e;fill-opacity:1;stroke:#000000;stroke-width:0.15875003;stroke-linecap:butt;stroke-linejoin:miter;stroke-miterlimit:4;stroke-dasharray:none;stroke-opacity:1" />
      <path
         sodipodi:nodetypes="cccc"
         inkscape:connector-curvature="0"
         id="path1826-45-3-5-1-6-5"
         d="m -115.48589,-186.27927 c 2.09219,2.23044 2.94372,3.82978 0.16987,6.01013 -4.60422,0.81359 -4.27685,-1.38598 -3.88703,-4.7741 2.34966,0.24706 2.40193,-2.30008 3.71716,-1.23603 z"
         style="fill:#f8992e;fill-opacity:1;stroke:#000000;stroke-width:0.15875003;stroke-linecap:butt;stroke-linejoin:miter;stroke-miterlimit:4;stroke-dasharray:none;stroke-opacity:1" />
      <path
         sodipodi:nodetypes="cccc"
         inkscape:connector-curvature="0"
         id="path1826-45-3-5-68-7-1"
         d="m -128.36827,-167.67842 c 2.46787,-1.80601 4.15874,-2.45712 5.98629,0.56086 0.24876,4.66892 -1.89481,4.077 -5.21058,3.27884 0.53042,-2.30231 -1.99154,-2.66334 -0.77571,-3.8397 z"
         style="fill:#f8992e;fill-opacity:1;stroke:#000000;stroke-width:0.15875003;stroke-linecap:butt;stroke-linejoin:miter;stroke-miterlimit:4;stroke-dasharray:none;stroke-opacity:1" />
      <path
         sodipodi:nodetypes="cccc"
         inkscape:connector-curvature="0"
         id="path1826-45-3-5-22-7-5"
         d="m -97.026051,-143.04641 c 0.457535,-3.02369 1.187016,-4.68226 4.61622,-3.85238 3.488127,3.11347 1.557663,4.21735 -1.345143,6.00762 -1.259821,-1.99869 -3.293129,-0.46363 -3.271077,-2.15524 z"
         style="fill:#f8992e;fill-opacity:1;stroke:#000000;stroke-width:0.15875003;stroke-linecap:butt;stroke-linejoin:miter;stroke-miterlimit:4;stroke-dasharray:none;stroke-opacity:1" />
      <path
         sodipodi:nodetypes="cccc"
         inkscape:connector-curvature="0"
         id="path1826-45-3-5-60-3-5"
         d="m -108.77874,-155.82737 c 2.09219,2.23042 2.94372,3.82976 0.16987,6.01011 -4.60422,0.81361 -4.27685,-1.38597 -3.88704,-4.77409 2.34967,0.24705 2.40193,-2.30008 3.71717,-1.23602 z"
         style="fill:#f8992e;fill-opacity:1;stroke:#000000;stroke-width:0.15875003;stroke-linecap:butt;stroke-linejoin:miter;stroke-miterlimit:4;stroke-dasharray:none;stroke-opacity:1" />
      <circle
         r="2.8908834"
         cy="-182.50826"
         cx="-107.85662"
         id="path3657-7"
         style="opacity:1;fill:#edf182;fill-opacity:1;stroke:#626f3a;stroke-width:1.32291663;stroke-linecap:round;stroke-linejoin:round;stroke-miterlimit:4;stroke-dasharray:none;stroke-dashoffset:0;stroke-opacity:0.98382748" />
      <circle
         r="2.8908834"
         cy="-156.12875"
         cx="-115.80788"
         id="path3657-6"
         style="opacity:1;fill:#edf182;fill-opacity:1;stroke:#626f3a;stroke-width:1.32291663;stroke-linecap:round;stroke-linejoin:round;stroke-miterlimit:4;stroke-dasharray:none;stroke-dashoffset:0;stroke-opacity:0.98382748" />
      <circle
         r="2.8908834"
         cy="-162.67686"
         cx="-106.45345"
         id="path3657-8"
         style="opacity:1;fill:#edf182;fill-opacity:1;stroke:#626f3a;stroke-width:1.32291663;stroke-linecap:round;stroke-linejoin:round;stroke-miterlimit:4;stroke-dasharray:none;stroke-dashoffset:0;stroke-opacity:0.98382748" />
      <circle
         r="2.8908834"
         cy="-194.38838"
         cx="-93.170158"
         id="path3657-5"
         style="opacity:1;fill:#edf182;fill-opacity:1;stroke:#626f3a;stroke-width:1.32291663;stroke-linecap:round;stroke-linejoin:round;stroke-miterlimit:4;stroke-dasharray:none;stroke-dashoffset:0;stroke-opacity:0.98382748" />
      <circle
         r="2.8908834"
         cy="-196.63345"
         cx="-77.735344"
         id="path3657-89"
         style="opacity:1;fill:#edf182;fill-opacity:1;stroke:#626f3a;stroke-width:1.32291663;stroke-linecap:round;stroke-linejoin:round;stroke-miterlimit:4;stroke-dasharray:none;stroke-dashoffset:0;stroke-opacity:0.98382748" />
      <circle
         r="2.8908834"
         cy="-181.66637"
         cx="-68.568001"
         id="path3657-1"
         style="opacity:1;fill:#edf182;fill-opacity:1;stroke:#626f3a;stroke-width:1.32291663;stroke-linecap:round;stroke-linejoin:round;stroke-miterlimit:4;stroke-dasharray:none;stroke-dashoffset:0;stroke-opacity:0.98382748" />
      <circle
         r="2.8908834"
         cy="-155.75458"
         cx="-72.964584"
         id="path3657-2"
         style="opacity:1;fill:#edf182;fill-opacity:1;stroke:#626f3a;stroke-width:1.32291663;stroke-linecap:round;stroke-linejoin:round;stroke-miterlimit:4;stroke-dasharray:none;stroke-dashoffset:0;stroke-opacity:0.98382748" />
      <circle
         r="2.8908834"
         cy="-150.89027"
         cx="-91.673447"
         id="path3657-3"
         style="opacity:1;fill:#edf182;fill-opacity:1;stroke:#626f3a;stroke-width:1.32291663;stroke-linecap:round;stroke-linejoin:round;stroke-miterlimit:4;stroke-dasharray:none;stroke-dashoffset:0;stroke-opacity:0.98382748" />
      <circle
         r="2.8908834"
         cy="-176.24078"
         cx="-93.637878"
         id="path3657-58"
         style="opacity:1;fill:#edf182;fill-opacity:1;stroke:#626f3a;stroke-width:1.32291663;stroke-linecap:round;stroke-linejoin:round;stroke-miterlimit:4;stroke-dasharray:none;stroke-dashoffset:0;stroke-opacity:0.98382748" />
      <circle
         r="2.8908834"
         cy="-172.21838"
         cx="-117.67877"
         id="path3657-9"
         style="opacity:1;fill:#edf182;fill-opacity:1;stroke:#626f3a;stroke-width:1.32291663;stroke-linecap:round;stroke-linejoin:round;stroke-miterlimit:4;stroke-dasharray:none;stroke-dashoffset:0;stroke-opacity:0.98382748" />
      <circle
         r="2.8908834"
         cy="-194.01421"
         cx="-110.19522"
         id="path3657-32"
         style="opacity:1;fill:#edf182;fill-opacity:1;stroke:#626f3a;stroke-width:1.32291663;stroke-linecap:round;stroke-linejoin:round;stroke-miterlimit:4;stroke-dasharray:none;stroke-dashoffset:0;stroke-opacity:0.98382748" />
      <circle
         r="2.8908834"
         cy="-163.70586"
         cx="-78.015976"
         id="path3657-84"
         style="opacity:1;fill:#edf182;fill-opacity:1;stroke:#626f3a;stroke-width:1.32291663;stroke-linecap:round;stroke-linejoin:round;stroke-miterlimit:4;stroke-dasharray:none;stroke-dashoffset:0;stroke-opacity:0.98382748" />
    </g>
  </g>
</svg>
